<?xml version="1.0" standalone="no"?>
<!DOCTYPE svg PUBLIC "-//W3C//DTD SVG 20010904//EN"
 "http://www.w3.org/TR/2001/REC-SVG-20010904/DTD/svg10.dtd">
<svg version="1.0" xmlns="http://www.w3.org/2000/svg"
 width="260.000000pt" height="260.000000pt" viewBox="0 0 260.000000 260.000000"
 preserveAspectRatio="xMidYMid meet">
<metadata>
Created by potrace 1.11, written by Peter Selinger 2001-2013
</metadata>
<g transform="translate(0.000000,260.000000) scale(0.100000,-0.100000)"
fill="#000000" stroke="none">
<path d="M1190 2134 c-111 -30 -204 -105 -257 -208 -25 -49 -53 -158 -53 -208
0 -25 4 -28 33 -28 19 0 56 -7 83 -15 27 -8 50 -15 51 -15 1 0 7 26 13 58 17
84 42 134 90 178 52 48 74 61 123 69 60 11 120 -11 173 -62 50 -49 74 -96 95
-183 7 -30 13 -56 14 -57 0 -1 23 4 50 12 26 8 63 15 82 15 31 0 33 2 33 33 0
50 -27 152 -54 205 -87 171 -286 257 -476 206z"/>
<path d="M768 1668 l-48 -10 0 -44 c0 -66 23 -114 54 -114 28 0 52 -32 39 -54
-4 -7 -25 -28 -45 -45 -23 -20 -43 -49 -50 -73 -13 -45 -17 -40 59 -86 52 -32
100 -98 113 -157 6 -28 10 -91 9 -142 -3 -85 -1 -94 24 -131 108 -155 429
-202 644 -94 57 29 142 108 144 134 0 7 0 59 -1 114 -1 58 4 120 11 143 15 52
79 125 130 152 26 13 39 26 39 40 0 36 -31 88 -65 109 -52 32 -52 90 1 90 31
0 64 51 64 100 0 49 -8 56 -68 69 -78 16 -92 15 -92 -11 0 -35 -46 -125 -70
-138 -14 -7 -43 -9 -84 -5 -35 4 -66 3 -69 -2 -3 -5 0 -27 6 -50 6 -24 8 -46
3 -50 -9 -10 -412 -12 -427 -2 -7 4 -9 18 -5 35 17 70 18 69 -60 66 l-72 -3
-30 37 c-17 20 -36 59 -42 86 -13 54 -18 55 -112 36z m560 -468 c24 -23 29
-69 10 -88 -9 -9 -9 -18 0 -36 7 -16 8 -28 2 -31 -6 -4 -10 -26 -10 -50 0 -31
-5 -45 -17 -49 -30 -12 -44 16 -45 93 -1 40 -5 74 -10 77 -16 10 -8 58 14 81
26 28 29 28 56 3z"/>
<path d="M892 1644 c26 -98 57 -120 149 -109 70 8 89 -8 71 -59 -7 -18 -12
-37 -12 -43 0 -6 70 -10 201 -10 223 1 205 -5 184 63 -12 37 19 56 79 49 87
-11 118 13 144 109 l11 38 -37 -6 c-21 -3 -66 -18 -102 -32 -59 -25 -80 -27
-231 -32 -179 -5 -267 5 -345 38 -25 11 -63 23 -84 26 l-39 6 11 -38z"/>
<path d="M733 1239 c58 -133 61 -145 61 -229 1 -78 -2 -90 -31 -144 -18 -33
-33 -65 -33 -72 0 -27 123 -175 183 -220 260 -197 611 -174 837 55 41 42 86
97 99 122 l25 47 -34 63 c-32 59 -35 71 -34 149 0 73 4 95 32 159 17 41 30 76
28 78 -11 11 -94 -69 -115 -111 -23 -46 -25 -60 -24 -165 1 -105 -1 -120 -22
-157 -51 -88 -151 -151 -282 -179 -211 -45 -435 29 -525 173 -21 33 -23 50
-24 162 -1 138 -8 167 -57 218 -37 39 -94 73 -84 51z"/>
</g>
</svg>
