<svg width="26.99" height="32" viewBox="0 0 27.0023 32.019444"><path d="M0 .033V32.02h27.002V.033h-1.008v30.98H1.008V.032zm13.533 6.893c-1.948 0-3.523 1.614-3.523 3.586v1.584a2.463 2.463 0 0 1-.434-.762l-.183-.56-.522.273a5.616 5.616 0 0 0-2.038 1.803l-.24.35.308.294c.91.865 1.564 2.647 1.565 4.594-.002 1.746-.524 3.38-1.31 4.316l-.268.323.27.32c1.06 1.255 2.698 2.053 4.534 2.053h3.54c1.958 0 3.694-.906 4.74-2.31l.22-.302-.225-.3c-.725-.956-1.192-2.515-1.194-4.17.002-1.804.56-3.48 1.382-4.403l.25-.28-.2-.317a5.576 5.576 0 0 0-1.932-1.844l-.51-.295-.21.55a2.56 2.56 0 0 1-.493.783v-1.7c0-1.973-1.575-3.587-3.524-3.587zm0 .98c1.412 0 2.543 1.148 2.543 2.606v2.47c-.01.007-.024.012-.035.018-.686.37-1.537.6-2.46.602-.983 0-1.884-.26-2.59-.672v-2.418c0-1.458 1.13-2.606 2.543-2.606zm-4.56 4.344c.44.614.864 1.082 1.26 1.514.93.597 2.087.914 3.283.916 1.212-.002 2.384-.327 3.318-.94.46-.362.934-.95 1.285-1.367.4.292.773.612 1.052 1.002-.874 1.19-1.4 2.832-1.4 4.643 0 1.653.448 3.173 1.19 4.345a4.848 4.848 0 0 1-3.733 1.737h-3.54a4.872 4.872 0 0 1-3.526-1.514c.81-1.183 1.3-2.76 1.3-4.496v-.002c0-1.944-.603-3.676-1.595-4.86.3-.387.684-.7 1.103-.978zm4.025 5.775v.985h1.008v-.985z"/></svg>