<svg width="29.54" height="25.354" viewBox="0 0 29.53993 26"><path d="M13.893 0l-.082.03C6.058.572.004 6.025 0 12.665c0 7.052 6.79 12.688 15.063 12.688 6.658-.005 12.555-3.68 14.445-9.122l.023-.068.003-.07c.003-.018.006-.01.006-.053 0-.535-.07-1.578-.835-2.593-.766-1.015-2.198-1.97-4.775-2.486-1.243-.248-2.14-.46-2.79-.726-.652-.264-1.05-.56-1.402-1.04-.702-.962-1.158-2.797-2.16-6.305-.23-.807-.552-1.428-1.125-1.874-.572-.446-1.326-.705-2.42-.98L13.893 0zm-.018.99c.984.255 1.622.49 1.992.778.384.3.59.668.793 1.382.998 3.492 1.4 5.362 2.307 6.604.453.62 1.047 1.053 1.812 1.365.765.31 1.705.523 2.962.775 2.423.484 3.604 1.335 4.2 2.126.583.772.624 1.5.626 1.968-1.76 4.943-7.23 8.41-13.506 8.412-7.84 0-14.11-5.298-14.11-11.734C.957 6.61 6.533 1.508 13.876.99zM10.75 3.604c-1.1 0-2 .9-2 2 0 1.098.9 2 2 2s2-.902 2-2c0-1.1-.9-2-2-2zm0 1c.558 0 1 .44 1 1 0 .558-.442 1-1 1s-1-.442-1-1c0-.56.442-1 1-1zm-4.875 3.25c-1.1 0-2 .9-2 2 0 1.098.9 2 2 2s2-.902 2-2c0-1.1-.9-2-2-2zm0 1c.558 0 1 .44 1 1 0 .558-.442 1-1 1s-1-.442-1-1c0-.56.442-1 1-1zm16.438 5.187c-1.883 0-3.5 1.296-3.5 3 0 1.706 1.617 3 3.5 3 1.882 0 3.5-1.294 3.5-3 0-1.704-1.618-3-3.5-3zm-16.8.052c-1.098 0-2 .9-2 2 0 1.098.902 2 2 2 1.1 0 2-.902 2-2 0-1.1-.9-2-2-2zm16.8.95c1.43 0 2.5.943 2.5 2 0 1.055-1.07 2-2.5 2-1.432 0-2.5-.945-2.5-2 0-1.057 1.068-2 2.5-2zm-16.8.05c.56 0 1 .442 1 1s-.44 1-1 1c-.558 0-1-.442-1-1s.442-1 1-1z"/></svg>