<svg width="28.488" height="19.029" viewBox="0 0 28.488235 19.029303"><path d="M0 0v1.018h6.414l1.64 3.18 3.085 5.98.887-.46c-.795-1.494-1.66-3.026-2.494-4.56l17.545.582-2.69 7.254c-5.596-.004-11.216.008-16.798-.004l-1.602 3.004a2.005 2.005 0 0 0-1.715-.98 2.014 2.014 0 0 0-2.007 2.007c0 1.106.903 2.01 2.007 2.01a2.014 2.014 0 0 0 2.008-2.01c5.628-.054 11.36-.028 16.173-.014 0 1.104.904 2.008 2.008 2.008a2.014 2.014 0 0 0 2.01-2.008 2.014 2.014 0 0 0-2.01-2.008c-.733 0-1.372.404-1.722.996H7.118l1.062-2h16.834c1.41-3.572 2.567-6.65 3.474-9.193-6.716-.23-13.68-.432-19.467-.61C8.287 2.757 7.53 1.295 6.995 0 4.574.002 2.084 0 0 0zm24.46 15.8a1.2 1.2 0 0 1 1.206 1.206 1.2 1.2 0 0 1-1.205 1.205c-.67 0-1.202-.534-1.202-1.204 0-.67.533-1.205 1.203-1.205zm-20.187.016A1.2 1.2 0 0 1 5.48 17.02a1.2 1.2 0 0 1-1.207 1.207 1.2 1.2 0 0 1-1.205-1.206 1.2 1.2 0 0 1 1.205-1.204z"/></svg>