<svg width="24" height="32" viewBox="0 0 27.000002 36.000001"><path d="M22.855.775l-.31.62c.026-.053-.106.104-.31.195a1.79 1.79 0 0 1-.645.152h-.43l-.52 3.424h.786l-2.528 8.186v-8.23c0-.085.01-.088.014-.153.153.075.34.135.55.085a.78.78 0 0 0 .466-.36c.084-.142.122-.278.154-.42.127-.564.116-1.287.213-1.963l.082-.57H19.8c-.063 0-.273-.05-.44-.138-.168-.088-.293-.233-.282-.21l-.24-.482-.463.277c-.196.117-1.085.318-1.535.318-.303 0-.563-.004-.89-.067-.212-.07-.386-.13-.546-.237l-.47-.314-.254.505c.04-.083-.115.1-.334.193-.22.094-.5.154-.62.154h-.59l.518 3.094.05-.002c.024.07.036.138.1.2.1.102.237.15.34.16.12.014.177-.026.25-.05v8.624c0 1.893-.33 2.613-.554 2.837l-.354.354.354.353c.282.282.398.52.398.582 0 .122-.238.46-.322.517l-.463.31.356.426c.148.18.277.388.39.915.115.526.195 1.355.195 2.66v8.345h-.76l-.483 3.524h.573c-.006 0 .24.066.43.195.19.13.345.327.353.346l.242.605.52-.39c.185-.138.76-.368 1.26-.368.227 0 .597.068.89.14.31.08.568.202.547.18l.49.49.31-.618a1.65 1.65 0 0 1 .337-.315c.18-.12.395-.187.462-.187h.57l-.454-3.512h-.784v-8.133l.39-1.37 1.905 9.652-.037-.028h-.93l.237 3.433h.467c.153 0 .406.07.62.183.215.115.39.285.43.354l.33.55.454-.454c.157-.157.254-.25.332-.293.077-.045.152-.073.363-.073.12 0 .52.068.813.14.156.04.298.077.38.11.08.03.06.073-.005-.058l.446.894.447-.894a1.45 1.45 0 0 1 .296-.348c.134-.112.277-.154.27-.154h.68l-.968-3.113h-.757l-1.417-9.842v-.002c-.224-1.487 0-1.97.248-2.22l.538-.536-.705-.28c-.294-.12-.337-.142-.393-.476l-.004-.018-.004-.02c-.01-.045.084-.4.203-.49l.397-.297-.293-.4c-.76-1.037-1.06-2.31-1.214-3.57l2.428-8.018h.84l1.38-3.645h-.724c-.095 0-.315-.064-.5-.164s-.352-.27-.33-.236l-.278-.416-.416.277c-.17.113-.623.305-.812.305.01 0-.224-.054-.32-.102l-.034-.017-.033-.01c-.202-.068-.31-.154-.27-.114l-.492-.49zm-4.35 1.358c.13.118.237.277.39.357.114.06.246.06.365.102-.052.52-.09 1.027-.135 1.306l-.135-.13h-.203c-.322 0-.668.27-.775.537-.107.267-.114.522-.114.818v11.79h.946L22.54 4.946l.003-.01c.046-.186.088-.374.045-.613-.04-.227-.26-.48-.504-.58-.048-.022-.147.014-.217-.002l.168-1.1c.205-.04.42-.054.606-.136.157-.07.255-.225.39-.322.08.035.145.097.24.13.207.1.426.196.734.196.43 0 .714-.19 1-.346.118.094.21.215.36.295.093.05.22.054.323.096l-.542 1.433c-.072-.033-.11-.12-.18-.125-.07-.014-.123-.046-.205-.036a.73.73 0 0 0-.408.205c-.194.193-.27.41-.358.714l-2.6 8.588.012.104c.147 1.245.483 2.59 1.248 3.79-.255.34-.397.73-.3 1.15.067.382.38.563.642.792-.355.557-.545 1.34-.342 2.693h-.002l1.483 10.29.002.014c.05.25.133.466.302.635.17.168.416.233.578.233.048 0 .124-.027.195-.053l.293.944c-.095.06-.233.066-.315.135-.082.07-.12.157-.19.233a4.28 4.28 0 0 0-.484-.143c-.33-.082-.712-.17-1.057-.17a1.73 1.73 0 0 0-.862.206c-.085.048-.13.11-.198.164-.13-.107-.225-.252-.38-.334-.186-.1-.407-.12-.616-.172l-.07-1.05c.205.078.448.15.598.075.197-.1.38-.396.4-.606.02-.21-.012-.383-.053-.625l-.003-.01-2.457-12.444h-.865l-1.057 3.7v8.946c0 .195-.023.343.055.578.04.118.135.272.277.36a.73.73 0 0 0 .4.11c.065 0 .164-.045.255-.08l.136 1.06c-.153.063-.338.076-.47.165-.15.1-.234.244-.35.362-.184-.068-.372-.195-.538-.237-.33-.082-.738-.17-1.133-.17-.568 0-.998.22-1.41.43-.133-.15-.237-.338-.403-.45-.133-.092-.303-.102-.446-.167l.164-1.188c.082.032.136.118.226.118.17 0 .38-.085.5-.215a.78.78 0 0 0 .192-.377c.05-.224.042-.414.042-.61v-8.797c0-1.344-.077-2.23-.216-2.87-.107-.496-.287-.766-.463-1.037.236-.256.523-.474.523-.922 0-.41-.27-.67-.506-.943.407-.592.662-1.476.662-3.182v-9.19c0-.272.008-.443-.03-.644a.66.66 0 0 0-.173-.368.68.68 0 0 0-.452-.19c-.165 0-.227.055-.3.1l-.143-.865c.148-.04.303-.04.445-.102.163-.07.275-.234.418-.334.178.082.366.182.512.23l.03.01.03.006c.44.088.798.088 1.11.088.52 0 1.13-.16 1.664-.375zm-4.657 29.623c0 .115.066.206.095.312h-.035l-.047-.2-.012-.112zM4.396 0L4.11 1.43c-.048.238-.07.26-.31.308l-.366.073-.967 11.44v.008c-.077 1.376-.232 2.17-.403 2.656-.17.485-.334.667-.568.94l-.348.406.426.318c.162.122.268.39.268.535 0 .062-.126.31-.32.504l-.29.29.227.34c.133.203.248.405.333.85.085.443.127 1.123.05 2.186v.002l-.583 8.903H.332L0 34.576h.55c-.01 0 .113.027.22.11a.74.74 0 0 1 .242.328l.256.767.572-.57c.193-.195.558-.32.814-.32.123 0 .31.05.543.128.234.077.39.153.428.19l.57.573.256-.766c.094-.278.273-.36.462-.36h.5V31.23h-.97l.27-3.91v-.017c0-.15.042-.26.075-.305.033-.044.03-.053.125-.053h1.324c-.005 0 .043.008.12.1.073.09.14.24.164.346l.197 3.766h-.842l.11 3.42h.484c.12 0 .328.054.487.147.16.092.258.215.283.29l.256.768.572-.57c.038-.04.247-.154.502-.22s.557-.1.782-.1c.226 0 .51.065.908.145h.006c.126.04.254.075.357.11.12.04.206.104.166.064l.685.686.16-.958a.452.452 0 0 1 .166-.26c.09-.074.21-.102.198-.102h.584l-.545-3.52h-.914l-.65-8.685c-.074-1.88.274-2.94.396-3.143l.232-.387-.362-.27c-.194-.145-.343-.473-.343-.535 0-.01.07-.29.3-.428l.604-.36-.538-.452c-.26-.217-.332-.21-.485-.625-.152-.417-.312-1.264-.427-2.92v-.002L8.965 1.83l-.35-.088c-.14-.035-.24-.107-.357-.4l-.28-.705-.54.537c.022-.02-.157.093-.395.15a3.63 3.63 0 0 1-.807.092c-.233 0-.598-.008-.814-.062a3.913 3.913 0 0 1-.38-.108c-.08-.03-.06-.074.005.057L4.397 0zm3.32 2.086c.087.107.18.194.288.273l.848 10.964c.118 1.69.268 2.595.486 3.19.15.414.356.55.545.728-.2.265-.487.512-.487.793 0 .398.283.665.528.945-.294.62-.522 1.633-.45 3.436v.01l.7 9.314c0 .262.047.494.158.698.11.204.326.425.654.425.137 0 .212-.065.3-.12l.163 1.05c-.09.05-.203.043-.286.11-.087.073-.112.22-.185.316-.014-.005-.03-.02-.04-.023-.172-.057-.333-.098-.42-.127l-.028-.01-.03-.005c-.378-.076-.716-.166-1.11-.166-.32 0-.683.042-1.032.13-.18.048-.332.17-.5.25-.126-.134-.207-.322-.36-.41-.156-.092-.334-.097-.503-.145l-.03-.96c.07.028.077.108.165.108a.67.67 0 0 0 .488-.236.804.804 0 0 0 .162-.336 1.36 1.36 0 0 0-.01-.67l.016.095-.236-4.475-.008-.035a1.798 1.798 0 0 0-.375-.795c-.198-.24-.5-.465-.894-.465H4.912a1.18 1.18 0 0 0-.926.453c-.2.268-.275.588-.275.905L3.4 31.8v.018c0 .24.054.457.168.647.114.19.315.398.643.398.106 0 .124-.084.202-.117v1.072a1.39 1.39 0 0 0-.574.424c-.11-.043-.232-.14-.324-.172-.234-.078-.515-.18-.86-.18-.34 0-.66.225-.988.397-.098-.13-.162-.298-.28-.39-.09-.07-.208-.066-.304-.116l.11-1.11c.08.027.142.115.216.115.34 0 .593-.258.69-.45a1.09 1.09 0 0 0 .12-.517v.034l.624-9.498v-.002c.08-1.117.043-1.876-.067-2.444-.083-.436-.232-.684-.37-.93.198-.243.437-.464.437-.865 0-.31-.246-.583-.434-.867.203-.252.426-.505.6-1.002.218-.62.375-1.502.455-2.916v-.006l.932-11c.083-.06.14-.13.21-.21.026.012.053.056.08.066.17.066.34.107.495.146.406.102.823.092 1.056.092.353 0 .715-.042 1.04-.12.166-.04.295-.147.44-.21zM5.614 9.594a.693.693 0 0 0-.484.234.703.703 0 0 0-.146.34c-.034.19-.027.352-.027.547v-.027l-.234 4.218v.014c0 .495.04 1.003.115 1.445.05.306.157.533.26.772l-.067.09.044.043c-.154.25-.35.464-.35.843 0 .31.17.56.31.82a3.583 3.583 0 0 0-.464.973 11.88 11.88 0 0 0-.386 1.8l-.006.034v.033c0 .618.037 1.068.287 1.452.25.383.724.53 1.148.53.213 0 .42-.023.625-.105.206-.082.4-.24.522-.44.24-.395.25-.85.21-1.468a9.162 9.162 0 0 0-.31-1.824c-.106-.388-.224-.636-.342-.89.063-.092.133-.175.182-.29.082-.19.1-.44.06-.677-.012-.317-.185-.544-.33-.79l.043-.043-.06-.082c.026-.093.088-.187.105-.286.04-.215.06-.45.077-.69.03-.48.03-.978.03-1.25v-.008l-.157-4.215c-.002-.22-.02-.404-.065-.57a.86.86 0 0 0-.113-.266.555.555 0 0 0-.477-.266zm.006 10.383c.03.09.048.106.075.207.13.467.24 1.04.276 1.62v.003c.037.548-.033.833-.064.884-.015.027-.004.018-.037.03a.77.77 0 0 1-.257.034c-.276 0-.27-.012-.312-.076-.04-.062-.113-.36-.118-.875a11.05 11.05 0 0 1 .345-1.608c.037-.122.05-.112.092-.218zm-.597 11.92l-.048.212-.045.095c.032-.102.093-.19.093-.31z" fill="#a7865d"/></svg>