<svg xmlns="http://www.w3.org/2000/svg" width="8.832" height="10.224" viewBox="0 0 8.832 10.224"><path d="M5.303 5.1c-.675-.98-.946-1.67-2.06-3.414-.55-.79-1.31-1.186-2.1-.635-.79.552-.66 1.32-.11 2.11L3.51 6.48" fill-rule="evenodd" clip-rule="evenodd"/><path d="M3.46 6.427c.337.58.077-.154 1.42 1.952.553.79 1.95 2.07 2.532 1.66.63-.445.466-1.64-.085-2.43L5.304 5.1" fill-rule="evenodd" clip-rule="evenodd"/><path d="M8.71.166c-.92-.712-2.256 1.07-2.736 1.65-.616.74-2.512 2.7-2.512 2.7l-.145.622c-.746.828-1.36 1.285-2.73 2.73-.63.728-.815 1.574-.247 2.055.572.483 1.28.392 1.913-.334l.8-.768c.334-.438 1.016-1.126 1.922-2.063l.2-.31-.01-.006C6.063 4.956 9.52.794 8.71.166" fill-rule="evenodd" clip-rule="evenodd"/></svg>