<svg width="26.99" height="32" viewBox="0 0 27.0023 32.019444"><path d="M0 .033V32.02h27.002V.033h-1.008v30.98H1.008v-11.03h4.986v3.035h-.992v1h8.996v-1h-1.006V10.023h1.004v-1H4.998v1h.996v8.96H1.008V.032H0zm6.994 9.99h4.998v12.995H6.994V10.023zm12.508 4.008a4.5 4.5 0 0 0-4.492 4.493 4.5 4.5 0 0 0 4.492 4.493 4.5 4.5 0 0 0 4.492-4.493 4.5 4.5 0 0 0-4.492-4.492zm0 .857a3.63 3.63 0 0 1 3.637 3.636 3.632 3.632 0 0 1-3.638 3.64 3.633 3.633 0 0 1-3.64-3.64 3.632 3.632 0 0 1 3.64-3.636zm.004 2.13c-.82 0-1.494.675-1.494 1.495 0 .82.675 1.496 1.494 1.496.82 0 1.494-.677 1.494-1.496 0-.82-.675-1.494-1.494-1.494zm0 1c.28 0 .494.216.494.495 0 .28-.215.496-.494.496a.488.488 0 0 1-.494-.496c0-.28.215-.494.494-.494z"/></svg>