<svg width="26.99" height="32" viewBox="0 0 27.0023 32.019444"><path d="M19.795 0l-.86.512L23.94 8.93l-4.922 22.082h-2.004l-.994-17.045a2.51 2.51 0 0 0 1.984-2.446v-2c0-1.374-1.125-2.5-2.5-2.5h-.61l2.626-7h-1l-2.625 7h-.75l-2.625-7h-1l2.625 7h-.64a2.507 2.507 0 0 0-2.5 2.5v2a2.51 2.51 0 0 0 1.983 2.447l-.953 17.045H7.996L3.066 8.59 7.25.463l-.89-.46L2.01 8.452l4.96 22.562H1.007V.032H0V32.02h27.002V.033h-1.008v30.98H20.04L25 8.76 19.795 0zm-8.293 8.02h4c.835 0 1.5.666 1.5 1.5v2c0 .835-.665 1.5-1.5 1.5h-4c-.835 0-1.5-.665-1.5-1.5v-2c0-.834.665-1.5 1.5-1.5zm.453 6.03h3.094l.985 16.962h-5.027l.947-16.96z"/></svg>