<svg width="26.99" height="32" viewBox="0 0 27.0023 32.019444"><path d="M0 .033V32.02h27.002V1.7l.053-.065-.053-.04V.032h-1.008V1.34c-.32.406-1.523 1.896-3.566 3.61-2.34 1.96-5.506 3.882-8.772 3.882-3.265 0-6.433-1.92-8.773-3.883S1.055 1.03 1.055 1.03l-.047.034V.034H0zM1.008 2.53c.68.782 1.766 1.955 3.232 3.185 2.027 1.7 4.686 3.41 7.63 3.937-1.67.66-2.86 2.28-2.86 4.18 0 .322.037.634.1.938a7.486 7.486 0 0 0-3.1 6.062c0 4.136 3.364 7.5 7.5 7.5s7.5-3.364 7.5-7.5a7.486 7.486 0 0 0-3.102-6.062c.065-.304.102-.616.102-.938a4.51 4.51 0 0 0-2.746-4.145c3.014-.487 5.738-2.238 7.806-3.972a29.637 29.637 0 0 0 2.924-2.828v28.125H1.008V2.53zM13.51 10.33c1.94 0 3.5 1.56 3.5 3.5 0 .12-.023.236-.035.354a7.45 7.45 0 0 0-6.93 0c-.012-.118-.035-.233-.035-.354 0-1.94 1.56-3.5 3.5-3.5zm0 4c1.177 0 2.277.315 3.228.86a3.493 3.493 0 0 1-3.228 2.14c-1.457 0-2.7-.88-3.23-2.14a6.476 6.476 0 0 1 3.23-.86zm-4.053 1.42c.724 1.52 2.262 2.58 4.053 2.58 1.79 0 3.33-1.06 4.053-2.58a6.48 6.48 0 0 1 2.447 5.08c0 3.596-2.904 6.5-6.5 6.5a6.492 6.492 0 0 1-6.5-6.5c0-2.06.956-3.89 2.447-5.08z"/></svg>