<svg width="32" height="27.29" viewBox="0 0 35.000002 29.849654"><path d="M26.006 0L11.63 21.777l-6.835.016c-1.124.002-2.164.35-2.934 1.012-.77.66-1.25 1.645-1.25 2.8a4.19 4.19 0 0 0 4.187 4.188h10.625c1.167 0 2.177-.528 2.932-1.295 2.77-3.02 5.497-6.41 8.185-9.607l.058 10.954.496.002 2.43.004 2.61-17.612.007-.01.03-.113s1.136-4.422-1.12-7.853c-1.09-1.654-2.222-2.66-3.093-3.25-.61-.415-.822-.454-1.068-.547l.014-.053zm.346 1.293c.116.037.39.105 1.043.547.77.522 1.803 1.428 2.818 2.97 1.914 2.91 1.025 6.833.992 6.977-4.497 5.243-8.84 10.67-13.36 15.87a3.15 3.15 0 0 1-2.423 1.136H4.797a3.17 3.17 0 0 1-3.188-3.188c0-.887.34-1.557.904-2.04.563-.484 1.366-.77 2.285-.772l7.368-.018zM4.998 6.187l-.922.387 3.832 9.137.922-.386zm7.26 1.692l-.79 5.946.993.13.79-5.946zm18.62 5.85l-2.214 15.09-1.072-.002-.06-11.107zM.6 13.753l-.598.8 4.81 3.59.596-.8z" fill="#a7865d"/></svg>