<svg width="32" height="17.48" viewBox="0 0 35.003976 19.117764"><path d="M32.576.003c-2.002.01-4.147-.02-6.115.013-2.5 0-4.747 1.7-6.05 4.346a1.488 1.488 0 0 0-.88-.295h-4.055c-.34 0-.65.12-.903.312-1.306-2.622-3.542-4.3-6.03-4.3C6.576.045 4.43.074 2.43.064h-.004C1.094.065 0 1.142 0 2.467v14.237c0 1.325 1.093 2.4 2.424 2.4 2.044 0 4.12-.025 6.11.014h.008c2.51-.003 4.764-1.715 6.064-4.38.247.176.543.288.868.288h4.054c.333 0 .638-.12.888-.305 1.304 2.64 3.547 4.332 6.043 4.335h.011c1.99-.04 4.066-.013 6.11-.013 1.33 0 2.424-1.076 2.424-2.4V2.404c0-1.325-1.093-2.402-2.424-2.402h-.004zm.004 1.005c.798 0 1.418.62 1.418 1.397V16.64c0 .78-.62 1.396-1.418 1.396-2.032 0-4.112-.026-6.12.013-2.23 0-4.334-1.666-5.446-4.448v-8.14c1.113-2.778 3.22-4.438 5.447-4.438H26.47c1.946-.033 4.092-.01 6.11-.016zM2.424 1.07c2.017.007 4.164-.016 6.11.017h.008c2.228 0 4.334 1.66 5.447 4.437v8.14c-1.112 2.782-3.217 4.448-5.447 4.448-2.007-.04-4.087-.014-6.12-.014-.797 0-1.417-.616-1.417-1.394V2.467c0-.778.62-1.396 1.418-1.396zm25.414 2.626l-4.34 2.48.496.868 4.34-2.48-.496-.868zm-20.672.062l-.496.868 4.34 2.48.496-.867-4.34-2.482zm8.31 1.264h4.053c.223 0 .395.13.478.315v8.417a.515.515 0 0 1-.48.315h-4.053a.513.513 0 0 1-.48-.316V5.337a.513.513 0 0 1 .48-.315zm8.518 4.008v1h5v-1h-5zM6.01 9.092v1h5v-1h-5zm17.988 2.94l-.496.87 4.34 2.48.496-.87-4.34-2.48zm-12.992.062l-4.34 2.48.496.87 4.34-2.48-.496-.87z"/></svg>