<svg xmlns="http://www.w3.org/2000/svg" width="28" height="31.999" viewBox="0 0 28 31.999"><path fill-rule="evenodd" clip-rule="evenodd" d="M27 0v31H1V0H0v32h28V0"/><path d="M14 6a7 7 0 1 1 0 14 7 7 0 0 1 0-14zm0 1a6 6 0 1 1 0 12 6 6 0 0 1 0-12z" fill-rule="evenodd" clip-rule="evenodd"/><path d="M14 8a5 5 0 1 1 0 10 5 5 0 0 1 0-10zm0 .714a4.285 4.285 0 1 1 0 8.57 4.285 4.285 0 0 1 0-8.57zM9.472 17.997l-3.468 4.786 3.843-.48.588 2.695 2.56-5.067m-.42-.686l-1.88 3.69.13-1.64-3.06.49 2.624-3.772M18.528 17.997l3.468 4.786-3.843-.48-.588 2.695-2.56-5.067m2.606-1.917l2.624 3.773-3.06-.49.13 1.638-1.88-3.69" fill-rule="evenodd" clip-rule="evenodd"/></svg>