<svg xmlns="http://www.w3.org/2000/svg" width="28.66" height="32" viewBox="0 -6.052 97.395 108.75"><path d="M12.5 0h72.394c6.875 0 12.5 5.09 12.5 12.5v72.395c0 7.41-5.625 12.5-12.5 12.5H12.5c-6.876 0-12.5-5.09-12.5-12.5V12.5C0 5.09 5.624 0 12.5 0zM70.95 10.82a4.397 4.397 0 0 0-4.383 4.387v10.495a4.397 4.397 0 0 0 4.383 4.385h11.01a4.398 4.398 0 0 0 4.384-4.385V15.206a4.398 4.398 0 0 0-4.385-4.386h-11.01zm15.44 30.368h-8.573a28.453 28.453 0 0 1 1.25 8.355c0 16.2-13.556 29.332-30.274 29.332S18.52 65.743 18.52 49.543c0-2.904.438-5.708 1.25-8.355h-8.945V82.33a3.884 3.884 0 0 0 3.872 3.872h67.822a3.883 3.883 0 0 0 3.872-3.872V41.188h-.003zm-37.6-11.655c-10.802 0-19.56 8.484-19.56 18.952 0 10.47 8.758 18.953 19.56 18.953s19.563-8.484 19.563-18.953c0-10.467-8.757-18.952-19.56-18.952z"/></svg>