<svg xmlns="http://www.w3.org/2000/svg" width="28" height="32" viewBox="0 0 28 32"><path d="M0 0v32h28V0m-1 0v31H1V0" fill-rule="evenodd" clip-rule="evenodd"/><path d="M6 8h16a2 2 0 0 1 2 2v10a2 2 0 0 1-2 2H6a2 2 0 0 1-2-2V10a2 2 0 0 1 2-2zm.8 1h14.4c.994 0 1.8.768 1.8 1.714v8.57c0 .948-.806 1.716-1.8 1.716H6.8c-.994 0-1.8-.768-1.8-1.714v-8.57C5 9.767 5.806 9 6.8 9z" fill-rule="evenodd" clip-rule="evenodd"/><path d="M6 18h6v2H6v-2zM4.5 10h19a.5.5 0 0 1 .5.5v2a.5.5 0 0 1-.5.5h-19a.5.5 0 0 1-.5-.5v-2a.5.5 0 0 1 .5-.5z" fill-rule="evenodd" clip-rule="evenodd"/></svg>