<svg xmlns="http://www.w3.org/2000/svg" viewBox="0 0 90 90" width="32" height="32"><path d="M83.3 62.8c-5.2-4.2-9.2-6.1-12.7-6.1-4.2 0-7 2.8-9.9 5.8l-1 1c-.4.4-.9.6-1.5.6-2.4 0-7.7-2.3-18.8-13.5C24 35.2 25.6 31.1 26.5 30.2l.9-.9c5.4-5.3 10-9.8-.3-22.6C23.6 2.2 20 0 16.4 0c-4.9 0-8.7 3.9-12 7.4-.5.6-1.1 1.2-1.6 1.7-3.7 3.7-3.7 11.9 0 21.8C6.9 41.8 15 53.7 25.7 64.3c19 19 37 25.7 46.6 25.7 3.8 0 6.7-1 8.5-2.8.5-.5 1.1-1.1 1.7-1.6 3.6-3.4 7.6-7.3 7.4-12.3-.1-3.6-2.2-7-6.6-10.5zm-2.8 20.6c-.6.6-1.2 1.1-1.8 1.7-1.2 1.3-3.5 1.9-6.4 1.9-9.1 0-26.2-6.5-44.5-24.8C17.5 51.8 9.6 40.3 5.6 29.8 2.4 21.3 2.2 14 4.9 11.3c.6-.6 1.1-1.1 1.7-1.8 2.9-3 6.2-6.5 9.8-6.5 2.6 0 5.5 1.9 8.4 5.5 8.6 10.7 5.5 13.6.5 18.6l-1 1c-4 4 .1 11.8 12.9 24.7 9.7 9.7 16.5 14.4 21 14.4 1.5 0 2.7-.5 3.7-1.5l1-1c2.7-2.7 4.8-4.9 7.8-4.9 2.7 0 6.2 1.8 10.8 5.4 3.6 2.9 5.4 5.6 5.5 8.2.1 3.7-3.4 7-6.5 10z"/></svg>