<svg width="21.992" height="23.684" viewBox="0 0 21.992187 23.683594"><path d="M10.98 0A5.788 5.788 0 0 0 5.2 5.78a5.783 5.783 0 0 0 3.27 5.2C3.613 12.095 0 16.336 0 21.437v2.247h21.992v-2.246c0-5.11-3.623-9.356-8.488-10.463a5.782 5.782 0 0 0 3.258-5.194A5.788 5.788 0 0 0 10.98 0zm0 .89a4.886 4.886 0 0 1 4.893 4.89 4.886 4.886 0 0 1-4.893 4.894A4.886 4.886 0 0 1 6.088 5.78 4.886 4.886 0 0 1 10.98.89zm.016 10.83c5.534 0 9.96 4.33 9.96 9.717v1.21H1.037v-1.21c0-5.386 4.427-9.718 9.96-9.718z"/></svg>