<svg xmlns="http://www.w3.org/2000/svg" xmlns:xlink="http://www.w3.org/1999/xlink" width="22.012" height="20" viewBox="0 0 22.012 20"><defs><path id="bca" d="M22.012 20h-10V0h10v20zm-20-20h10v10h-10V0z"/></defs><clipPath id="bcb"><use xlink:href="#bca" overflow="visible"/></clipPath><path d="M12.512 0c5.247 0 9.5 4.253 9.5 9.5s-4.253 9.5-9.5 9.5-9.5-4.253-9.5-9.5S7.265 0 12.512 0zm0 1a8.5 8.5 0 1 1 0 17 8.5 8.5 0 0 1 0-17z" clip-path="url(#bcb)" fill-rule="evenodd" clip-rule="evenodd"/><path clip-path="url(#bcb)" fill-rule="evenodd" clip-rule="evenodd" fill="none" d="M2.012 0h20v20h-20z"/><path d="M0 6.712l.775-.388 2.578 5.12-.075 1.712L0 6.712zm7.635.317l-.8-.49-3.482 4.903-.075 1.713L7.635 7.03z" fill-rule="evenodd" clip-rule="evenodd"/></svg>