<svg width="21.779" height="25.664" viewBox="0 0 21.77926 25.664025"><path d="M9.594 0C4.3 0 0 4.303 0 9.596s4.3 9.593 9.594 9.593c1.8 0 3.478-.506 4.918-1.37l.748.944a1.504 1.504 0 0 0 .15 1.593l3.69 4.733a1.508 1.508 0 0 0 2.105.26 1.508 1.508 0 0 0 .26-2.106l-3.69-4.73a1.503 1.503 0 0 0-1.46-.545l-.715-.904a9.573 9.573 0 0 0 3.588-7.47c0-5.293-4.3-9.596-9.594-9.596zm0 1a8.587 8.587 0 0 1 8.594 8.596 8.586 8.586 0 0 1-8.594 8.593A8.586 8.586 0 0 1 1 9.595 8.587 8.587 0 0 1 9.594 1zm5.672 16.502l.466.59-.21.144-.47-.59.214-.144zm1.388 1.432a.5.5 0 0 1 .332.195l3.69 4.73a.488.488 0 0 1-.086.7.49.49 0 0 1-.703-.085l-3.69-4.733a.488.488 0 0 1 .088-.7.498.498 0 0 1 .37-.108z" fill="#a7865d"/></svg>