<svg xmlns="http://www.w3.org/2000/svg" width="28" height="32" viewBox="0 0 28 32"><path fill-rule="evenodd" clip-rule="evenodd" d="M27 0v31H1V0H0v32h28V0"/><path d="M8 19a3 3 0 1 1 0 6 3 3 0 0 1 0-6zm0 1a2 2 0 1 1 0 4 2 2 0 0 1 0-4zM20.792 13a3 3 0 1 1 0 6 3 3 0 0 1 0-6zm0 1a2 2 0 1 1 0 4 2 2 0 0 1 0-4zM10 7a3 3 0 1 1 0 6 3 3 0 0 1 0-6zm0 1a2 2 0 1 1 0 4 2 2 0 0 1 0-4z" fill-rule="evenodd" clip-rule="evenodd"/><path d="M10.148 20.75l8.324-3.424.38.925-8.324 3.424-.38-.925zM12.644 10.416l6.182 3.284-.47.883-6.18-3.284.468-.884z" fill-rule="evenodd" clip-rule="evenodd"/></svg>