<svg width="22.23" height="32" viewBox="0 0 23.464843 33.779298"><path d="M11.857 0c-1.737 0-3.295.93-4.39 2.38-1.096 1.45-1.754 3.424-1.754 5.6v4.07c-.58-.573-1.026-1.218-1.258-1.92l-.19-.58-.544.28a9.524 9.524 0 0 0-3.466 3.043l-.254.37.324.306c1.718 1.618 2.874 4.818 2.875 8.304-.004 3.126-.93 6.05-2.393 7.785l-.286.335.287.336c1.8 2.118 4.59 3.47 7.726 3.47h6.246c3.346 0 6.3-1.534 8.075-3.903l.237-.314-.238-.315c-1.346-1.763-2.178-4.555-2.18-7.52 0-3.23.99-6.237 2.527-7.947l.265-.292-.21-.332c-.81-1.275-1.947-2.333-3.29-3.107l-.53-.306-.216.57c-.248.647-.676 1.24-1.22 1.77V7.98c0-2.176-.658-4.15-1.754-5.6C15.15.93 13.596 0 11.856 0zm0 .916c1.413 0 2.7.748 3.66 2.018.958 1.27 1.567 3.056 1.567 5.046v4.844c-1.37.932-3.204 1.522-5.215 1.524-2.03-.002-3.87-.602-5.24-1.545V7.98c0-1.99.61-3.777 1.57-5.046.96-1.27 2.245-2.018 3.657-2.018zM3.8 11.03c1.232 2.625 4.415 4.355 8.067 4.36h.002c3.52-.004 6.61-1.614 7.94-4.097.937.613 1.764 1.35 2.372 2.24-1.593 2.004-2.548 4.962-2.55 8.196.003 2.958.812 5.7 2.175 7.7-1.59 1.974-4.106 3.308-7.028 3.308H8.532a9.024 9.024 0 0 1-6.68-2.91c1.49-2.005 2.384-4.86 2.387-7.974 0-3.493-1.063-6.696-2.883-8.665A8.432 8.432 0 0 1 3.8 11.03zm7.24 10.753v2h2v-2h-2z"/></svg>