<svg xmlns="http://www.w3.org/2000/svg" width="32" height="28.42" viewBox="0 34.679 548.357 487"><path d="M545.45 400.298c-.664-1.432-1.282-2.618-1.857-3.57-9.515-17.135-27.695-38.166-54.532-63.102l-.566-.57-.283-.28-.286-.286h-.288c-12.18-11.61-19.894-19.42-23.123-23.416-5.91-7.613-7.234-15.32-4.004-23.13 2.28-5.9 10.853-18.36 25.694-37.397 7.808-10.09 13.99-18.175 18.557-24.267 32.932-43.78 47.21-71.756 42.83-83.94l-1.702-2.846c-1.144-1.714-4.093-3.282-8.846-4.712-4.765-1.427-10.854-1.663-18.278-.712l-82.225.568c-1.333-.472-3.234-.428-5.713.144-2.475.572-3.713.86-3.713.86l-1.43.714-1.137.86c-.952.567-2 1.566-3.143 2.994-1.137 1.423-2.088 3.093-2.848 4.996-8.952 23.03-19.13 44.444-30.553 64.238-7.043 11.803-13.512 22.032-19.418 30.693-5.9 8.658-10.85 15.037-14.843 19.126-4 4.093-7.61 7.372-10.852 9.85-3.237 2.477-5.708 3.524-7.42 3.14a209.21 209.21 0 0 1-4.858-1.142c-2.663-1.713-4.805-4.044-6.42-6.994-1.622-2.95-2.714-6.663-3.285-11.136-.567-4.476-.903-8.326-1-11.563-.09-3.233-.048-7.806.146-13.706.198-5.902.287-9.896.287-11.99 0-7.234.14-15.085.424-23.555.288-8.47.52-15.18.716-20.125.194-4.95.284-10.185.284-15.705s-.336-9.85-1-12.99a44.442 44.442 0 0 0-2.99-9.138c-1.335-2.95-3.29-5.232-5.853-6.852-2.568-1.618-5.763-2.902-9.563-3.856-10.09-2.284-22.936-3.52-38.547-3.71-35.4-.38-58.147 1.905-68.235 6.854-3.997 2.09-7.614 4.948-10.85 8.562-3.426 4.19-3.904 6.475-1.43 6.85 11.422 1.712 19.508 5.805 24.267 12.276l1.715 3.43c1.334 2.473 2.666 6.853 4 13.133 1.33 6.28 2.19 13.227 2.567 20.837.95 13.897.95 25.793 0 35.69-.953 9.9-1.853 17.606-2.712 23.126s-2.144 9.993-3.855 13.418c-1.715 3.426-2.855 5.52-3.428 6.28-.572.76-1.048 1.24-1.426 1.427a21.387 21.387 0 0 1-7.71 1.43c-2.667 0-5.9-1.333-9.707-4-3.805-2.665-7.754-6.327-11.847-10.99-4.094-4.666-8.71-11.185-13.85-19.56-5.138-8.373-10.468-18.27-15.988-29.69l-4.566-8.282c-2.855-5.327-6.755-13.085-11.704-23.266-4.952-10.185-9.33-20.037-13.134-29.554-1.52-3.997-3.807-7.04-6.852-9.134l-1.43-.86c-.95-.76-2.474-1.566-4.566-2.426a30.293 30.293 0 0 0-6.566-1.854l-78.23.568c-7.993 0-13.417 1.81-16.272 5.428l-1.144 1.71c-.57.954-.858 2.476-.858 4.57 0 2.095.57 4.665 1.714 7.708 11.42 26.84 23.84 52.725 37.257 77.66s25.08 45.018 34.974 60.237c9.897 15.23 19.985 29.602 30.265 43.11 10.277 13.517 17.082 22.177 20.41 25.98 3.334 3.814 5.95 6.663 7.855 8.566l7.14 6.85c4.567 4.57 11.275 10.042 20.127 16.417 8.853 6.38 18.653 12.66 29.407 18.85 10.755 6.182 23.27 11.227 37.545 15.127 14.275 3.904 28.17 5.473 41.685 4.717h32.834c6.658-.576 11.704-2.67 15.133-6.283l1.136-1.43c.764-1.138 1.48-2.9 2.14-5.276.667-2.38 1-5 1-7.852-.195-8.184.428-15.56 1.852-22.124 1.423-6.563 3.045-11.513 4.858-14.847 1.813-3.33 3.86-6.138 6.137-8.417 2.28-2.282 3.908-3.666 4.86-4.142.95-.478 1.706-.803 2.277-.998 4.568-1.52 9.944-.048 16.136 4.43 6.188 4.473 11.99 9.996 17.418 16.56 5.427 6.57 11.944 13.94 19.557 22.124 7.616 8.186 14.276 14.27 19.984 18.273l5.71 3.425c3.812 2.287 8.76 4.38 14.853 6.283 6.08 1.902 11.41 2.38 15.983 1.428l73.087-1.14c7.23 0 12.854-1.198 16.845-3.573 3.998-2.38 6.373-5 7.14-7.85.763-2.855.804-6.093.145-9.713-.682-3.61-1.348-6.135-2.013-7.562z"/></svg>