<svg width="27.0023" height="32.019444" viewBox="0 0 27.0023 32.019444">
	<path d="m 0,0.03320312 0,31.98632788 27.001953,0 0,-31.98632788 -1.007812,0 0,30.97851588 -24.9863285,0 0,-30.97851588 z M 13.533203,6.9257812 c -1.948524,0 -3.523437,1.6138727 -3.523437,3.5859378 l 0,1.583984 C 9.818128,11.85683 9.6640352,11.602326 9.5761719,11.333984 L 9.3925781,10.773438 8.8710938,11.046875 C 8.0404276,11.480453 7.3427657,12.10322 6.8320312,12.849609 l -0.2402343,0.351563 0.3085937,0.292969 c 0.9108333,0.865229 1.5637845,2.646526 1.5644532,4.59375 -0.00164,1.746545 -0.5239867,3.378922 -1.3085938,4.316406 l -0.2695312,0.322265 0.2714843,0.320313 c 1.0587478,1.255583 2.6968533,2.052734 4.5332029,2.052734 l 3.53711,0 c 1.959293,0 3.695495,-0.905456 4.740234,-2.310547 l 0.222656,-0.300781 -0.226562,-0.298828 c -0.724912,-0.95715 -1.191918,-2.516131 -1.19336,-4.171875 8.67e-4,-1.804023 0.559407,-3.48056 1.38086,-4.402344 l 0.25,-0.28125 -0.201172,-0.316406 c -0.47607,-0.757929 -1.143957,-1.386365 -1.931641,-1.84375 l -0.509765,-0.294922 -0.208985,0.550782 c -0.105239,0.277757 -0.277858,0.540295 -0.49414,0.783203 l 0,-1.701172 c 0,-1.9720651 -1.574914,-3.5859377 -3.523438,-3.5859378 z m 0,0.9804688 c 1.41222,0 2.542969,1.148245 2.542969,2.605469 l 0,2.470703 c -0.01111,0.0065 -0.02397,0.01118 -0.03516,0.01758 -0.687153,0.371101 -1.538095,0.600817 -2.460938,0.601562 -0.983342,-9.03e-4 -1.883633,-0.258693 -2.589844,-0.671874 l 0,-2.417969 c 0,-1.457224 1.130749,-2.605469 2.542973,-2.605471 z M 8.9726562,12.25 c 0.439075,0.613986 0.8646796,1.081641 1.2617188,1.513672 0.92748,0.596909 2.085807,0.913883 3.28125,0.916016 1.212549,-0.0018 2.384714,-0.326913 3.318359,-0.939454 0.460735,-0.36214 0.934123,-0.950572 1.285157,-1.367187 0.40195,0.291489 0.773755,0.611699 1.052734,1.001953 -0.873719,1.189731 -1.399521,2.832013 -1.400391,4.642578 0.0014,1.653769 0.448556,3.173565 1.189454,4.345703 -0.86468,1.028743 -2.182827,1.736328 -3.732422,1.736328 l -3.53711,0 c -1.431813,0 -2.6601246,-0.613942 -3.5273435,-1.513671 0.8088889,-1.182861 1.2991543,-2.760485 1.3007813,-4.496094 l 0,-0.002 C 9.4641762,16.14398 8.8611507,14.411918 7.8691406,13.226562 8.1697525,12.840978 8.5542342,12.52792 8.9726562,12.25 Z m 4.0253908,5.775391 0,0.984375 1.007812,0 0,-0.984375 z"/>
</svg>