<svg xmlns="http://www.w3.org/2000/svg" xmlns:xlink="http://www.w3.org/1999/xlink" preserveAspectRatio="xMidYMid" width="43" height="30" viewBox="0 0 43 30">
  <defs>
    <style>

      .cls-2 {
        fill: #ffffff;
      }
    </style>
  </defs>
  <path d="M-0.000,30.000 C-0.000,30.000 -0.000,28.000 -0.000,28.000 C-0.000,28.000 43.000,28.000 43.000,28.000 C43.000,28.000 43.000,30.000 43.000,30.000 C43.000,30.000 -0.000,30.000 -0.000,30.000 ZM3.000,24.000 C3.000,24.000 39.000,24.000 39.000,24.000 C39.000,24.000 39.000,26.000 39.000,26.000 C39.000,26.000 3.000,26.000 3.000,26.000 C3.000,26.000 3.000,24.000 3.000,24.000 ZM8.000,22.000 C8.000,22.000 8.000,6.000 8.000,6.000 C8.000,6.000 5.000,6.000 5.000,6.000 C5.000,6.000 5.000,4.000 5.000,4.000 C5.000,4.000 8.000,4.000 8.000,4.000 C8.000,4.000 12.000,4.000 12.000,4.000 C12.000,4.000 19.000,4.000 19.000,4.000 C19.000,4.000 23.000,4.000 23.000,4.000 C23.000,4.000 30.000,4.000 30.000,4.000 C30.000,4.000 34.000,4.000 34.000,4.000 C34.000,4.000 37.000,4.000 37.000,4.000 C37.000,4.000 37.000,6.000 37.000,6.000 C37.000,6.000 34.000,6.000 34.000,6.000 C34.000,6.000 34.000,22.000 34.000,22.000 C34.000,22.000 30.000,22.000 30.000,22.000 C30.000,22.000 30.000,6.000 30.000,6.000 C30.000,6.000 23.000,6.000 23.000,6.000 C23.000,6.000 23.000,22.000 23.000,22.000 C23.000,22.000 19.000,22.000 19.000,22.000 C19.000,22.000 19.000,6.000 19.000,6.000 C19.000,6.000 12.000,6.000 12.000,6.000 C12.000,6.000 12.000,22.000 12.000,22.000 C12.000,22.000 8.000,22.000 8.000,22.000 ZM3.000,-0.000 C3.000,-0.000 39.000,-0.000 39.000,-0.000 C39.000,-0.000 39.000,2.000 39.000,2.000 C39.000,2.000 3.000,2.000 3.000,2.000 C3.000,2.000 3.000,-0.000 3.000,-0.000 Z" id="path-1" class="cls-2" fill-rule="evenodd"/>
</svg>
