<svg xmlns="http://www.w3.org/2000/svg" xmlns:xlink="http://www.w3.org/1999/xlink" preserveAspectRatio="xMidYMid" width="19" height="14" viewBox="0 0 19 14">
  <path d="M18.036,6.703 C18.036,6.703 11.672,13.067 11.672,13.067 C11.672,13.067 10.964,12.360 10.964,12.360 C10.964,12.360 16.293,7.031 16.293,7.031 C16.293,7.031 -0.000,7.031 -0.000,7.031 C-0.000,7.031 -0.000,6.031 -0.000,6.031 C-0.000,6.031 16.293,6.031 16.293,6.031 C16.293,6.031 10.964,0.703 10.964,0.703 C10.964,0.703 11.672,-0.004 11.672,-0.004 C11.672,-0.004 18.036,6.360 18.036,6.360 C18.036,6.360 17.864,6.531 17.864,6.531 C17.864,6.531 18.036,6.703 18.036,6.703 Z"/>
</svg>
