<svg width="29.539928" height="25.353815" viewBox="0 0 29.53993 26">
	<path d="M 13.892578 0 L 13.810547 0.029296875 C 6.0569012 0.5734527 0.0031503271 6.0257933 0 12.666016 C -0.00025200273 19.717881 6.7910101 25.35369 15.0625 25.353516 C 21.720751 25.349416 27.617966 21.672677 29.507812 16.232422 L 29.53125 16.164062 L 29.533203 16.09375 C 29.536103 16.07563 29.539062 16.083096 29.539062 16.041016 C 29.539062 15.504988 29.471162 14.462424 28.705078 13.447266 C 27.938991 12.432107 26.506662 11.476332 23.929688 10.960938 C 22.686658 10.712331 21.788831 10.499177 21.138672 10.234375 C 20.488422 9.9695667 20.089205 9.6742819 19.738281 9.1933594 C 19.036434 8.2315144 18.580432 6.3967457 17.578125 2.8886719 C 17.347919 2.0829493 17.025653 1.4616528 16.453125 1.015625 C 15.880597 0.56959721 15.1266 0.31149178 14.033203 0.03515625 L 13.892578 0 z M 13.875 0.99023438 C 14.85931 1.2449545 15.497357 1.4794616 15.867188 1.7675781 C 16.251131 2.0666901 16.456067 2.4360792 16.660156 3.1503906 C 17.657849 6.6423164 18.060266 8.5115529 18.966797 9.7539062 C 19.420063 10.375083 20.013814 10.807369 20.779297 11.119141 C 21.54478 11.430913 22.485217 11.643137 23.742188 11.894531 C 26.165207 12.379136 27.346143 13.2301 27.943359 14.021484 C 28.524913 14.792114 28.565729 15.521336 28.568359 15.988281 C 26.808956 20.930574 21.337914 24.396518 15.0625 24.400391 C 7.2225843 24.400556 0.952895 19.102095 0.953125 12.666016 C 0.95599839 6.6095115 6.5326562 1.5079146 13.875 0.99023438 z M 10.75 3.6035156 C 9.6513528 3.6035156 8.75 4.5048683 8.75 5.6035156 C 8.75 6.7021629 9.6513528 7.6035156 10.75 7.6035156 C 11.848647 7.6035156 12.75 6.7021629 12.75 5.6035156 C 12.75 4.5048683 11.848647 3.6035156 10.75 3.6035156 z M 10.75 4.6035156 C 11.308207 4.6035156 11.75 5.0453084 11.75 5.6035156 C 11.75 6.1617228 11.308207 6.6035156 10.75 6.6035156 C 10.191793 6.6035156 9.75 6.1617228 9.75 5.6035156 C 9.75 5.0453084 10.191793 4.6035156 10.75 4.6035156 z M 5.875 7.8535156 C 4.7763529 7.8535156 3.875 8.7548684 3.875 9.8535156 C 3.875 10.952163 4.7763529 11.853516 5.875 11.853516 C 6.9736471 11.853516 7.875 10.952163 7.875 9.8535156 C 7.875 8.7548684 6.9736471 7.8535156 5.875 7.8535156 z M 5.875 8.8535156 C 6.4332071 8.8535156 6.875 9.2953085 6.875 9.8535156 C 6.875 10.411723 6.4332071 10.853516 5.875 10.853516 C 5.3167929 10.853516 4.875 10.411723 4.875 9.8535156 C 4.875 9.2953085 5.3167929 8.8535156 5.875 8.8535156 z M 22.3125 14.041016 C 20.430462 14.041016 18.8125 15.33604 18.8125 17.041016 C 18.8125 18.745992 20.430462 20.041016 22.3125 20.041016 C 24.194538 20.041016 25.8125 18.745992 25.8125 17.041016 C 25.8125 15.33604 24.194538 14.041016 22.3125 14.041016 z M 5.5136719 14.091797 C 4.4150246 14.091797 3.5136719 14.99315 3.5136719 16.091797 C 3.5136719 17.190444 4.4150246 18.091797 5.5136719 18.091797 C 6.6123191 18.091797 7.5136719 17.190444 7.5136719 16.091797 C 7.5136719 14.99315 6.6123191 14.091797 5.5136719 14.091797 z M 22.3125 15.041016 C 23.744171 15.041016 24.8125 15.984568 24.8125 17.041016 C 24.8125 18.097464 23.744171 19.041016 22.3125 19.041016 C 20.880829 19.041016 19.8125 18.097464 19.8125 17.041016 C 19.8125 15.984568 20.880829 15.041016 22.3125 15.041016 z M 5.5136719 15.091797 C 6.071879 15.091797 6.5136719 15.53359 6.5136719 16.091797 C 6.5136719 16.650004 6.071879 17.091797 5.5136719 17.091797 C 4.9554647 17.091797 4.5136719 16.650004 4.5136719 16.091797 C 4.5136719 15.53359 4.9554647 15.091797 5.5136719 15.091797 z "/>
</svg>