<svg width="28.488234" height="19.029303" viewBox="0 0 28.488235 19.029303">
	<path style="fill:#a7865d;" d="M 0,2.8463256e-6 0,1.0175809 l 6.4140625,0 C 6.9543284,2.064981 7.5359376,3.1919122 8.0546856,4.199222 L 11.13867,10.177738 12.027342,9.7187536 C 11.232139,8.2242676 10.366552,6.6917266 9.5332026,5.1582016 L 27.078125,5.7402326 24.386719,12.99414 c -5.594254,-0.0043 -11.214664,0.0077 -16.7968754,-0.0039 l -1.6015628,3.003907 c -0.352106,-0.584036 -0.9867357,-0.980469 -1.7148437,-0.980469 -1.1044179,0 -2.0078125,0.903394 -2.0078125,2.007812 0,1.104418 0.9033946,2.007813 2.0078125,2.007813 1.1044178,0 2.0078125,-0.903395 2.0078125,-2.007813 5.6262974,-0.05564 11.3587214,-0.02979 16.1718314,-0.01562 0,1.104202 0.90361,2.007813 2.007813,2.007813 1.104201,0 2.007812,-0.903611 2.007812,-2.007813 10e-7,-1.104202 -0.903611,-2.007812 -2.007812,-2.007812 -0.734163,0 -1.372476,0.403815 -1.722657,0.996094 l -15.6191407,0 1.0605473,-2 16.8339844,0 C 26.423116,10.422403 27.581351,7.3454166 28.488237,4.8007927 21.772237,4.5688692 14.808188,4.3683186 9.0214396,4.1914207 8.2863466,2.7555166 7.5304816,1.2937462 6.9941402,-9.5367437e-7 4.5753799,0.00150905 2.0825477,3.0744633e-4 0,2.8463256e-6 Z M 24.460938,15.80078 c 0.670131,0 1.205078,0.534946 1.205078,1.205078 0,0.670132 -0.534948,1.205078 -1.205078,1.205078 -0.670132,0 -1.203125,-0.534946 -1.203126,-1.205078 0,-0.670132 0.532993,-1.205078 1.203126,-1.205078 z M 4.2734371,15.81641 c 0.6702628,0 1.2050781,0.534815 1.2050781,1.205078 0,0.670263 -0.5348153,1.205078 -1.2050781,1.205078 -0.6702629,0 -1.2050781,-0.534815 -1.2050781,-1.205078 0,-0.670263 0.5348152,-1.205078 1.2050781,-1.205078 z"/>
</svg>