<svg width="27" height="36" viewBox="0 0 27.000002 36.000001">
	<path style="fill:#a7865d;" d="M 22.855469,0.77539062 22.544922,1.3945312 c 0.02648,-0.052959 -0.106351,0.104559 -0.310547,0.1953126 -0.204196,0.090754 -0.467222,0.1523437 -0.644531,0.1523437 l -0.429688,0 -0.521484,3.4238281 0.787109,0 -2.527343,8.1855464 0,-8.2285151 c 0,-0.085785 0.0083,-0.089458 0.01367,-0.1542969 0.153276,0.076008 0.341,0.1365595 0.548829,0.085937 0.22044,-0.053694 0.382388,-0.2172092 0.466796,-0.359375 C 20.012143,4.5531462 20.050326,4.4165681 20.08203,4.2753901 20.208848,3.7106785 20.19785,2.9875917 20.294922,2.3125 l 0.08203,-0.5703125 -0.578125,0 c -0.06134,0 -0.271782,-0.051192 -0.439453,-0.1386719 -0.167671,-0.08748 -0.292822,-0.2321276 -0.28125,-0.2089844 L 18.837891,0.91210938 18.375,1.1894531 c -0.195996,0.1175979 -1.085301,0.3183594 -1.535156,0.3183594 -0.30283,0 -0.563004,-0.00407 -0.888672,-0.066406 -0.213333,-0.071602 -0.387543,-0.13206 -0.546875,-0.2382815 L 14.933594,0.88867188 14.679688,1.3945312 c 0.04139,-0.082771 -0.114262,0.099193 -0.333985,0.1933594 -0.219723,0.094167 -0.498593,0.1542969 -0.621094,0.1542969 l -0.589843,0 0.519531,3.09375 0.04883,-0.00195 c 0.02532,0.069206 0.03649,0.138462 0.09961,0.2011718 0.101674,0.1010194 0.238544,0.1498736 0.339844,0.1601563 0.122768,0.012462 0.178682,-0.027517 0.251953,-0.052734 l 0,8.6250004 c 0,1.893434 -0.330326,2.613529 -0.554687,2.83789 l -0.353516,0.353516 0.353516,0.353516 c 0.28202,0.282021 0.398437,0.520548 0.398437,0.582031 0,0.122689 -0.237996,0.461399 -0.322265,0.517578 l -0.462891,0.308594 0.355469,0.427734 c 0.149199,0.179038 0.278473,0.387425 0.392578,0.914063 0.114105,0.526637 0.193359,1.355962 0.193359,2.660156 l 0,8.345703 -0.759765,0 -0.482422,3.523438 0.572265,0 c -0.0053,0 0.23942,0.06593 0.429688,0.195312 0.190268,0.129383 0.346081,0.327118 0.353515,0.345703 L 14.75,35.738281 15.271484,35.347656 c 0.183483,-0.137612 0.759848,-0.367187 1.257813,-0.367187 0.22815,0 0.598165,0.06751 0.890625,0.140625 0.311481,0.07787 0.567907,0.20072 0.546875,0.179687 l 0.490234,0.490235 0.310547,-0.619141 c 0.0033,-0.0067 0.155662,-0.19427 0.335938,-0.314453 0.180275,-0.120184 0.395944,-0.1875 0.46289,-0.1875 l 0.56836,0 -0.453125,-3.511719 -0.783203,0 0,-8.132812 0.390624,-1.371094 1.904297,9.652344 -0.03711,-0.02734 -0.929688,0 0.236329,3.433594 0.466797,0 c 0.153499,0 0.406787,0.06879 0.621093,0.183593 0.214307,0.114807 0.388543,0.284941 0.429688,0.353516 l 0.330078,0.548828 0.453125,-0.453125 c 0.156928,-0.156928 0.254562,-0.248667 0.332031,-0.292969 0.07747,-0.0443 0.151865,-0.07227 0.363281,-0.07227 0.122502,0 0.521994,0.06751 0.814454,0.140625 0.15574,0.03894 0.297269,0.07602 0.378906,0.107422 0.08164,0.0314 0.06151,0.07419 -0.0039,-0.05664 l 0.445312,0.894531 0.447266,-0.894531 c 0.03315,-0.0663 0.161221,-0.235066 0.294922,-0.347656 0.1337,-0.11259 0.276807,-0.154297 0.271484,-0.154297 l 0.677734,0 -0.966797,-3.113281 -0.757812,0 -1.417969,-9.841797 0,-0.002 c -0.223094,-1.487293 1.16e-4,-1.970819 0.248047,-2.21875 l 0.537109,-0.53711 -0.705078,-0.28125 C 23.429353,18.55846 23.385733,18.5351 23.330078,18.201172 l -0.0039,-0.01953 -0.0039,-0.01953 c -0.01129,-0.04517 0.08364,-0.400622 0.203125,-0.490234 L 23.921875,17.375 23.628906,16.974609 C 22.868815,15.93812 22.570901,14.665092 22.416016,13.40625 l 2.427734,-8.0195312 0.839844,0 1.380859,-3.6445313 -0.724609,0 c -0.09472,0 -0.315172,-0.063947 -0.5,-0.1640625 C 25.655016,1.4780098 25.488074,1.3092597 25.509766,1.3417969 L 25.232422,0.92578125 24.816406,1.203125 c -0.169608,0.1130721 -0.623145,0.3046875 -0.8125,0.3046875 0.01093,0 -0.224199,-0.053506 -0.320312,-0.1015625 l -0.0332,-0.017578 -0.0332,-0.00977 C 23.415197,1.311576 23.305724,1.2256457 23.345703,1.265625 L 22.855469,0.77539062 Z M 18.503906,2.1328125 c 0.131324,0.117773 0.238273,0.276915 0.392578,0.3574219 0.112772,0.058838 0.244527,0.060181 0.363282,0.1015625 -0.05186,0.5214841 -0.08961,1.0268632 -0.134766,1.3066406 l -0.134766,-0.1308594 -0.203125,0 c -0.322408,0 -0.668607,0.2701506 -0.77539,0.5371094 -0.106784,0.2669588 -0.113281,0.5220027 -0.113281,0.8183594 l 0,11.7910151 0.945312,0 3.695312,-11.9687495 0.0039,-0.011719 c 0.04607,-0.1842751 0.08824,-0.3730733 0.04492,-0.6113282 -0.04138,-0.2275881 -0.259511,-0.4811249 -0.503907,-0.5800781 -0.04813,-0.022052 -0.146646,0.013465 -0.216796,-0.00195 L 22.035156,2.640625 c 0.205084,-0.041495 0.420296,-0.05442 0.605469,-0.1367188 0.156416,-0.069518 0.254646,-0.2244346 0.388672,-0.3222656 0.08094,0.035471 0.145994,0.097293 0.240234,0.1289063 0.207428,0.1022578 0.425998,0.1972656 0.734375,0.1972656 0.431069,0 0.714349,-0.1890629 1,-0.3457031 0.117833,0.09388 0.211122,0.2146179 0.359375,0.2949218 0.09384,0.050828 0.221088,0.053687 0.324219,0.095703 l -0.542969,1.4335937 c -0.07185,-0.03291 -0.109127,-0.1203282 -0.179687,-0.125 -0.06918,-0.015305 -0.122965,-0.047374 -0.205078,-0.037109 -0.161062,0.020133 -0.310343,0.1072172 -0.408204,0.2050781 -0.193605,0.1936057 -0.270366,0.4112903 -0.357421,0.7148437 l -2.601563,8.5878903 0.01367,0.103516 c 0.146544,1.245622 0.482992,2.589384 1.248047,3.789062 -0.255681,0.339966 -0.397408,0.731858 -0.300781,1.152344 0.06781,0.38141 0.38145,0.562172 0.642578,0.791016 -0.355446,0.557271 -0.544615,1.341238 -0.341797,2.693359 l -0.002,-0.002 1.482422,10.291016 0.002,0.01367 c 0.05025,0.25125 0.133582,0.465614 0.302734,0.634766 0.169153,0.169152 0.416922,0.234375 0.578125,0.234375 0.04845,0 0.124256,-0.0275 0.195313,-0.05273 l 0.292968,0.943359 c -0.09521,0.05911 -0.23325,0.06638 -0.314453,0.134766 -0.08317,0.07004 -0.121431,0.158772 -0.191406,0.234375 -0.167234,-0.06318 -0.33235,-0.104572 -0.484375,-0.142578 -0.330506,-0.08263 -0.711918,-0.169922 -1.056641,-0.169922 -0.333679,0 -0.62782,0.07154 -0.861328,0.205078 -0.08472,0.04845 -0.129523,0.109349 -0.197265,0.164062 -0.130875,-0.106748 -0.225302,-0.251696 -0.378907,-0.333984 -0.187051,-0.100206 -0.408161,-0.118108 -0.617187,-0.171875 l -0.07031,-1.050781 c 0.204647,0.07918 0.44796,0.151019 0.597657,0.07617 0.197126,-0.09857 0.381257,-0.394999 0.40039,-0.605469 0.01913,-0.21047 -0.01232,-0.382502 -0.05273,-0.625 l -0.002,-0.0078 -2.457032,-12.445312 -0.865234,0 -1.05664,3.699219 0,8.947265 c 0,0.194677 -0.0237,0.342948 0.05469,0.578125 0.0392,0.117589 0.134764,0.271556 0.277344,0.361328 0.142579,0.08977 0.286432,0.107422 0.40039,0.107422 0.06388,0 0.162827,-0.04401 0.253907,-0.07813 l 0.136718,1.058594 c -0.154672,0.06368 -0.339291,0.07711 -0.472656,0.166016 -0.148364,0.09891 -0.232825,0.243845 -0.349609,0.361328 -0.183311,-0.06757 -0.371638,-0.194961 -0.53711,-0.236328 -0.330506,-0.08263 -0.737997,-0.169922 -1.132812,-0.169922 -0.567099,0 -0.997239,0.219969 -1.408203,0.429687 -0.134052,-0.151198 -0.237634,-0.337841 -0.404297,-0.451172 -0.133159,-0.09055 -0.302313,-0.101368 -0.445313,-0.166015 l 0.16211,-1.1875 c 0.08255,0.03195 0.136402,0.117187 0.226562,0.117187 0.169514,0 0.378607,-0.08446 0.5,-0.214844 0.121393,-0.130384 0.165436,-0.264416 0.191406,-0.376953 0.05194,-0.225073 0.04297,-0.414698 0.04297,-0.609375 l 0,-8.798828 c 0,-1.343409 -0.07782,-2.22967 -0.216797,-2.871094 -0.107039,-0.494026 -0.287029,-0.764599 -0.46289,-1.035156 0.23571,-0.256225 0.523437,-0.473951 0.523437,-0.921875 0,-0.41088 -0.271541,-0.669432 -0.505859,-0.943359 0.406836,-0.593061 0.662109,-1.477256 0.662109,-3.183594 l 0,-9.1894529 c 0,-0.2725474 0.0073,-0.4430072 -0.0293,-0.6445312 C 15.346914,3.8328317 15.317724,3.6997416 15.191406,3.5664062 15.065088,3.4330709 14.86055,3.3769531 14.738281,3.3769531 c -0.164868,0 -0.227734,0.053794 -0.298828,0.099609 l -0.144531,-0.865234 c 0.148482,-0.039938 0.302597,-0.042352 0.445312,-0.1035156 0.163105,-0.069902 0.274425,-0.2342134 0.417969,-0.3339844 0.177466,0.082438 0.365969,0.1818853 0.511719,0.2304688 l 0.0293,0.00977 0.03125,0.00586 c 0.439639,0.087928 0.797892,0.087891 1.109375,0.087891 0.520121,0 1.129018,-0.160137 1.664062,-0.375 z m -4.65625,29.6230465 c 0,0.114965 0.06616,0.206546 0.0957,0.3125 l -0.03516,0 -0.04687,-0.199218 -0.01367,-0.113282 z M 4.3964844,0 4.109375,1.4296875 C 4.061676,1.6681824 4.0392761,1.6905823 3.8007812,1.7382812 L 3.4335938,1.8105469 2.4667969,13.25 l 0,0.0078 c -0.076434,1.375815 -0.2321047,2.171069 -0.4023438,2.65625 -0.170239,0.485182 -0.3347473,0.666906 -0.5683593,0.939454 l -0.3476563,0.40625 0.4257813,0.318359 c 0.1621495,0.121612 0.2675781,0.39034 0.2675781,0.535156 0,0.06148 -0.1259839,0.309578 -0.3203125,0.503907 l -0.2890625,0.289062 0.2265625,0.341797 c 0.1344066,0.20161 0.2485893,0.403601 0.3339844,0.847656 0.085395,0.444055 0.1266929,1.124737 0.050781,2.1875 l 0,0.002 -0.5839844,8.902344 -0.92773435,0 L 0,34.576172 l 0.55078125,0 c -0.0109255,0 0.11235626,0.02662 0.21875,0.109375 0.10639374,0.08275 0.20121009,0.205193 0.24218755,0.328125 l 0.2558593,0.767578 0.5722657,-0.572266 c 0.1936314,-0.193631 0.5584327,-0.320312 0.8144531,-0.320312 0.122502,0 0.3093579,0.05104 0.5429687,0.128906 0.2336096,0.07787 0.3898431,0.153515 0.4277344,0.191406 l 0.5703125,0.572266 0.2558594,-0.767578 c 0.092496,-0.277487 0.271584,-0.359375 0.4609375,-0.359375 l 0.5,0 0,-3.423828 -0.9707032,0 0.2695313,-3.910157 0,-0.01758 c 0,-0.150278 0.043366,-0.260946 0.076172,-0.304687 0.032806,-0.04374 0.030277,-0.05273 0.125,-0.05273 l 1.3242187,0 c -0.00532,0 0.043161,0.0073 0.1191407,0.09961 0.073951,0.0898 0.1407512,0.239413 0.1640624,0.345703 l 0.1972657,3.765625 -0.8417969,0 0.109375,3.419922 0.484375,0 c 0.1225008,0 0.3292615,0.05372 0.4882812,0.146484 0.1590198,0.09276 0.2580372,0.215518 0.2832032,0.291016 l 0.2558594,0.767578 0.5722656,-0.572266 c 0.03789,-0.03789 0.2468075,-0.152906 0.5019531,-0.21875 0.2551456,-0.06584 0.5563215,-0.101562 0.78125,-0.101562 0.2267242,0 0.5102515,0.06679 0.9082034,0.146484 0.0025,5.01e-4 0.0033,-5.02e-4 0.0059,0 0.126722,0.0395 0.254133,0.07495 0.357422,0.109375 0.120709,0.04024 0.205996,0.104434 0.166015,0.06445 l 0.685547,0.6875 0.160157,-0.958984 c 0.01524,-0.09143 0.07694,-0.186407 0.166015,-0.259766 0.08908,-0.07336 0.208192,-0.101562 0.197266,-0.101562 l 0.583984,0 -0.544922,-3.521484 -0.914062,0 -0.650391,-8.683594 c -0.07376,-1.879635 0.274066,-2.9405 0.396485,-3.144532 l 0.232421,-0.386718 -0.361328,-0.269532 c -0.194149,-0.145612 -0.34375,-0.473672 -0.34375,-0.535156 0,-0.01139 0.07116,-0.289959 0.300782,-0.427734 l 0.603515,-0.361328 -0.539062,-0.451172 c -0.26094,-0.217416 -0.332244,-0.208528 -0.484416,-0.625 C 10.125171,15.75345 9.9651106,14.905517 9.8496094,13.25 l 0,-0.002 L 8.9648438,1.8300781 8.6152344,1.7421875 C 8.4749532,1.7071172 8.3751342,1.635101 8.2578125,1.3417969 L 7.9765625,0.63671875 7.4394531,1.1738281 c 0.020687,-0.020687 -0.1586204,0.092975 -0.3964843,0.1503907 -0.237864,0.057415 -0.5368247,0.091797 -0.8066407,0.091797 -0.233612,0 -0.5980826,-0.00841 -0.8144531,-0.0625 -0.1557413,-0.038935 -0.2972697,-0.076023 -0.3789062,-0.107422 -0.081637,-0.031399 -0.061508,-0.074188 0.00391,0.056641 L 4.3964844,0 Z m 3.3203125,2.0859375 c 0.086343,0.1074964 0.1791658,0.1936113 0.2871093,0.2734375 l 0.8476563,10.964844 c 0.1180478,1.689015 0.2688751,2.594319 0.4863281,3.189453 0.1513141,0.414122 0.3560373,0.54923 0.5449219,0.728516 -0.1987659,0.264535 -0.4863281,0.511604 -0.4863281,0.792968 0,0.397891 0.2821926,0.665009 0.5273437,0.945313 -0.2938826,0.619138 -0.5213357,1.632631 -0.4492187,3.435547 l 0,0.0098 0.6992186,9.314453 c 0,0.261343 0.04693,0.493271 0.158203,0.697266 0.11127,0.203995 0.326427,0.425781 0.654297,0.425781 0.136708,0 0.211625,-0.06581 0.298828,-0.11914 l 0.164063,1.048828 c -0.09006,0.04931 -0.202541,0.04329 -0.285157,0.111328 -0.08739,0.07196 -0.111674,0.21846 -0.185546,0.314453 -0.0122,-0.004 -0.02703,-0.01747 -0.03906,-0.02148 -0.171306,-0.0571 -0.332784,-0.09856 -0.417969,-0.126954 l -0.0293,-0.0098 -0.03125,-0.0059 c -0.376783,-0.07536 -0.7145602,-0.166016 -1.1093755,-0.166016 -0.3201663,0 -0.6828978,0.04292 -1.03125,0.132812 -0.1815515,0.04685 -0.3320605,0.169961 -0.5,0.25 -0.1260314,-0.135279 -0.2075941,-0.32357 -0.359375,-0.412109 -0.1565863,-0.09134 -0.3347657,-0.0964 -0.5039063,-0.144531 l -0.03125,-0.960938 c 0.070611,0.02877 0.078567,0.109375 0.1660157,0.109375 0.2056016,0 0.3932611,-0.120652 0.4882812,-0.236328 0.09502,-0.115676 0.134827,-0.226808 0.1621094,-0.335937 0.054565,-0.218259 0.048192,-0.440044 -0.00977,-0.671875 l 0.015625,0.0957 -0.2363281,-4.47461 -0.00781,-0.03516 C 7.4473707,26.922401 7.3254738,26.648845 7.1289062,26.410156 6.9323387,26.171467 6.6310048,25.945313 6.2363281,25.945312 l -1.3242187,0 c -0.3725008,0 -0.7249752,0.185384 -0.9257813,0.453126 -0.2008061,0.267741 -0.2753906,0.587351 -0.2753906,0.904296 l -0.3105469,4.498047 0,0.01758 c 0,0.239075 0.054081,0.456672 0.1679688,0.646485 0.1138878,0.189813 0.3147074,0.398437 0.6425781,0.398437 0.104575,0 0.1230138,-0.08446 0.2011719,-0.117187 l 0,1.072265 C 4.1834255,33.907421 4.0051126,34.044137 3.8378906,34.24219 3.7280125,34.19854 3.6063278,34.1012 3.5136719,34.070314 c -0.2336132,-0.07787 -0.5146528,-0.18164 -0.859375,-0.18164 -0.3395209,0 -0.6604749,0.226254 -0.9882813,0.398437 -0.097559,-0.129382 -0.1621862,-0.298019 -0.28125,-0.390625 -0.088478,-0.06882 -0.2068088,-0.06554 -0.3027344,-0.115234 l 0.109375,-1.111328 c 0.081749,0.02665 0.1426647,0.115234 0.2167969,0.115234 0.3390286,0 0.5930812,-0.258428 0.6894531,-0.451172 0.096372,-0.192743 0.1210938,-0.35442 0.1210938,-0.515625 l 0,0.0332 0.6230469,-9.498046 0,-0.002 c 0.07958,-1.116154 0.042788,-1.875548 -0.066406,-2.443359 -0.083795,-0.435733 -0.2325581,-0.683752 -0.3710937,-0.931641 0.198355,-0.241536 0.4375,-0.462944 0.4375,-0.863281 0,-0.310923 -0.2458396,-0.583083 -0.4335938,-0.867187 0.202857,-0.251849 0.4253378,-0.505279 0.5996094,-1.001953 0.217952,-0.621164 0.3753691,-1.501835 0.4550781,-2.916016 l 0,-0.0059 0.9316406,-11.0000004 c 0.083943,-0.061235 0.1400791,-0.1312317 0.2089844,-0.2089844 0.027519,0.011091 0.054181,0.054493 0.080078,0.064453 0.1714431,0.06594 0.3403523,0.1075491 0.4960937,0.1464844 0.4065951,0.1016491 0.8230286,0.091797 1.0566406,0.091797 0.3531494,0 0.7143172,-0.042236 1.0410157,-0.1210937 0.16513,-0.039771 0.2934674,-0.1456864 0.439453,-0.2088964 z M 5.6132812,9.59375 c -0.1639352,0 -0.3815517,0.1029898 -0.484375,0.234375 C 5.026083,9.9595102 5.0017413,10.072454 4.984375,10.167969 4.949642,10.358998 4.957031,10.520167 4.957031,10.714844 l 0,-0.02734 -0.234375,4.21875 0,0.01367 c 0,0.495002 0.041596,1.003485 0.1152344,1.445312 0.051028,0.306167 0.1568298,0.532455 0.2597656,0.771485 l -0.066406,0.08984 0.042969,0.04297 c -0.1546559,0.251141 -0.3515626,0.464714 -0.3515626,0.84375 0,0.308226 0.1709901,0.558721 0.3105469,0.81836 C 4.8500081,19.214757 4.694798,19.493892 4.5703127,19.90625 4.4057079,20.451503 4.2654084,21.093423 4.183594,21.707031 l -0.00586,0.0332 0,0.0332 c 0,0.617363 0.036775,1.067325 0.2871094,1.451171 0.2503344,0.383847 0.7239452,0.529297 1.1484374,0.529297 0.2122461,0 0.4191254,-0.02159 0.625,-0.103515 C 6.4441555,23.568454 6.639036,23.409271 6.7597652,23.210931 7.0009097,22.814772 7.0099069,22.361035 6.96875,21.742188 6.9271853,21.077151 6.8045062,20.443815 6.6601562,19.917969 6.5536892,19.530124 6.4358096,19.282278 6.3183594,19.029297 6.3811808,18.93587 6.4506635,18.853399 6.5,18.738281 6.581843,18.547314 6.6007353,18.299028 6.558594,18.060547 6.547508,17.742995 6.374876,17.515822 6.230469,17.269531 l 0.042969,-0.04297 -0.060547,-0.08203 c 0.02656,-0.09239 0.087812,-0.186408 0.1054688,-0.285156 0.038327,-0.21435 0.060853,-0.449459 0.076172,-0.689453 0.030638,-0.479987 0.029297,-0.977453 0.029297,-1.25 l 0,-0.0078 -0.15625,-4.214843 C 6.2664379,10.47828 6.2484703,10.293219 6.203125,10.126953 6.1797537,10.041258 6.1534964,9.9589288 6.0898438,9.8613281 6.0261911,9.7637274 5.8827479,9.59375 5.6132812,9.59375 Z m 0.00586,10.382812 c 0.029467,0.0908 0.048471,0.106122 0.076172,0.207032 0.1281975,0.467005 0.2390848,1.040199 0.2753906,1.621094 l 0,0.002 c 0.036532,0.547974 -0.033364,0.83369 -0.064453,0.884765 -0.015544,0.02554 -0.00451,0.01632 -0.037109,0.0293 -0.032604,0.01298 -0.1176874,0.0332 -0.2558594,0.0332 -0.2763439,0 -0.2708194,-0.01226 -0.3125,-0.07617 -0.040331,-0.06184 -0.1141537,-0.358438 -0.1191406,-0.875 0.074804,-0.54403 0.2021365,-1.131857 0.3457032,-1.607422 0.036947,-0.122388 0.049105,-0.112078 0.091797,-0.21875 z m -0.5957031,11.919922 -0.048828,0.212891 -0.044922,0.0957 c 0.032706,-0.102059 0.09375,-0.191266 0.09375,-0.308594 z "/>
</svg>