<svg version="1.1" id="error-cross"
	 xmlns="http://www.w3.org/2000/svg" xmlns:xlink="http://www.w3.org/1999/xlink" x="0px" y="0px" width="8.832px"
	 height="10.224px" viewBox="0 0 8.832 10.224" style="enable-background:new 0 0 8.832 10.224;" xml:space="preserve">
<path style="fill-rule:evenodd;clip-rule:evenodd;" d="M5.303,5.101c-0.675-0.98-0.946-1.671-2.06-3.415
	C2.692,0.895,1.933,0.5,1.142,1.051c-0.79,0.551-0.659,1.32-0.108,2.11l2.474,3.317"/>
<path style="fill-rule:evenodd;clip-rule:evenodd;" d="M3.459,6.427c0.338,0.58,0.078-0.154,1.422,1.952
	c0.552,0.791,1.95,2.071,2.531,1.661C8.042,9.595,7.878,8.4,7.327,7.609L5.304,5.101"/>
<path style="fill-rule:evenodd;clip-rule:evenodd;" d="M8.71,0.166c-0.921-0.712-2.256,1.071-2.736,1.65
	C5.358,2.555,3.462,4.517,3.462,4.517L3.317,5.138c-0.746,0.828-1.359,1.285-2.729,2.73C-0.044,8.596-0.228,9.442,0.34,9.923
	c0.572,0.483,1.279,0.392,1.913-0.334l0.8-0.767c0.334-0.438,1.016-1.126,1.922-2.063l0.2-0.308l-0.01-0.007
	C6.063,4.956,9.521,0.794,8.71,0.166"/>
</svg>
