<svg width="27.0023" height="32.019444" viewBox="0 0 27.0023 32.019444">
	<path d="M 0 0.033203125 L 0 32.019531 L 27.001953 32.019531 L 27.001953 0.033203125 L 25.994141 0.033203125 L 25.994141 31.011719 L 1.0078125 31.011719 L 1.0078125 19.982422 L 5.9941406 19.982422 L 5.9941406 23.017578 L 5.0019531 23.017578 L 5.0019531 24.017578 L 13.998047 24.017578 L 13.998047 23.017578 L 12.992188 23.017578 L 12.992188 10.023438 L 13.996094 10.023438 L 13.996094 9.0234375 L 4.9980469 9.0234375 L 4.9980469 10.023438 L 5.9941406 10.023438 L 5.9941406 18.982422 L 1.0078125 18.982422 L 1.0078125 0.033203125 L 0 0.033203125 z M 6.9941406 10.023438 L 11.992188 10.023438 L 11.992188 23.017578 L 6.9941406 23.017578 L 6.9941406 10.023438 z M 19.501953 14.03125 C 17.026005 14.03125 15.009766 16.047489 15.009766 18.523438 C 15.009766 20.999385 17.026005 23.015625 19.501953 23.015625 C 21.977901 23.015625 23.994141 20.999386 23.994141 18.523438 C 23.994141 16.047489 21.977901 14.03125 19.501953 14.03125 z M 19.501953 14.886719 C 21.515783 14.886719 23.138672 16.509607 23.138672 18.523438 C 23.138672 20.537267 21.515783 22.162109 19.501953 22.162109 C 17.488123 22.162109 15.863281 20.537267 15.863281 18.523438 C 15.863281 16.509607 17.488123 14.886719 19.501953 14.886719 z M 19.505859 17.017578 C 18.686549 17.017578 18.011719 17.692409 18.011719 18.511719 C 18.011719 19.331029 18.686549 20.007814 19.505859 20.007812 C 20.325169 20.007812 21 19.331029 21 18.511719 C 21 17.692409 20.325169 17.017578 19.505859 17.017578 z M 19.505859 18.017578 C 19.784729 18.017578 20 18.232849 20 18.511719 C 20 18.790589 19.784729 19.007813 19.505859 19.007812 C 19.226989 19.007812 19.011719 18.790589 19.011719 18.511719 C 19.011719 18.232849 19.226989 18.017578 19.505859 18.017578 z "/>
</svg>