<?xml version="1.0" encoding="iso-8859-1"?>
<!-- Generator: Adobe Illustrator 16.2.0, SVG Export Plug-In . SVG Version: 6.00 Build 0)  -->
<!DOCTYPE svg PUBLIC "-//W3C//DTD SVG 1.1//EN" "http://www.w3.org/Graphics/SVG/1.1/DTD/svg11.dtd">
<svg version="1.1" id="fb-like" xmlns="http://www.w3.org/2000/svg" xmlns:xlink="http://www.w3.org/1999/xlink" x="0px" y="0px"
	 width="25px" height="21.125px" viewBox="0 0 25 21.125" style="enable-background:new 0 0 25 21.125;" xml:space="preserve">
<path style="fill-rule:evenodd;clip-rule:evenodd;stroke-miterlimit:10;" d="M3.531,8.656
	c1.657,0,3,0.843,3,2.5v7c0,1.657-1.343,2.5-3,2.5s-3-0.843-3-2.5v-7C0.531,9.5,1.875,8.656,3.531,8.656z M13.969,7.656
	c-0.132,0.147,0.388,0,0.563,0c3.244,0,7,0,7,0c1.657,0,3,1.343,3,3v7c0,1.657-1.343,3-3,3h-11c-1.657,0-3-1.343-3-3v-7
	c0-1.387,0.594-2.688,1.996-2.885C9.083,7.834,9.061,7.796,9.099,7.745c0.954-1.276,4.576-5.192,5.432-6.089
	c2.382-2.495,5.075-0.582,3,2C16.95,4.379,15.287,6.186,13.969,7.656z"/>
</svg>
