<svg width="27.0023" height="32.019444" viewBox="0 0 27.0023 32.019444">
	<path d="M 0 0.033203125 L 0 32.019531 L 27.001953 32.019531 L 27.001953 1.7011719 C 27.008771 1.6923312 27.054688 1.6347656 27.054688 1.6347656 L 27.001953 1.59375 L 27.001953 0.033203125 L 25.994141 0.033203125 L 25.994141 1.3398438 C 25.672851 1.7463482 24.470537 3.236446 22.427734 4.9492188 C 20.087943 6.9109998 16.921988 8.8320314 13.65625 8.8320312 C 10.390512 8.8320312 7.222604 6.9109998 4.8828125 4.9492188 C 2.543021 2.9874377 1.0546875 1.0292969 1.0546875 1.0292969 L 1.0078125 1.0644531 L 1.0078125 0.033203125 L 0 0.033203125 z M 1.0078125 2.5292969 C 1.6866922 3.3124709 2.7739626 4.4854589 4.2402344 5.7148438 C 6.2672757 7.4144016 8.9259999 9.1250676 11.869141 9.6523438 C 10.199429 10.310974 9.0097656 11.932497 9.0097656 13.832031 C 9.0097656 14.154066 9.0465724 14.466396 9.1113281 14.769531 C 7.2354922 16.134003 6.0097656 18.339615 6.0097656 20.832031 C 6.0097656 24.968245 9.3735519 28.332031 13.509766 28.332031 C 17.645979 28.332031 21.009766 24.968245 21.009766 20.832031 C 21.009766 18.339615 19.784039 16.134003 17.908203 14.769531 C 17.972959 14.466396 18.009766 14.154066 18.009766 13.832031 C 18.009766 11.974067 16.875807 10.372985 15.263672 9.6875 C 18.278447 9.2000626 21.001831 7.4491472 23.070312 5.7148438 C 24.300971 4.6830073 25.30097 3.6550341 25.994141 2.8867188 L 25.994141 31.011719 L 1.0078125 31.011719 L 1.0078125 2.5292969 z M 13.509766 10.332031 C 15.448685 10.332031 17.009766 11.893112 17.009766 13.832031 C 17.009766 13.953214 16.986516 14.067605 16.974609 14.185547 C 15.937161 13.642555 14.759871 13.332031 13.509766 13.332031 C 12.25966 13.332031 11.08237 13.642555 10.044922 14.185547 C 10.033015 14.067605 10.009766 13.953214 10.009766 13.832031 C 10.009766 11.893112 11.570847 10.332031 13.509766 10.332031 z M 13.509766 14.332031 C 14.686533 14.332031 15.787201 14.646866 16.738281 15.191406 C 16.20968 16.451453 14.966127 17.332031 13.509766 17.332031 C 12.053404 17.332031 10.809852 16.451453 10.28125 15.191406 C 11.23233 14.646866 12.332998 14.332031 13.509766 14.332031 z M 9.4570312 15.751953 C 10.180892 17.27111 11.719407 18.332031 13.509766 18.332031 C 15.300124 18.332031 16.83864 17.27111 17.5625 15.751953 C 19.053255 16.941947 20.009766 18.771695 20.009766 20.832031 C 20.009766 24.427804 17.105539 27.332031 13.509766 27.332031 C 9.913992 27.332031 7.0097656 24.427804 7.0097656 20.832031 C 7.0097656 18.771695 7.9662763 16.941947 9.4570312 15.751953 z "/>
</svg>