<svg width="35" height="29.849653" viewBox="0 0 35.000002 29.849654">
	<path style="fill:#a7865d;" d="M 26.005859,-1.9073487e-6 11.628906,21.777341 4.7949214,21.792971 c -1.12435,0.0025 -2.163524,0.350617 -2.933593,1.011719 -0.7700694,0.661102 -1.2519534,1.645167 -1.2519534,2.800781 0,2.311228 1.8762784,4.1875 4.1875004,4.1875 l 10.6249996,0 c 1.167542,0 2.177386,-0.528371 2.93164,-1.294921 2.771499,-3.018811 5.497287,-6.409431 8.185547,-9.607422 l 0.05859,10.953125 0.496094,0.002 2.429687,0.0039 2.609375,-17.611328 0.0078,-0.0098 0.0293,-0.113281 c 0,0 1.136422,-4.4227179 -1.121093,-7.8535159 -1.08796,-1.653398 -2.220773,-2.658939 -3.091797,-3.25 -0.610601,-0.41434201 -0.822346,-0.45402501 -1.06836,-0.54687501 l 0.01563,-0.05273 z M 26.351562,1.2929661 c 0.116723,0.03751 0.391289,0.104657 1.042969,0.546875 0.769169,0.521944 1.803029,1.427684 2.818359,2.970704 1.913706,2.908301 1.025281,6.8321089 0.992188,6.9765619 -4.496817,5.243375 -8.839773,10.668923 -13.361328,15.869141 -0.587361,0.693504 -1.441987,1.136718 -2.421875,1.136718 l -10.6249996,0 c -1.774518,0 -3.1875,-1.412977 -3.1875,-3.1875 0,-0.887261 0.341333,-1.557711 0.904296,-2.041015 0.562965,-0.483304 1.366643,-0.769461 2.285157,-0.771485 l 7.3691396,-0.01758 z m -21.3535146,4.894532 -0.921876,0.386718 3.832032,9.1367189 0.921875,-0.386719 z m 7.2597646,1.691406 -0.789062,5.9472649 0.992187,0.13086 L 13.25,8.0097631 Z m 18.621094,5.8496089 -2.214844,15.091797 -1.072265,-0.002 -0.06055,-11.107422 z M 0.5976563,13.753903 0,14.554684 l 4.8085934,3.589844 0.597657,-0.800781 z"/>
</svg>