<svg width="27.0023" height="32.019444" viewBox="0 0 27.0023 32.019444">
	<path d="M 19.794922 0 L 18.935547 0.51171875 L 23.9375 8.9296875 L 19.015625 31.011719 L 17.011719 31.011719 L 16.017578 13.966797 C 17.147211 13.727101 18.001953 12.718964 18.001953 11.521484 L 18.001953 9.5214844 C 18.001953 8.1464995 16.876938 7.0214844 15.501953 7.0214844 L 14.892578 7.0214844 L 17.517578 0.021484375 L 16.517578 0.021484375 L 13.892578 7.0214844 L 13.142578 7.0214844 L 10.517578 0.021484375 L 9.5175781 0.021484375 L 12.142578 7.0214844 L 11.501953 7.0214844 C 10.126968 7.0214844 9.0019531 8.1464993 9.0019531 9.5214844 L 9.0019531 11.521484 C 9.0019531 12.718964 9.8566953 13.727101 10.986328 13.966797 L 10.033203 31.011719 L 7.9960938 31.011719 L 3.0664062 8.5898438 L 7.25 0.46289062 L 6.359375 0.00390625 L 2.0117188 8.4511719 L 6.9707031 31.011719 L 1.0078125 31.011719 L 1.0078125 0.033203125 L 0 0.033203125 L 0 32.019531 L 27.001953 32.019531 L 27.001953 0.033203125 L 25.994141 0.033203125 L 25.994141 31.011719 L 20.039062 31.011719 L 25 8.7597656 L 19.794922 0 z M 11.501953 8.0214844 L 15.501953 8.0214844 C 16.336968 8.0214844 17.001953 8.6864693 17.001953 9.5214844 L 17.001953 11.521484 C 17.001953 12.355255 16.336667 13.021484 15.501953 13.021484 L 11.501953 13.021484 C 10.66724 13.021484 10.001953 12.355255 10.001953 11.521484 L 10.001953 9.5214844 C 10.001953 8.6864694 10.666938 8.0214844 11.501953 8.0214844 z M 11.955078 14.050781 L 15.048828 14.050781 L 16.035156 31.011719 L 11.007812 31.011719 L 11.955078 14.050781 z "/>
</svg>