<svg width="35.003975" height="19.117764" viewBox="0 0 35.003976 19.117764">
	<path style="fill:#a7865d;" d="m 32.576165,0.00252998 c -2.002325,0.01 -4.147349,-0.01933 -6.115234,0.01367 -2.501128,0 -4.74791,1.69862602 -6.050781,4.34570302 C 20.161159,4.17998 19.859242,4.066981 19.52929,4.066981 l -4.054687,0 c -0.339831,0 -0.64939,0.120541 -0.902344,0.3125 -1.306132,-2.621948 -3.541952,-4.30078102 -6.0292967,-4.30078102 -1.967885,-0.033 -4.11291,-0.0037 -6.1152342,-0.01367 l -0.00195,0 -0.00195,0 C 1.0925341,0.06502998 0,1.142274 0,2.467374 l 0,14.236328 c 0,1.325 1.0925011,2.400391 2.4238281,2.400391 2.0438972,0 4.1211922,-0.02533 6.1093742,0.01367 l 0.0059,0 0.0039,0 c 2.5108157,-0.0028 4.7644457,-1.715116 6.0644527,-4.38086 0.246795,0.17687 0.542513,0.289063 0.867188,0.289063 l 4.054687,0 c 0.333923,0 0.63818,-0.118532 0.888672,-0.304688 1.303553,2.639312 3.546607,4.331168 6.042969,4.333985 l 0.0039,0 0.0059,0 c 1.988183,-0.039 4.065478,-0.01367 6.109376,-0.01367 1.331327,0 2.423828,-1.075391 2.423828,-2.400391 l 0,-14.236328 c 0,-1.3251 -1.092535,-2.40234402 -2.423828,-2.40234402 l -0.002,0 -0.002,0 z m 0.0039,1.00586002 c 0.79762,0 1.417968,0.618184 1.417968,1.396484 l 0,14.236328 c 0,0.7781 -0.620379,1.394531 -1.417968,1.394531 -2.03243,0 -4.111933,-0.02533 -6.119141,0.01367 -2.23037,0 -4.335208,-1.665465 -5.447266,-4.447265 l 0,-8.140625 c 1.113232,-2.7777 3.219126,-4.4375 5.447266,-4.4375 l 0.0039,0 0.0039,0 c 1.946992,-0.033 4.09377,-0.0096 6.111329,-0.01563 z M 2.4238148,1.07089 c 2.0175585,0.006 4.1643365,-0.01737 6.1113285,0.01563 l 0.0039,0 0.0039,0 c 2.2281397,0 4.3340337,1.6598 5.4472657,4.4375 l 0,8.140625 c -1.112058,2.7818 -3.216896,4.447265 -5.4472657,4.447265 -2.007208,-0.039 -4.086711,-0.01367 -6.1191405,-0.01367 -0.797589,0 -1.4179687,-0.616431 -1.4179687,-1.394531 l 0,-14.236328 c -1e-7,-0.7783 0.6203477,-1.396484 1.4179687,-1.396484 z M 27.837877,3.69589 23.498033,6.176358 23.994134,7.043546 28.333978,4.563077 27.837884,3.69589 Z M 7.1660023,3.75839 6.6699083,4.625577 11.009752,7.106046 11.505846,6.238858 7.1660023,3.75839 Z m 8.3085937,1.263672 4.054687,0 c 0.223584,0 0.395961,0.129749 0.478516,0.314453 l 0,8.417968 c -0.08251,0.184333 -0.254871,0.314453 -0.478516,0.314453 l -4.054687,0 c -0.224001,0 -0.396759,-0.129217 -0.478516,-0.314453 l 0,-8.417968 c 0.08186,-0.185336 0.254663,-0.314453 0.478516,-0.314453 z m 8.519538,4.007812 0,1 5,0 0,-1 -5,0 z m -17.9843747,0.0625 0,1 4.9999997,0 0,-1 -4.9999997,0 z m 17.9882807,2.939453 -0.496094,0.869141 4.339844,2.480468 0.496094,-0.86914 -4.339844,-2.480469 z m -12.992187,0.0625 -4.3398437,2.480469 0.496094,0.86914 4.3398427,-2.480468 -0.496093,-0.869141 z"/>
</svg>