<svg width="27.0023" height="32.019444" viewBox="0 0 27.0023 32.019444">
	<path d="M 0 0.033203125 L 0 32.019531 L 27.001953 32.019531 L 27.001953 0.033203125 L 25.994141 0.033203125 L 25.994141 31.011719 L 1.0078125 31.011719 L 1.0078125 0.033203125 L 0 0.033203125 z M 7 9.0097656 L 7 10.009766 L 23.009766 10.009766 L 23.009766 9.0097656 L 7 9.0097656 z M 4.015625 9.0175781 L 4.015625 11.017578 L 6.015625 11.017578 L 6.015625 9.0175781 L 4.015625 9.0175781 z M 4.0019531 13.007812 L 4.0019531 15.007812 L 6.0019531 15.007812 L 6.0019531 13.007812 L 4.0019531 13.007812 z M 7 13.013672 L 7 14.013672 L 23.001953 14.013672 L 23.001953 13.013672 L 7 13.013672 z M 6.9824219 17.003906 L 6.9824219 18.003906 L 22.994141 18.003906 L 22.994141 17.003906 L 6.9824219 17.003906 z M 3.9980469 17.011719 L 3.9980469 19.011719 L 5.9980469 19.011719 L 5.9980469 17.011719 L 3.9980469 17.011719 z M 3.9863281 21.001953 L 3.9863281 23.001953 L 5.9863281 23.001953 L 5.9863281 21.001953 L 3.9863281 21.001953 z M 6.9824219 21.005859 L 6.9824219 22.005859 L 22.984375 22.005859 L 22.984375 21.005859 L 6.9824219 21.005859 z"/>
</svg>