<?xml version="1.0" encoding="iso-8859-1"?>
<!-- Generator: Adobe Illustrator 16.2.0, SVG Export Plug-In . SVG Version: 6.00 Build 0)  -->
<!DOCTYPE svg PUBLIC "-//W3C//DTD SVG 1.1//EN" "http://www.w3.org/Graphics/SVG/1.1/DTD/svg11.dtd">
<svg version="1.1" id="&#x421;&#x43B;&#x43E;&#x439;_1"
	 xmlns="http://www.w3.org/2000/svg" xmlns:xlink="http://www.w3.org/1999/xlink" x="0px" y="0px" width="28px" height="32px"
	 viewBox="0 0 28 32" style="enable-background:new 0 0 28 32;" xml:space="preserve">
<path style="fill-rule:evenodd;clip-rule:evenodd;" d="M0,0v32h28V0 M27,0v31H1V0"/>
<path style="fill-rule:evenodd;clip-rule:evenodd;" d="M6,8h16c1.104,0,2,0.896,2,2v10c0,1.104-0.896,2-2,2H6c-1.104,0-2-0.896-2-2
	V10C4,8.896,4.896,8,6,8z M6.8,9h14.4c0.994,0,1.8,0.768,1.8,1.714v8.571C23,20.232,22.194,21,21.2,21H6.8
	C5.806,21,5,20.232,5,19.286v-8.571C5,9.768,5.806,9,6.8,9z"/>
<path style="fill-rule:evenodd;clip-rule:evenodd;" d="M6,18h6v2H6V18z"/>
<path style="fill-rule:evenodd;clip-rule:evenodd;" d="M4.5,10h19c0.276,0,0.5,0.224,0.5,0.5v2c0,0.276-0.224,0.5-0.5,0.5h-19
	C4.224,13,4,12.776,4,12.5v-2C4,10.224,4.224,10,4.5,10z"/>
</svg>
