<?xml version="1.0" encoding="iso-8859-1"?>
<!-- Generator: Adobe Illustrator 16.2.0, SVG Export Plug-In . SVG Version: 6.00 Build 0)  -->
<!DOCTYPE svg PUBLIC "-//W3C//DTD SVG 1.1//EN" "http://www.w3.org/Graphics/SVG/1.1/DTD/svg11.dtd">
<svg version="1.1" id="&#x421;&#x43B;&#x43E;&#x439;_1"
	 xmlns="http://www.w3.org/2000/svg" xmlns:xlink="http://www.w3.org/1999/xlink" x="0px" y="0px" width="2634px" height="1139px"
	 viewBox="0 0 2634 1139" style="enable-background:new 0 0 2634 1139;" xml:space="preserve">
<path d="M1207,389L1207,389c5,0,10,1,15,2s16,3,16-6c0-3-5-8-2-11c2-1,6-1,12,0c4,0,7,0,9-1c3-1,5-4,7-9
	c4-7,5-13,5-13s5-1,20,3c3,8,1,17-4,23c-1-1-4-2-6-1c-5,3-4,10-1,12s12,6,13,20c-10,5-13,5-21,16s-6,40-4,44c-8,20-33,30-59,31l0,0
	l0,0l0,0c-26-1-52-11-59-31c1-4,4-33-5-44c-8-11-11-11-21-16c1-14,11-18,13-20c3-2,5-9,0-12c-3-1-5,0-7,1c-5-6-6-15-3-23
	c14-4,19-3,19-3s2,6,5,13c3,5,4,8,8,9c2,1,5,1,8,1c7-1,11-1,12,0c3,3-2,8-2,11c0,9,11,7,16,6S1202,389,1207,389L1207,389L1207,389
	L1207,389L1207,389z M88,620c0-11,6-22,16-22h32c11,0,17,12,19,22l7,105c1,8,0,15-4,15s-6-5-7-9l-3-34h-7l2,86c10,0,26,7,29,18
	c9-7,27-11,40-11c7,0,15,1,23,2c7,3,15,5,19,9c2-11,13-19,21-19l-9-87h-8v33c0,5-3,12-7,12c-5,0-8-5-8-13l-16-226c-3-46,4-73,11-82
	c-8-5-13-15-13-22s4-16,13-21c-12-10-21-13-27-94L191,18c-7-2-13-8-16-18c-6,6-24,10-38,10c-6,0-15-1-23-3c-7-2-14-4-17-7
	c-2,9-8,16-17,18L59,282c-5,68-15,81-26,94c6,6,10,14,10,22s-6,16-11,21c7,11,15,28,11,81L28,728c0,4-1,11-7,11s-8-4-8-11v-33H6
	l-6,87c7,0,20,8,23,19c8-7,18-11,28-11c5,0,11,1,17,2c5,3,10,5,14,9c3-11,14-17,23-17v-91h-7l-2,37c-1,5-4,11-8,11s-7-5-7-13L88,620
	z M117,221c0-10,1-14,4-14s5,4,5,14l4,102c0,12-1,47-6,53c6,6,9,13,9,22c1,8-2,14-8,21c6,10,16,37,18,67c2,29-4,36-22,36
	c-16,0-22-8-21-36c2-27,12-59,20-67c-6-5-8-12-8-21c0-11,4-17,9-22c-5-6-9-33-9-53L117,221z M311,720c0,17-2,22-7,22c-4,0-8-2-8-10
	v-38h-7l-9,88c11,0,25,8,30,19c5-7,15-11,25-11c5,0,11,1,15,4c5,1,9,4,11,7c6-11,23-18,36-18l-8-89h-7v33c0,12-4,15-7,15
	c-4,0-8-2-8-15V507c0-50,4-74,11-84c-7-5-11-15-11-22c0-9,4-17,11-23c-6-6-11-27-11-56v-98h5l13,98c3,18,4,44-1,55c10,9,11,15,11,24
	c1,7-2,17-7,22c9,8,19,31,26,74l44,288c12,0,27,4,35,16c7-12,26-18,37-18l3-251c1-58,11-102,20-109c-9-5-14-15-14-22s1-15,12-23
	c-7-7-18-29-18-83V84c0-17,2-20,7-20s8,3,8,13v28h7l8-89c-11,0-24-9-26-16c-6,4-18,10-30,10c-5,0-11-2-16-4s-8-5-11-6
	c-4,6-20,16-33,16l9,92h8V80c0-13,5-17,8-17c4,0,8,1,8,12v303h-5L408,16c-12,2-28-8-33-16c-8,4-18,10-30,10c-6,0-12-2-17-4
	s-9-4-14-6c-7,8-21,15-35,15l10,91h7V75c0-10,3-14,8-14c6,0,7,2,7,17v216c0,61-6,73-17,84c7,7,11,17,11,24s-4,16-11,21
	c9,9,17,26,17,80V720z M737,497c0-47,6-68,15-74c-7-3-11-12-11-20c0-7,5-17,11-20c-6-6-15-27-15-74V77c0-19,5-24,14-24
	c10,0,15,5,15,24v96c0,40-3,46-8,57c27,11,34,25,34,87h7c0-55,6-75,34-87c-5-6-12-21-12-57V19c-10,0-24-10-29-19c-5,6-17,10-27,10
	c-4,0-9-1-14-3c-4-2-8-5-11-7c-7,6-24,10-47,10c-9,0-18-1-25-3s-13-4-17-7c-5,5-16,10-26,10c-4,0-9-1-14-3s-9-4-12-7
	c-5,9-19,19-29,19v154c0,36-7,51-12,57c28,12,34,32,34,87h7c0-62,7-76,34-87c-6-11-9-17-9-57V77c0-19,6-24,16-24c9,0,14,5,14,24v232
	c0,47-8,66-17,75c7,5,11,14,11,21s-4,16-10,20c9,8,16,32,16,72v230c0,5,0,11-4,11s-7-3-7-11v-28h-8l-11,83c9,0,29,9,33,19
	c8-7,26-11,39-11c7,0,16,1,23,2c8,3,16,5,20,9c5-10,19-20,28-20l-6-84h-9v28c0,7-1,12-6,12s-9-3-9-13V497z M946,503c0-58,0-72,16-72
	c6,0,14,6,14,16c0,8-1,13-4,20s-6,16-6,27c0,19,13,29,25,27c-4-5-6-12-6-18c0-7,6-13,19-26c7-8,12-17,12-29c0-15-7-25-17-34l23-17
	l-22-20c11-7,16-18,16-29s-7-23-12-29c-10-10-14-16-14-23c0-6,1-11,4-16c-9-1-26,11-26,28c0,8,2,17,4,23c2,5,4,8,4,17
	c0,6-5,15-12,15c-11,0-18-4-18-50V105c0-41,10-53,27-53c19,0,27,16,27,52v64c0,35-3,48-10,57c28,13,35,29,35,86h8c0-59,5-73,32-86
	c-6-11-7-29-7-56V69c0-30,3-45,9-50c-10-1-23-11-26-19c-6,5-16,10-23,10c-12,0-20-4-28-6s-16-4-28-4c-7,0-14,1-23,4s-20,6-36,6
	c-7,0-16-1-23-3s-12-4-16-7c-7,10-18,18-31,19l9,90h8V74c1-8,3-11,8-11c4,0,5,3,5,11v216c0,48-9,74-18,84c7,6,12,14,12,21
	s-5,16-12,20c7,11,18,36,18,104v200c0,12-2,16-7,16s-6-4-6-17v-33h-9l-9,94c10,2,26,12,30,22c7-7,16-11,25-11c12,0,23,2,33,5
	c10,2,20,6,32,6c15,0,23-3,31-5c7-2,15-6,28-6c6,0,11,1,16,2c5,2,9,4,13,6c3-7,19-16,27-18c-7-9-9-15-9-66v-93c0-26,4-46,11-55
	c-28-14-34-19-34-88h-7c0,65-8,74-35,86c6,12,7,33,7,57v75c0,46-6,53-25,53c-21,0-29-7-29-32V503z M1343,103h8V73c0-15,3-18,8-18
	s5,2,5,16v220c0,47-7,69-18,77c8,8,13,15,13,23c0,10-6,19-13,23c10,11,18,29,18,93v211c0,11-1,18-6,18c-4,0-7-4-7-13v-36h-6l-10,93
	c9,0,26,11,30,21c8-6,24-11,39-11c7,0,16,1,23,4c8,1,16,4,20,7c4-9,17-19,29-19l-9-88h-7v33c0,10-3,12-6,12c-5,0-6-3-6-14V513l22-79
	h2l42,287c2,13,2,16-2,18c-5,2-9,0-12-10l-8-34h-6l7,88c13-1,29,8,35,18c8-7,28-11,41-11c7,0,15,1,23,4c7,2,14,4,17,7
	c4-7,15-19,23-19l-16-84h-6v35c0,7-1,10-4,10c-4,0-7-3-8-12l-35-246c-6-37,0-55,8-64c-8-5-14-9-17-20c-2-7,2-20,11-25
	c-21-28-29-61-32-94l61-203c3-13,7-15,11-14s5,5,3,11l-8,32h8l30-93c-11,0-25-9-30-15c-5,4-16,10-25,10c-4,0-9-2-14-4c-4-2-8-4-11-6
	c-4,7-20,15-34,15l-20,91l7,2l11-38c3-9,7-10,11-8s4,7,2,15l-84,278h-3V85c0-14,3-21,8-21c4,0,7,4,7,11l2,31h6l10-91
	c-10,1-24-7-27-15c-9,6-31,10-44,10c-7,0-15-1-23-3c-7-2-13-4-17-7c-5,7-23,15-34,15L1343,103z M1662,300c0,57-8,68-18,79
	c8,4,13,12,13,20c0,7-5,14-13,20c8,10,18,27,18,70v220c0,61,58,93,83,92c5-10,16-11,30-11c7,0,13,0,19,2c5,2,9,5,12,9
	c26,1,82-34,82-130V506c0-59,8-82,18-92c-10-6-13-13-13-20c0-8,5-18,13-23c-11-12-18-19-18-89V92c0-74-56-92-79-92c-4,6-17,10-32,10
	c-7,0-15-1-21-3c-5-2-10-4-12-7c-42,0-82,47-82,104V300z M1747,87c0-26,8-37,29-37s27,12,27,36v206c0,40-3,70-17,83c8,5,13,14,13,22
	c0,7-6,15-13,21c9,9,17,24,17,92v199c0,31-10,39-28,39c-19,0-28-10-28-39V516c0-51,4-84,16-95c-9-8-13-16-13-24c0-9,4-18,13-23
	c-8-9-16-22-16-83V87z M1979,780c7,0,19,11,22,21c6-7,14-11,29-11c8,0,15,1,20,2c6,3,10,5,13,9c3-11,15-22,23-22l27-290
	c4-45,14-61,23-67c-9-6-15-15-15-23c0-9,6-16,13-21c-7-8-10-28-6-74l18-227c1-7,2-10,4-10c3,0,5,3,5,10v33h9l11-91c-8,0-23-8-27-19
	c-6,7-19,10-31,10c-6,0-12-1-18-3s-11-4-14-7c-4,10-18,18-27,18v94h10l4-34c1-9,4-12,7-12c6,0,6,6,5,19l-18,231c-2,24-7,47-15,60
	c5,7,9,15,9,24c0,8-3,14-10,22c3,5,6,14,5,39l-4,105h-7l-4-103c-1-20,2-35,7-41c-6-6-11-15-11-22c0-8,5-18,12-24c-10-11-19-33-21-85
	l-10-210c0-9,1-13,3-13c3,0,5,3,6,13l3,31h8V18c-15,0-25-8-28-18c-6,7-25,10-42,10c-9,0-17-1-25-3c-7-2-12-4-16-7c-3,9-16,21-29,21
	l15,92h8V74c0-5,3-8,6-8c4,0,7,2,8,18l14,249c2,30-5,42-13,51c8,5,12,11,12,18s-4,16-10,20c10,10,21,22,27,116L1979,780z M2232,620
	c0-11,6-22,16-22h32c10,0,16,12,18,22l7,105c1,8,0,15-4,15s-6-5-7-9l-3-34h-6l2,86c9,0,25,7,28,18c9-7,27-11,41-11c7,0,15,1,23,2
	c7,3,15,5,19,9c2-11,13-19,21-19l-9-87h-8v33c0,5-3,12-7,12c-5,0-8-5-8-13l-16-226c-3-46,4-73,11-82c-8-5-13-15-13-22s4-16,13-21
	c-12-10-21-13-27-94l-21-264c-7-2-13-8-16-18c-6,6-24,10-37,10c-6,0-15-1-23-3c-7-2-14-4-17-7c-2,9-8,16-17,18l-22,264
	c-5,68-15,81-26,94c6,6,10,14,10,22s-6,16-11,21c7,11,15,28,11,81l-15,228c0,4-1,11-7,11s-8-4-8-11v-33h-7l-5,87c6,0,19,8,22,19
	c8-7,18-11,28-11c5,0,11,1,17,2c6,3,11,5,15,9c3-11,14-17,23-17v-91h-7l-2,37c-1,5-4,11-8,11s-7-5-7-13L2232,620z M2261,221
	c0-10,1-14,4-14s5,4,5,14l4,102c0,12-1,47-6,53c6,6,9,13,9,22c1,8-2,14-8,21c6,10,16,37,18,67c1,29-4,36-22,36c-16,0-22-8-21-36
	c2-27,12-59,20-67c-6-5-8-12-8-21c0-11,4-17,9-22c-5-6-9-33-9-53L2261,221z M2519,96c0-26,6-42,24-42c21,0,25,18,25,42v75
	c0,20-3,44-8,58c20,9,33,19,33,79h8c0-54,7-70,33-78c-6-7-11-24-11-59V88c0-30,4-56,9-64c-11,0-22-6-25-18c-5,5-9,8-19,8
	c-9,0-19-4-27-8c-9-4-20-6-31-6c-49,0-92,24-92,143v149c0,45-5,73-15,83c8,6,12,16,12,23s-3,16-12,24c11,13,15,47,15,95v159
	c0,95,36,125,97,125c69,0,92-43,92-114v-76c0-29,2-39,7-46c-25-13-34-23-34-86h-7c0,69-8,74-32,86c4,6,7,20,7,46v99c0,27-8,39-24,39
	s-26-12-26-39V517c0-51,4-84,16-95c-9-8-13-16-13-24c0-9,4-18,13-23c-8-9-16-22-16-83L2519,96z M1230,320c5,5,8,12,11,23
	c0,4,1,7,1,11c20-8,24-4,24-6c0-42-30-66-59-66l0,0l0,0l0,0l0,0c-30,0-59,24-59,66c0,2,3-2,23,6c1-4,1-7,2-11c2-11,6-18,11-23
	c6-7,14-11,23-11C1215,309,1223,313,1230,320z M1207,503c26,0,53-11,62-34c-3-14-2-25,0-34c2-12,13-20,21-23c-5,9-23,37-1,65
	c-18,36-50,52-82,53l0,0l0,0l0,0l0,0l0,0c-33-1-65-17-82-53c22-28,4-56-1-65c8,3,18,11,21,23c2,9,2,20,0,34
	C1154,492,1180,503,1207,503L1207,503z M1224,388c8,1,10,0,11-1c1-2-2-6-2-10c-1-8,7-6,14-5c3,0,6,0,9-1c2-1,5-4,6-8c3-5,4-12,4-12
	c-7-1-14,3-24,6c-6,2-12,3-18,4c-5,0-11,0-17,0s-12,0-17,0c-6-1-13-2-19-4c-9-3-17-7-24-6c0,0,2,7,4,12c2,4,4,7,7,8c2,1,5,1,8,1
	c8-1,15-3,15,5c-1,4-3,8-2,10c0,1,3,2,10,1c6-1,12-1,18-1C1212,387,1218,387,1224,388z M1207,457v-1c3,0,3-1,4-2c0-2-1-4-1-7
	s1-4,2-5c2-2,0-3,0-4c-2-1-2-2-1-4c2-1,4-3,4-7c0-5-4-8-8-9c-5,1-8,4-8,9c0,4,2,6,3,7c2,2,1,3,0,4s-2,2-1,4c1,1,2,2,2,5c1,3-1,5,0,7
	c0,1,1,2,3,2L1207,457z M1207,499L1207,499L1207,499L1207,499"/>
<path id="city" d="M957,1138v-113h22l27,80c3,7,4,13,6,16c1-4,3-10,6-18l27-78h20v113h-15v-95l-33,95h-13l-33-97v97H957
	z M1084,1082c0-18,5-33,15-44c10-10,23-15,39-15c11,0,20,2,29,7c8,5,14,12,19,21c4,9,6,19,6,30c0,12-2,22-7,31c-4,9-11,16-19,20
	c-9,5-18,7-28,7s-20-2-28-7c-9-5-15-12-19-21C1086,1102,1084,1092,1084,1082z M1100,1083c0,13,3,24,11,32c7,8,16,12,27,12
	c12,0,21-4,28-12s11-19,11-34c0-9-2-17-5-24s-7-12-13-16s-13-6-20-6c-11,0-20,4-28,11C1104,1054,1100,1066,1100,1083z M1207,1101
	l14-1c0,6,2,10,4,14c3,4,7,6,12,9c5,2,11,3,17,3s11-1,15-3c5-1,8-4,10-6c2-3,3-7,3-10c0-4-1-7-3-9c-2-3-5-5-10-7c-3-1-10-3-20-6
	c-11-2-18-4-22-7c-5-3-10-6-12-10c-3-4-4-9-4-14c0-6,1-11,5-16c3-5,8-9,14-12c6-2,13-3,21-3s15,1,22,4c6,2,11,6,15,12c3,5,5,11,5,17
	l-14,1c-1-7-4-12-8-16c-4-3-11-5-20-5s-15,1-20,5c-4,3-6,7-6,12c0,4,2,7,5,10c3,2,10,5,22,8s21,5,25,7c7,3,12,7,15,12c3,4,5,10,5,16
	s-2,11-6,17c-3,5-8,9-14,12c-7,3-14,4-22,4c-10,0-19-1-26-4s-12-7-16-13S1207,1109,1207,1101z M1398,1098l15,4c-4,12-9,21-17,28
	c-9,6-18,9-30,9s-22-2-30-7s-13-12-17-22c-4-9-6-19-6-30c0-12,2-22,6-31c5-8,11-15,20-20c8-4,17-6,27-6c11,0,21,2,29,8
	c7,6,13,14,16,25l-15,3c-3-8-7-14-12-18c-4-4-11-6-18-6c-9,0-16,2-22,7c-6,4-10,9-12,16c-3,7-4,15-4,22c0,10,1,18,4,25s7,13,13,16
	c6,4,13,6,20,6c8,0,15-3,21-8C1392,1115,1396,1107,1398,1098z M1426,1082c0-18,5-33,16-44c10-10,23-15,39-15c10,0,19,2,28,7
	c8,5,15,12,19,21s6,19,6,30c0,12-2,22-6,31c-5,9-12,16-20,20c-9,5-18,7-28,7s-20-2-28-7s-15-12-19-21S1426,1092,1426,1082z
	 M1442,1083c0,13,3,24,11,32c7,8,16,12,27,12c12,0,21-4,28-12s11-19,11-34c0-9-1-17-5-24c-3-7-7-12-13-16s-13-6-20-6
	c-11,0-20,4-28,11C1446,1054,1442,1066,1442,1083z M1574,1138l-30-113h15l17,74c2,7,3,15,5,23c3-12,4-19,5-21l21-76h18l17,57
	c4,14,7,27,8,40c2-7,4-16,6-25l18-72h15l-31,113h-15l-23-87c-2-7-4-11-4-13c-1,5-2,10-3,13l-24,87H1574z"/>
</svg>
