<?xml version="1.0" encoding="utf-8"?>
<!-- Generator: Adobe Illustrator 19.0.0, SVG Export Plug-In . SVG Version: 6.00 Build 0)  -->
<svg version="1.1" id="Layer_1" xmlns="http://www.w3.org/2000/svg" xmlns:xlink="http://www.w3.org/1999/xlink" x="0px" y="0px"
	 viewBox="0 0 90 90" style="enable-background:new 0 0 90 90;" xml:space="preserve">
<path d="M83.3,62.8c-5.2-4.2-9.2-6.1-12.7-6.1c-4.2,0-7,2.8-9.9,5.8l-1,1c-0.4,0.4-0.9,0.6-1.5,0.6
	c-2.4,0-7.7-2.3-18.8-13.5C24,35.2,25.6,31.1,26.5,30.2l0.9-0.9c5.4-5.3,10-9.8-0.3-22.6C23.6,2.2,20,0,16.4,0
	c-4.9,0-8.7,3.9-12,7.4C3.9,8,3.3,8.6,2.8,9.1c-3.7,3.7-3.7,11.9,0,21.8c4.1,10.9,12.2,22.8,22.9,33.4c19,19,37,25.7,46.6,25.7
	c3.8,0,6.7-1,8.5-2.8c0.5-0.5,1.1-1.1,1.7-1.6c3.6-3.4,7.6-7.3,7.4-12.3C89.8,69.7,87.7,66.3,83.3,62.8z M80.5,83.4
	c-0.6,0.6-1.2,1.1-1.8,1.7c-1.2,1.3-3.5,1.9-6.4,1.9c-9.1,0-26.2-6.5-44.5-24.8C17.5,51.8,9.6,40.3,5.6,29.8
	C2.4,21.3,2.2,14,4.9,11.3c0.6-0.6,1.1-1.1,1.7-1.8c2.9-3,6.2-6.5,9.8-6.5c2.6,0,5.5,1.9,8.4,5.5c8.6,10.7,5.5,13.6,0.5,18.6l-1,1
	c-4,4,0.1,11.8,12.9,24.7c9.7,9.7,16.5,14.4,21,14.4l0,0c1.5,0,2.7-0.5,3.7-1.5l1-1c2.7-2.7,4.8-4.9,7.8-4.9c2.7,0,6.2,1.8,10.8,5.4
	c3.6,2.9,5.4,5.6,5.5,8.2C87.1,77.1,83.6,80.4,80.5,83.4z"/>
</svg>
