<?xml version="1.0" encoding="iso-8859-1"?>
<!-- Generator: Adobe Illustrator 16.2.0, SVG Export Plug-In . SVG Version: 6.00 Build 0)  -->
<!DOCTYPE svg PUBLIC "-//W3C//DTD SVG 1.1//EN" "http://www.w3.org/Graphics/SVG/1.1/DTD/svg11.dtd">
<svg version="1.1" id="print" xmlns="http://www.w3.org/2000/svg" xmlns:xlink="http://www.w3.org/1999/xlink" x="0px" y="0px"
	 width="31px" height="21px" viewBox="0 0 31 21" style="enable-background:new 0 0 31 21;" xml:space="preserve">
<path style="fill-rule:evenodd;clip-rule:evenodd;" d="M0,0h31v13H0V0z M1,1h29v11H1V1z"/>
<path style="fill-rule:evenodd;clip-rule:evenodd;" d="M6,13h20v8H6V13z M7,13h18v7H7V13z"/>
<path style="fill-rule:evenodd;clip-rule:evenodd;" d="M4,1h24v3H4V1z M5,1h22v2H5V1z"/>
<path style="fill-rule:evenodd;clip-rule:evenodd;" d="M9,14h14v1H9V14z"/>
<path style="fill-rule:evenodd;clip-rule:evenodd;" d="M9,16h14v1H9V16z"/>
<path style="fill-rule:evenodd;clip-rule:evenodd;" d="M23,18h1v1h-1V18z"/>
<path style="fill-rule:evenodd;clip-rule:evenodd;" d="M1,3h1v1H1V3z"/>
<path style="fill-rule:evenodd;clip-rule:evenodd;" d="M1,5h1v1H1V5z"/>
</svg>
