<svg width="21.992186" height="23.683594" viewBox="0 0 21.992187 23.683594">
	<path style="fill:#a7865d;" d="M 10.980469,0 C 7.7928395,0 5.1992185,2.5936213 5.1992185,5.78125 c 0,2.286924 1.337984,4.262196 3.269532,5.199219 C 3.6141655,12.095185 0,16.335904 0,21.4375 l 0,2.246093 21.992187,0 0,-2.246093 c 0,-5.10857 -3.623656,-9.355245 -8.488281,-10.462891 1.925201,-0.93935 3.257812,-2.9110817 3.257812,-5.193359 C 16.761718,2.5936213 14.168098,0 10.980469,0 Z m 0,0.8886719 c 2.706949,0 4.892578,2.1856294 4.892578,4.8925781 0,2.7069488 -2.185629,4.892578 -4.892578,4.892578 -2.7069495,0 -4.8925785,-2.1856292 -4.8925785,-4.892578 0,-2.7069487 2.185629,-4.8925781 4.8925785,-4.8925781 z m 0.01563,10.8300781 c 5.533544,0 9.960937,4.33203 9.960937,9.71875 l 0,1.210937 -19.9199216,0 0,-1.210937 c 0,-5.386721 4.4254411,-9.71875 9.9589846,-9.71875 z"/>
</svg>