<!DOCTYPE svg PUBLIC "-//W3C//DTD SVG 1.1//EN" "http://www.w3.org/Graphics/SVG/1.1/DTD/svg11.dtd">
<svg version="1.1" id="&#x421;&#x43B;&#x43E;&#x439;_1"
	 xmlns="http://www.w3.org/2000/svg" xmlns:xlink="http://www.w3.org/1999/xlink" x="0px" y="0px" width="9.373px"
	 height="23.269px" viewBox="0 0 9.373 23.269" style="enable-background:new 0 0 9.373 23.269;" xml:space="preserve">
<path d="M4.687,0C1.122,0,0,2.905,0,6.007v1.089h0.33V6.007c0-2.904,0.99-5.709,4.356-5.709
	c3.433,0,4.356,2.673,4.356,5.644c0,4.522-5.083,5.941-5.116,10.958c0,0.396,0.066,0.792,0.165,1.188h0.33
	c-0.099-0.363-0.165-0.825-0.165-1.188c0-4.852,5.116-6.271,5.116-10.958C9.373,2.772,8.317,0,4.687,0z M4.06,20.727v2.542h0.33
	v-2.542H4.06z"/>
</svg>
