<svg width="21.779259" height="25.664024" viewBox="0 0 21.77926 25.664025">
	<path style="fill:#a7865d;" d="M 9.59375,-9.5367437e-7 C 4.300778,-9.5367437e-7 0,4.3027301 0,9.5957021 c 0,5.2929719 4.300778,9.5937499 9.59375,9.5937499 1.799244,0 3.477988,-0.505167 4.917969,-1.369141 l 0.748047,0.94336 c -0.249754,0.502113 -0.214644,1.125657 0.15039,1.59375 l 3.689453,4.732422 c 0.505704,0.648477 1.45699,0.76547 2.105469,0.259765 0.648478,-0.505704 0.76547,-1.45699 0.259766,-2.105469 L 17.775391,18.513671 C 17.421509,18.059879 16.850171,17.87095 16.316406,17.968749 L 15.599609,17.066405 C 17.784435,15.306953 19.1875,12.615033 19.1875,9.5957021 19.1875,4.3027301 14.886722,-9.5367437e-7 9.59375,-9.5367437e-7 Z m 0,1.00000000367437 c 4.752532,0 8.59375,3.84317105 8.59375,8.59570305 0,4.7525319 -3.841218,8.5937499 -8.59375,8.5937499 C 4.841218,18.189452 1,14.348234 1,9.5957021 1,4.8431701 4.841218,0.99999905 9.59375,0.99999905 Z m 5.671875,16.50195295 0.466797,0.589844 -0.210938,0.144531 -0.46875,-0.591797 0.212891,-0.142578 z m 1.388672,1.431641 c 0.125325,0.0155 0.244202,0.08269 0.332031,0.195312 l 3.689453,4.730469 c 0.175659,0.225252 0.139316,0.525513 -0.08594,0.701172 -0.225252,0.175659 -0.527466,0.139316 -0.703125,-0.08594 l -3.689453,-4.732422 c -0.175659,-0.225252 -0.137364,-0.525512 0.08789,-0.701172 0.112626,-0.08783 0.243815,-0.122925 0.369141,-0.107421 z"/>
</svg>