<?xml version="1.0" encoding="iso-8859-1"?>
<!-- Generator: Adobe Illustrator 16.2.0, SVG Export Plug-In . SVG Version: 6.00 Build 0)  -->
<!DOCTYPE svg PUBLIC "-//W3C//DTD SVG 1.1//EN" "http://www.w3.org/Graphics/SVG/1.1/DTD/svg11.dtd">
<svg version="1.1" id="&#x421;&#x43B;&#x43E;&#x439;_1"
	 xmlns="http://www.w3.org/2000/svg" xmlns:xlink="http://www.w3.org/1999/xlink" x="0px" y="0px" width="28px" height="32px"
	 viewBox="0 0 28 32" style="enable-background:new 0 0 28 32;" xml:space="preserve">
<polyline style="fill-rule:evenodd;clip-rule:evenodd;" points="27,0 27,31 1,31 1,0 0,0 0,32 28,32 28,0 "/>
<path style="fill-rule:evenodd;clip-rule:evenodd;" d="M8,19c1.657,0,3,1.343,3,3s-1.343,3-3,3s-3-1.343-3-3S6.343,19,8,19z M8,20
	c1.104,0,2,0.896,2,2s-0.896,2-2,2s-2-0.896-2-2S6.896,20,8,20z"/>
<path style="fill-rule:evenodd;clip-rule:evenodd;" d="M20.792,13c1.657,0,3,1.343,3,3s-1.343,3-3,3s-3-1.343-3-3
	S19.135,13,20.792,13z M20.792,14c1.104,0,2,0.896,2,2s-0.896,2-2,2s-2-0.896-2-2S19.687,14,20.792,14z"/>
<path style="fill-rule:evenodd;clip-rule:evenodd;" d="M10,7c1.657,0,3,1.343,3,3s-1.343,3-3,3s-3-1.343-3-3S8.343,7,10,7z M10,8
	c1.104,0,2,0.896,2,2s-0.896,2-2,2s-2-0.896-2-2S8.896,8,10,8z"/>
<path style="fill-rule:evenodd;clip-rule:evenodd;" d="M10.148,20.749l8.324-3.423l0.38,0.925l-8.324,3.423L10.148,20.749z"/>
<path style="fill-rule:evenodd;clip-rule:evenodd;" d="M12.644,10.416l6.182,3.284l-0.469,0.883l-6.182-3.284L12.644,10.416z"/>
</svg>
