<svg width="23.464842" height="33.779297" viewBox="0 0 23.464843 33.779298">
	<path d="M 11.857422,0 C 10.119825,0 8.5623699,0.93137282 7.4667969,2.3808594 6.3712239,3.8303457 5.7128907,5.8038336 5.7128907,7.9804687 l 0,4.0703133 C 5.1336236,11.477104 4.6872803,10.832419 4.4550781,10.128907 L 4.2636719,9.5488281 3.7207031,9.8300781 C 2.3067282,10.562242 1.1225109,11.613777 0.2539063,12.873047 L 0,13.242188 0.3242188,13.548829 c 1.7177588,1.618752 2.8737935,4.81891 2.875,8.304687 -0.00296,3.126648 -0.9296597,6.051122 -2.3925781,7.785156 l -0.2851563,0.335938 0.2851563,0.335937 c 1.8001188,2.117776 4.5901232,3.46875 7.7265622,3.46875 l 6.2460941,0 c 3.34668,0 6.300896,-1.533763 8.076172,-3.902344 L 23.091797,29.5625 22.853516,29.248047 c -1.345634,-1.762576 -2.177087,-4.555396 -2.179688,-7.519531 0.0016,-3.229514 0.991167,-6.237196 2.527344,-7.947266 l 0.263672,-0.292968 -0.210938,-0.332032 c -0.807523,-1.275379 -1.94559,-2.333523 -3.289062,-3.107421 L 19.435547,9.7441406 19.21875,10.314453 C 18.971707,10.961282 18.54368,11.55371 18,12.083985 L 18,7.9804687 C 18,5.8038336 17.341667,3.8303456 16.246094,2.3808594 15.150521,0.93137282 13.595019,0 11.857422,0 Z m 0,0.91601562 c 1.412292,0 2.698388,0.74770478 3.658203,2.01757808 0.959815,1.2698734 1.56836,3.056082 1.56836,5.046875 l 0,4.8437503 c -1.371408,0.93203 -3.203986,1.521442 -5.214844,1.523438 -2.0298371,-0.0019 -3.8686591,-0.601677 -5.2402347,-1.544922 l 0,-4.8222663 c 0,-1.990793 0.6104968,-3.7770016 1.5703126,-5.046875 C 9.1590339,1.6637204 10.44513,0.91601562 11.857422,0.91601562 Z M 3.7988281,11.029297 c 1.2326817,2.625904 4.4157578,4.355998 8.0683599,4.359375 l 0.002,0 c 3.519618,-0.0028 6.609493,-1.612803 7.939453,-4.095703 0.938478,0.613334 1.765758,1.349662 2.373047,2.240234 -1.592542,2.003698 -2.547262,4.961617 -2.548828,8.195313 0.0026,2.959823 0.811207,5.702188 2.173828,7.701172 -1.588573,1.974603 -4.105599,3.308594 -7.027344,3.308594 l -6.2460941,0 c -2.717265,0 -5.0775367,-1.164226 -6.6796872,-2.910157 1.4898603,-2.004916 2.3837762,-4.861337 2.3867187,-7.974609 -0.00121,-3.492498 -1.0636909,-6.695467 -2.8828125,-8.664063 0.6523686,-0.86106 1.4775949,-1.589774 2.4414062,-2.160156 z m 7.2421879,10.753906 0,2 2,0 0,-2 -2,0 z"/>
</svg>