<svg version="1.1" id="yt" xmlns="http://www.w3.org/2000/svg" xmlns:xlink="http://www.w3.org/1999/xlink" x="0px" y="0px"
	 width="28px" height="26.083px" viewBox="0 2.917 28 26.083" enable-background="new 0 2.917 28 26.083" xml:space="preserve">
<path d="M27.761,10.713c-0.155-1.864-1.267-4.214-3.551-4.298c-6.378-0.429-13.933-0.546-20.425,0
	c-2.015,0.226-3.396,2.68-3.546,4.543c-0.318,3.915-0.318,6.143,0,10.057c0.152,1.864,1.498,4.332,3.549,4.592
	c6.57,0.428,14.089,0.489,20.425,0c1.988-0.346,3.397-2.728,3.55-4.592C28.08,17.1,28.08,14.628,27.761,10.713z M10.498,20.953
	V10.917l8.75,5.019L10.498,20.953z"/>
</svg>
