<svg xmlns="http://www.w3.org/2000/svg" xmlns:xlink="http://www.w3.org/1999/xlink" preserveAspectRatio="xMidYMid" width="16" height="19" viewBox="0 0 16 19">
  <path d="M15.278,18.250 C14.946,18.654 14.322,18.552 13.886,18.022 C13.886,18.022 11.251,14.821 11.251,14.821 C10.815,14.291 10.730,13.534 11.063,13.130 C11.396,12.726 12.019,12.828 12.456,13.359 C12.456,13.359 15.090,16.559 15.090,16.559 C15.527,17.089 15.611,17.846 15.278,18.250 ZM7.406,14.000 C3.592,14.000 0.500,10.978 0.500,7.250 C0.500,3.522 3.592,0.500 7.406,0.500 C11.221,0.500 14.313,3.522 14.313,7.250 C14.313,10.978 11.221,14.000 7.406,14.000 Z" id="path-1"/>
</svg>
