<svg xmlns="http://www.w3.org/2000/svg" xmlns:xlink="http://www.w3.org/1999/xlink" preserveAspectRatio="xMidYMid" width="18" height="12" viewBox="0 0 18 12">
  <defs>
    <style>

      .cls-2 {
        fill: #b59063;
      }
    </style>
  </defs>
  <path d="M17.000,5.381 C17.000,5.381 17.134,5.562 17.134,5.562 C17.134,5.562 17.000,5.744 17.000,5.744 C17.000,5.744 17.000,6.062 17.000,6.062 C17.000,6.062 16.765,6.062 16.765,6.062 C16.765,6.062 13.027,11.134 13.027,11.134 C13.027,11.134 13.027,6.062 13.027,6.062 C13.027,6.062 -0.000,6.062 -0.000,6.062 C-0.000,6.062 -0.000,5.062 -0.000,5.062 C-0.000,5.062 13.027,5.062 13.027,5.062 C13.027,5.062 13.027,-0.009 13.027,-0.009 C13.027,-0.009 16.765,5.062 16.765,5.062 C16.765,5.062 17.000,5.062 17.000,5.062 C17.000,5.062 17.000,5.381 17.000,5.381 Z" id="path-1" class="cls-2" fill-rule="evenodd"/>
</svg>
