<svg version="1.1" id="reset" xmlns="http://www.w3.org/2000/svg" xmlns:xlink="http://www.w3.org/1999/xlink" x="0px" y="0px"
	 width="22.012px" height="20px" viewBox="0 0 22.012 20" style="enable-background:new 0 0 22.012 20;" xml:space="preserve">
<g>
	<defs>
		<path id="SVGID_1_" d="M22.012,20h-10V0h10V20z M2.012,0h10v10h-10V0z"/>
	</defs>
	<clipPath id="SVGID_2_">
		<use xlink:href="#SVGID_1_"  style="overflow:visible;"/>
	</clipPath>
	<path style="clip-path:url(#SVGID_2_);fill-rule:evenodd;clip-rule:evenodd;" d="M12.512,0c5.247,0,9.5,4.253,9.5,9.5
		s-4.253,9.5-9.5,9.5s-9.5-4.253-9.5-9.5S7.265,0,12.512,0z M12.512,1c4.694,0,8.5,3.806,8.5,8.5s-3.806,8.5-8.5,8.5
		s-8.5-3.806-8.5-8.5S7.817,1,12.512,1z"/>
	<rect x="2.012" style="clip-path:url(#SVGID_2_);fill-rule:evenodd;clip-rule:evenodd;fill:none;" width="20" height="20"/>
</g>
<path style="fill-rule:evenodd;clip-rule:evenodd;" d="M0,6.712l0.775-0.388l2.578,5.119l-0.075,1.713L0,6.712z M7.635,7.029
	L6.834,6.54l-3.481,4.903l-0.075,1.713L7.635,7.029z"/>
</svg>
