<svg xmlns="http://www.w3.org/2000/svg" xmlns:xlink="http://www.w3.org/1999/xlink"><symbol viewBox="0 0 27.0023 32.019444" id="about-brand"><path d="M0 .033V32.02h27.002V.033h-1.008v30.98H1.008V.032zm13.533 6.893c-1.948 0-3.523 1.614-3.523 3.586v1.584a2.463 2.463 0 0 1-.434-.762l-.183-.56-.522.273a5.616 5.616 0 0 0-2.038 1.803l-.24.35.308.294c.91.865 1.564 2.647 1.565 4.594-.002 1.746-.524 3.38-1.31 4.316l-.268.323.27.32c1.06 1.255 2.698 2.053 4.534 2.053h3.54c1.958 0 3.694-.906 4.74-2.31l.22-.302-.225-.3c-.725-.956-1.192-2.515-1.194-4.17.002-1.804.56-3.48 1.382-4.403l.25-.28-.2-.317a5.576 5.576 0 0 0-1.932-1.844l-.51-.295-.21.55a2.56 2.56 0 0 1-.493.783v-1.7c0-1.973-1.575-3.587-3.524-3.587zm0 .98c1.412 0 2.543 1.148 2.543 2.606v2.47c-.01.007-.024.012-.035.018-.686.37-1.537.6-2.46.602-.983 0-1.884-.26-2.59-.672v-2.418c0-1.458 1.13-2.606 2.543-2.606zm-4.56 4.344c.44.614.864 1.082 1.26 1.514.93.597 2.087.914 3.283.916 1.212-.002 2.384-.327 3.318-.94.46-.362.934-.95 1.285-1.367.4.292.773.612 1.052 1.002-.874 1.19-1.4 2.832-1.4 4.643 0 1.653.448 3.173 1.19 4.345a4.848 4.848 0 0 1-3.733 1.737h-3.54a4.872 4.872 0 0 1-3.526-1.514c.81-1.183 1.3-2.76 1.3-4.496v-.002c0-1.944-.603-3.676-1.595-4.86.3-.387.684-.7 1.103-.978zm4.025 5.775v.985h1.008v-.985z"/></symbol><symbol preserveAspectRatio="xMidYMid" viewBox="0 0 43 30" id="architekt"><defs><style>.abcls-2{fill:#fff}</style></defs><path d="M0 30v-2h43v2H0zm3-6h36v2H3v-2zm5-2V6H5V4h32v2h-3v16h-4V6h-7v16h-4V6h-7v16H8zM3 0h36v2H3V0z" id="abpath-1" class="abcls-2" fill-rule="evenodd"/></symbol><symbol viewBox="0 0 21.004 21.002" id="arr-diagonal"><path fill-rule="evenodd" clip-rule="evenodd" d="M13.116 5.005l-11.49-3.38 3.376 11.47-.878.883L0 0l14.013 4.114"/><path d="M20.12 18.502L8.844 7.226l.884-.884 11.276 11.276-.884.884zM17.62 21.002L6.345 9.726l.884-.884 11.276 11.276-.883.884z" fill-rule="evenodd" clip-rule="evenodd"/></symbol><symbol preserveAspectRatio="xMidYMid" viewBox="0 0 12 25" id="arrow"><defs><style>.adcls-2{stroke-linecap:round;stroke-linejoin:round;stroke-width:2px;fill:none}</style></defs><path d="M1.993 1.974l9.077 11.658-9.077 10.825" id="adpath-1" class="adcls-2" fill-rule="evenodd"/></symbol><symbol preserveAspectRatio="xMidYMid" viewBox="0 0 19 14" id="arrow-right"><path d="M18.036 6.703l-6.364 6.364-.708-.707 5.33-5.33H0v-1h16.293L10.963.704l.71-.707 6.363 6.364-.172.17.172.173z"/></symbol><symbol preserveAspectRatio="xMidYMid" viewBox="0 0 26.163 50.163" id="arrow-thin"><path d="M0 25.082L24.75 0l1.413 1.414-24.75 25.082L0 25.082zm2.832 0l23.33 23.667-1.413 1.413L1.416 26.496l1.415-1.414z" fill-rule="evenodd" clip-rule="evenodd"/></symbol><symbol viewBox="0 0 29.53993 26" id="art-lab"><path d="M13.893 0l-.082.03C6.058.572.004 6.025 0 12.665c0 7.052 6.79 12.688 15.063 12.688 6.658-.005 12.555-3.68 14.445-9.122l.023-.068.003-.07c.003-.018.006-.01.006-.053 0-.535-.07-1.578-.835-2.593-.766-1.015-2.198-1.97-4.775-2.486-1.243-.248-2.14-.46-2.79-.726-.652-.264-1.05-.56-1.402-1.04-.702-.962-1.158-2.797-2.16-6.305-.23-.807-.552-1.428-1.125-1.874-.572-.446-1.326-.705-2.42-.98L13.893 0zm-.018.99c.984.255 1.622.49 1.992.778.384.3.59.668.793 1.382.998 3.492 1.4 5.362 2.307 6.604.453.62 1.047 1.053 1.812 1.365.765.31 1.705.523 2.962.775 2.423.484 3.604 1.335 4.2 2.126.583.772.624 1.5.626 1.968-1.76 4.943-7.23 8.41-13.506 8.412-7.84 0-14.11-5.298-14.11-11.734C.957 6.61 6.533 1.508 13.876.99zM10.75 3.604c-1.1 0-2 .9-2 2 0 1.098.9 2 2 2s2-.902 2-2c0-1.1-.9-2-2-2zm0 1c.558 0 1 .44 1 1 0 .558-.442 1-1 1s-1-.442-1-1c0-.56.442-1 1-1zm-4.875 3.25c-1.1 0-2 .9-2 2 0 1.098.9 2 2 2s2-.902 2-2c0-1.1-.9-2-2-2zm0 1c.558 0 1 .44 1 1 0 .558-.442 1-1 1s-1-.442-1-1c0-.56.442-1 1-1zm16.438 5.187c-1.883 0-3.5 1.296-3.5 3 0 1.706 1.617 3 3.5 3 1.882 0 3.5-1.294 3.5-3 0-1.704-1.618-3-3.5-3zm-16.8.052c-1.098 0-2 .9-2 2 0 1.098.902 2 2 2 1.1 0 2-.902 2-2 0-1.1-.9-2-2-2zm16.8.95c1.43 0 2.5.943 2.5 2 0 1.055-1.07 2-2.5 2-1.432 0-2.5-.945-2.5-2 0-1.057 1.068-2 2.5-2zm-16.8.05c.56 0 1 .442 1 1s-.44 1-1 1c-.558 0-1-.442-1-1s.442-1 1-1z"/></symbol><symbol viewBox="0 0 28.488235 19.029303" id="basket"><path d="M0 0v1.018h6.414l1.64 3.18 3.085 5.98.887-.46c-.795-1.494-1.66-3.026-2.494-4.56l17.545.582-2.69 7.254c-5.596-.004-11.216.008-16.798-.004l-1.602 3.004a2.005 2.005 0 0 0-1.715-.98 2.014 2.014 0 0 0-2.007 2.007c0 1.106.903 2.01 2.007 2.01a2.014 2.014 0 0 0 2.008-2.01c5.628-.054 11.36-.028 16.173-.014 0 1.104.904 2.008 2.008 2.008a2.014 2.014 0 0 0 2.01-2.008 2.014 2.014 0 0 0-2.01-2.008c-.733 0-1.372.404-1.722.996H7.118l1.062-2h16.834c1.41-3.572 2.567-6.65 3.474-9.193-6.716-.23-13.68-.432-19.467-.61C8.287 2.757 7.53 1.295 6.995 0 4.574.002 2.084 0 0 0zm24.46 15.8a1.2 1.2 0 0 1 1.206 1.206 1.2 1.2 0 0 1-1.205 1.205c-.67 0-1.202-.534-1.202-1.204 0-.67.533-1.205 1.203-1.205zm-20.187.016A1.2 1.2 0 0 1 5.48 17.02a1.2 1.2 0 0 1-1.207 1.207 1.2 1.2 0 0 1-1.205-1.206 1.2 1.2 0 0 1 1.205-1.204z"/></symbol><symbol viewBox="0 0 27.000002 36.000001" id="brend"><path d="M22.855.775l-.31.62c.026-.053-.106.104-.31.195a1.79 1.79 0 0 1-.645.152h-.43l-.52 3.424h.786l-2.528 8.186v-8.23c0-.085.01-.088.014-.153.153.075.34.135.55.085a.78.78 0 0 0 .466-.36c.084-.142.122-.278.154-.42.127-.564.116-1.287.213-1.963l.082-.57H19.8c-.063 0-.273-.05-.44-.138-.168-.088-.293-.233-.282-.21l-.24-.482-.463.277c-.196.117-1.085.318-1.535.318-.303 0-.563-.004-.89-.067-.212-.07-.386-.13-.546-.237l-.47-.314-.254.505c.04-.083-.115.1-.334.193-.22.094-.5.154-.62.154h-.59l.518 3.094.05-.002c.024.07.036.138.1.2.1.102.237.15.34.16.12.014.177-.026.25-.05v8.624c0 1.893-.33 2.613-.554 2.837l-.354.354.354.353c.282.282.398.52.398.582 0 .122-.238.46-.322.517l-.463.31.356.426c.148.18.277.388.39.915.115.526.195 1.355.195 2.66v8.345h-.76l-.483 3.524h.573c-.006 0 .24.066.43.195.19.13.345.327.353.346l.242.605.52-.39c.185-.138.76-.368 1.26-.368.227 0 .597.068.89.14.31.08.568.202.547.18l.49.49.31-.618a1.65 1.65 0 0 1 .337-.315c.18-.12.395-.187.462-.187h.57l-.454-3.512h-.784v-8.133l.39-1.37 1.905 9.652-.037-.028h-.93l.237 3.433h.467c.153 0 .406.07.62.183.215.115.39.285.43.354l.33.55.454-.454c.157-.157.254-.25.332-.293.077-.045.152-.073.363-.073.12 0 .52.068.813.14.156.04.298.077.38.11.08.03.06.073-.005-.058l.446.894.447-.894a1.45 1.45 0 0 1 .296-.348c.134-.112.277-.154.27-.154h.68l-.968-3.113h-.757l-1.417-9.842v-.002c-.224-1.487 0-1.97.248-2.22l.538-.536-.705-.28c-.294-.12-.337-.142-.393-.476l-.004-.018-.004-.02c-.01-.045.084-.4.203-.49l.397-.297-.293-.4c-.76-1.037-1.06-2.31-1.214-3.57l2.428-8.018h.84l1.38-3.645h-.724c-.095 0-.315-.064-.5-.164s-.352-.27-.33-.236l-.278-.416-.416.277c-.17.113-.623.305-.812.305.01 0-.224-.054-.32-.102l-.034-.017-.033-.01c-.202-.068-.31-.154-.27-.114l-.492-.49zm-4.35 1.358c.13.118.237.277.39.357.114.06.246.06.365.102-.052.52-.09 1.027-.135 1.306l-.135-.13h-.203c-.322 0-.668.27-.775.537-.107.267-.114.522-.114.818v11.79h.946L22.54 4.946l.003-.01c.046-.186.088-.374.045-.613-.04-.227-.26-.48-.504-.58-.048-.022-.147.014-.217-.002l.168-1.1c.205-.04.42-.054.606-.136.157-.07.255-.225.39-.322.08.035.145.097.24.13.207.1.426.196.734.196.43 0 .714-.19 1-.346.118.094.21.215.36.295.093.05.22.054.323.096l-.542 1.433c-.072-.033-.11-.12-.18-.125-.07-.014-.123-.046-.205-.036a.73.73 0 0 0-.408.205c-.194.193-.27.41-.358.714l-2.6 8.588.012.104c.147 1.245.483 2.59 1.248 3.79-.255.34-.397.73-.3 1.15.067.382.38.563.642.792-.355.557-.545 1.34-.342 2.693h-.002l1.483 10.29.002.014c.05.25.133.466.302.635.17.168.416.233.578.233.048 0 .124-.027.195-.053l.293.944c-.095.06-.233.066-.315.135-.082.07-.12.157-.19.233a4.28 4.28 0 0 0-.484-.143c-.33-.082-.712-.17-1.057-.17a1.73 1.73 0 0 0-.862.206c-.085.048-.13.11-.198.164-.13-.107-.225-.252-.38-.334-.186-.1-.407-.12-.616-.172l-.07-1.05c.205.078.448.15.598.075.197-.1.38-.396.4-.606.02-.21-.012-.383-.053-.625l-.003-.01-2.457-12.444h-.865l-1.057 3.7v8.946c0 .195-.023.343.055.578.04.118.135.272.277.36a.73.73 0 0 0 .4.11c.065 0 .164-.045.255-.08l.136 1.06c-.153.063-.338.076-.47.165-.15.1-.234.244-.35.362-.184-.068-.372-.195-.538-.237-.33-.082-.738-.17-1.133-.17-.568 0-.998.22-1.41.43-.133-.15-.237-.338-.403-.45-.133-.092-.303-.102-.446-.167l.164-1.188c.082.032.136.118.226.118.17 0 .38-.085.5-.215a.78.78 0 0 0 .192-.377c.05-.224.042-.414.042-.61v-8.797c0-1.344-.077-2.23-.216-2.87-.107-.496-.287-.766-.463-1.037.236-.256.523-.474.523-.922 0-.41-.27-.67-.506-.943.407-.592.662-1.476.662-3.182v-9.19c0-.272.008-.443-.03-.644a.66.66 0 0 0-.173-.368.68.68 0 0 0-.452-.19c-.165 0-.227.055-.3.1l-.143-.865c.148-.04.303-.04.445-.102.163-.07.275-.234.418-.334.178.082.366.182.512.23l.03.01.03.006c.44.088.798.088 1.11.088.52 0 1.13-.16 1.664-.375zm-4.657 29.623c0 .115.066.206.095.312h-.035l-.047-.2-.012-.112zM4.396 0L4.11 1.43c-.048.238-.07.26-.31.308l-.366.073-.967 11.44v.008c-.077 1.376-.232 2.17-.403 2.656-.17.485-.334.667-.568.94l-.348.406.426.318c.162.122.268.39.268.535 0 .062-.126.31-.32.504l-.29.29.227.34c.133.203.248.405.333.85.085.443.127 1.123.05 2.186v.002l-.583 8.903H.332L0 34.576h.55c-.01 0 .113.027.22.11a.74.74 0 0 1 .242.328l.256.767.572-.57c.193-.195.558-.32.814-.32.123 0 .31.05.543.128.234.077.39.153.428.19l.57.573.256-.766c.094-.278.273-.36.462-.36h.5V31.23h-.97l.27-3.91v-.017c0-.15.042-.26.075-.305.033-.044.03-.053.125-.053h1.324c-.005 0 .043.008.12.1.073.09.14.24.164.346l.197 3.766h-.842l.11 3.42h.484c.12 0 .328.054.487.147.16.092.258.215.283.29l.256.768.572-.57c.038-.04.247-.154.502-.22s.557-.1.782-.1c.226 0 .51.065.908.145h.006c.126.04.254.075.357.11.12.04.206.104.166.064l.685.686.16-.958a.452.452 0 0 1 .166-.26c.09-.074.21-.102.198-.102h.584l-.545-3.52h-.914l-.65-8.685c-.074-1.88.274-2.94.396-3.143l.232-.387-.362-.27c-.194-.145-.343-.473-.343-.535 0-.01.07-.29.3-.428l.604-.36-.538-.452c-.26-.217-.332-.21-.485-.625-.152-.417-.312-1.264-.427-2.92v-.002L8.965 1.83l-.35-.088c-.14-.035-.24-.107-.357-.4l-.28-.705-.54.537c.022-.02-.157.093-.395.15a3.63 3.63 0 0 1-.807.092c-.233 0-.598-.008-.814-.062a3.913 3.913 0 0 1-.38-.108c-.08-.03-.06-.074.005.057L4.397 0zm3.32 2.086c.087.107.18.194.288.273l.848 10.964c.118 1.69.268 2.595.486 3.19.15.414.356.55.545.728-.2.265-.487.512-.487.793 0 .398.283.665.528.945-.294.62-.522 1.633-.45 3.436v.01l.7 9.314c0 .262.047.494.158.698.11.204.326.425.654.425.137 0 .212-.065.3-.12l.163 1.05c-.09.05-.203.043-.286.11-.087.073-.112.22-.185.316-.014-.005-.03-.02-.04-.023-.172-.057-.333-.098-.42-.127l-.028-.01-.03-.005c-.378-.076-.716-.166-1.11-.166-.32 0-.683.042-1.032.13-.18.048-.332.17-.5.25-.126-.134-.207-.322-.36-.41-.156-.092-.334-.097-.503-.145l-.03-.96c.07.028.077.108.165.108a.67.67 0 0 0 .488-.236.804.804 0 0 0 .162-.336 1.36 1.36 0 0 0-.01-.67l.016.095-.236-4.475-.008-.035a1.798 1.798 0 0 0-.375-.795c-.198-.24-.5-.465-.894-.465H4.912a1.18 1.18 0 0 0-.926.453c-.2.268-.275.588-.275.905L3.4 31.8v.018c0 .24.054.457.168.647.114.19.315.398.643.398.106 0 .124-.084.202-.117v1.072a1.39 1.39 0 0 0-.574.424c-.11-.043-.232-.14-.324-.172-.234-.078-.515-.18-.86-.18-.34 0-.66.225-.988.397-.098-.13-.162-.298-.28-.39-.09-.07-.208-.066-.304-.116l.11-1.11c.08.027.142.115.216.115.34 0 .593-.258.69-.45a1.09 1.09 0 0 0 .12-.517v.034l.624-9.498v-.002c.08-1.117.043-1.876-.067-2.444-.083-.436-.232-.684-.37-.93.198-.243.437-.464.437-.865 0-.31-.246-.583-.434-.867.203-.252.426-.505.6-1.002.218-.62.375-1.502.455-2.916v-.006l.932-11c.083-.06.14-.13.21-.21.026.012.053.056.08.066.17.066.34.107.495.146.406.102.823.092 1.056.092.353 0 .715-.042 1.04-.12.166-.04.295-.147.44-.21zM5.614 9.594a.693.693 0 0 0-.484.234.703.703 0 0 0-.146.34c-.034.19-.027.352-.027.547v-.027l-.234 4.218v.014c0 .495.04 1.003.115 1.445.05.306.157.533.26.772l-.067.09.044.043c-.154.25-.35.464-.35.843 0 .31.17.56.31.82a3.583 3.583 0 0 0-.464.973 11.88 11.88 0 0 0-.386 1.8l-.006.034v.033c0 .618.037 1.068.287 1.452.25.383.724.53 1.148.53.213 0 .42-.023.625-.105.206-.082.4-.24.522-.44.24-.395.25-.85.21-1.468a9.162 9.162 0 0 0-.31-1.824c-.106-.388-.224-.636-.342-.89.063-.092.133-.175.182-.29.082-.19.1-.44.06-.677-.012-.317-.185-.544-.33-.79l.043-.043-.06-.082c.026-.093.088-.187.105-.286.04-.215.06-.45.077-.69.03-.48.03-.978.03-1.25v-.008l-.157-4.215c-.002-.22-.02-.404-.065-.57a.86.86 0 0 0-.113-.266.555.555 0 0 0-.477-.266zm.006 10.383c.03.09.048.106.075.207.13.467.24 1.04.276 1.62v.003c.037.548-.033.833-.064.884-.015.027-.004.018-.037.03a.77.77 0 0 1-.257.034c-.276 0-.27-.012-.312-.076-.04-.062-.113-.36-.118-.875a11.05 11.05 0 0 1 .345-1.608c.037-.122.05-.112.092-.218zm-.597 11.92l-.048.212-.045.095c.032-.102.093-.19.093-.31z"/></symbol><symbol viewBox="0 0 23 23" id="cross"><path d="M11 0h1v23h-1V0z" fill-rule="evenodd" clip-rule="evenodd"/><path d="M0 12v-1h23v1H0z" fill-rule="evenodd" clip-rule="evenodd"/></symbol><symbol preserveAspectRatio="xMidYMid" viewBox="0 0 16 16" id="download"><path fill-rule="evenodd" clip-rule="evenodd" d="M15 12v3H1v-3H0v4h16v-4z"/><path fill-rule="evenodd" clip-rule="evenodd" d="M7.503 13.526L11 7.64l-.644-.36-2.353 3.854V0h-1v11.08L4.65 7.28l-.643.36 3.355 5.6z"/></symbol><symbol viewBox="0 0 25.987 26.005" id="endfullscreen"><path d="M8.994 16h1v8h-1v-8z" fill-rule="evenodd" clip-rule="evenodd"/><path d="M9.994 16v1h-8v-1h8zM16.994 10h-1V2h1v8z" fill-rule="evenodd" clip-rule="evenodd"/><path d="M15.994 10V9h8v1h-8zM9.566 16l.42.42L.42 26.006l-.42-.42L9.566 16z" fill-rule="evenodd" clip-rule="evenodd"/><path d="M25.566 0l.42.42-9.566 9.585-.42-.42L25.566 0z" fill-rule="evenodd" clip-rule="evenodd"/></symbol><symbol viewBox="0 0 8.832 10.224" id="error-cross"><path d="M5.303 5.1c-.675-.98-.946-1.67-2.06-3.414-.55-.79-1.31-1.186-2.1-.635-.79.552-.66 1.32-.11 2.11L3.51 6.48" fill-rule="evenodd" clip-rule="evenodd"/><path d="M3.46 6.427c.337.58.077-.154 1.42 1.952.553.79 1.95 2.07 2.532 1.66.63-.445.466-1.64-.085-2.43L5.304 5.1" fill-rule="evenodd" clip-rule="evenodd"/><path d="M8.71.166c-.92-.712-2.256 1.07-2.736 1.65-.616.74-2.512 2.7-2.512 2.7l-.145.622c-.746.828-1.36 1.285-2.73 2.73-.63.728-.815 1.574-.247 2.055.572.483 1.28.392 1.913-.334l.8-.768c.334-.438 1.016-1.126 1.922-2.063l.2-.31-.01-.006C6.063 4.956 9.52.794 8.71.166" fill-rule="evenodd" clip-rule="evenodd"/></symbol><symbol preserveAspectRatio="xMidYMid" viewBox="0 0 17.021 18" id="exit"><path d="M10.52 3.52v-3h-10v17h10v-3M13.52 5.52l3 3v1l-3 3M4.52 9.02h11.5-11.5z" fill-rule="evenodd" clip-rule="evenodd" fill="none" stroke-miterlimit="10"/></symbol><symbol viewBox="0 0 27.0023 32.019444" id="factory"><path d="M0 .033V32.02h27.002V.033h-1.008v30.98H1.008v-11.03h4.986v3.035h-.992v1h8.996v-1h-1.006V10.023h1.004v-1H4.998v1h.996v8.96H1.008V.032H0zm6.994 9.99h4.998v12.995H6.994V10.023zm12.508 4.008a4.5 4.5 0 0 0-4.492 4.493 4.5 4.5 0 0 0 4.492 4.493 4.5 4.5 0 0 0 4.492-4.493 4.5 4.5 0 0 0-4.492-4.492zm0 .857a3.63 3.63 0 0 1 3.637 3.636 3.632 3.632 0 0 1-3.638 3.64 3.633 3.633 0 0 1-3.64-3.64 3.632 3.632 0 0 1 3.64-3.636zm.004 2.13c-.82 0-1.494.675-1.494 1.495 0 .82.675 1.496 1.494 1.496.82 0 1.494-.677 1.494-1.496 0-.82-.675-1.494-1.494-1.494zm0 1c.28 0 .494.216.494.495 0 .28-.215.496-.494.496a.488.488 0 0 1-.494-.496c0-.28.215-.494.494-.494z"/></symbol><symbol viewBox="0 0 19.000152587890625 18.00023078918457" id="favorite"><path d="M10 18.5S.5 11.27.5 5.725C.5 1.385 3.577.513 5.25.5 8.407.473 10 2.82 10 2.82S12.002.5 14.75.5c2.916 0 4.72 1.818 4.75 5.225C19.544 10.875 10 18.5 10 18.5z" fill-rule="evenodd"/></symbol><symbol viewBox="0 0 96.124 96.123" id="fb"><path d="M72.09.02L59.623 0C45.62 0 36.57 9.285 36.57 23.656v10.907H24.037a1.96 1.96 0 0 0-1.96 1.96v15.804a1.96 1.96 0 0 0 1.96 1.96H36.57v39.876a1.96 1.96 0 0 0 1.96 1.96h16.352a1.96 1.96 0 0 0 1.96-1.96V54.287h14.654a1.96 1.96 0 0 0 1.96-1.96l.006-15.803a1.963 1.963 0 0 0-1.96-1.96H56.84v-9.247c0-4.444 1.06-6.7 6.848-6.7l8.397-.003a1.96 1.96 0 0 0 1.96-1.96V1.98A1.96 1.96 0 0 0 72.088.02z"/></symbol><symbol viewBox="0 0 25 21.125" id="fb-like"><path d="M3.53 8.656c1.658 0 3 .843 3 2.5v7c0 1.657-1.342 2.5-3 2.5s-3-.843-3-2.5v-7c0-1.656 1.345-2.5 3-2.5zm10.44-1c-.133.147.387 0 .562 0h7a3 3 0 0 1 3 3v7a3 3 0 0 1-3 3h-11a3 3 0 0 1-3-3v-7c0-1.387.594-2.688 1.996-2.885-.445.064-.467.026-.43-.025.955-1.276 4.577-5.192 5.433-6.09 2.383-2.494 5.076-.58 3 2-.58.724-2.243 2.53-3.56 4z" fill-rule="evenodd" clip-rule="evenodd" stroke-miterlimit="10"/></symbol><symbol viewBox="0 0 24 21" id="filter"><path d="M0 11v-1h23v1H0zM0 3V2h23v1H0z" fill-rule="evenodd" clip-rule="evenodd"/><path d="M6.5 0a2.5 2.5 0 1 1 0 5 2.5 2.5 0 0 1 0-5zM0 19v-1h23v1H0z" fill-rule="evenodd" clip-rule="evenodd"/><path d="M13.5 16a2.5 2.5 0 1 1 0 5 2.5 2.5 0 0 1 0-5zM21.5 8a2.5 2.5 0 0 1 0 5 2.5 2.5 0 0 1 0-5z" fill-rule="evenodd" clip-rule="evenodd"/></symbol><symbol viewBox="0 0 35.000002 29.849654" id="for-her"><path d="M26.006 0L11.63 21.777l-6.835.016c-1.124.002-2.164.35-2.934 1.012-.77.66-1.25 1.645-1.25 2.8a4.19 4.19 0 0 0 4.187 4.188h10.625c1.167 0 2.177-.528 2.932-1.295 2.77-3.02 5.497-6.41 8.185-9.607l.058 10.954.496.002 2.43.004 2.61-17.612.007-.01.03-.113s1.136-4.422-1.12-7.853c-1.09-1.654-2.222-2.66-3.093-3.25-.61-.415-.822-.454-1.068-.547l.014-.053zm.346 1.293c.116.037.39.105 1.043.547.77.522 1.803 1.428 2.818 2.97 1.914 2.91 1.025 6.833.992 6.977-4.497 5.243-8.84 10.67-13.36 15.87a3.15 3.15 0 0 1-2.423 1.136H4.797a3.17 3.17 0 0 1-3.188-3.188c0-.887.34-1.557.904-2.04.563-.484 1.366-.77 2.285-.772l7.368-.018zM4.998 6.187l-.922.387 3.832 9.137.922-.386zm7.26 1.692l-.79 5.946.993.13.79-5.946zm18.62 5.85l-2.214 15.09-1.072-.002-.06-11.107zM.6 13.753l-.598.8 4.81 3.59.596-.8z"/></symbol><symbol viewBox="0 0 27.0023 32.019444" id="for-her-col"><path d="M0 .033V32.02h27.002V1.7l.053-.065-.053-.04V.032h-1.008V1.34c-.32.406-1.523 1.896-3.566 3.61-2.34 1.96-5.506 3.882-8.772 3.882-3.265 0-6.433-1.92-8.773-3.883S1.055 1.03 1.055 1.03l-.047.034V.034H0zM1.008 2.53c.68.782 1.766 1.955 3.232 3.185 2.027 1.7 4.686 3.41 7.63 3.937-1.67.66-2.86 2.28-2.86 4.18 0 .322.037.634.1.938a7.486 7.486 0 0 0-3.1 6.062c0 4.136 3.364 7.5 7.5 7.5s7.5-3.364 7.5-7.5a7.486 7.486 0 0 0-3.102-6.062c.065-.304.102-.616.102-.938a4.51 4.51 0 0 0-2.746-4.145c3.014-.487 5.738-2.238 7.806-3.972a29.637 29.637 0 0 0 2.924-2.828v28.125H1.008V2.53zM13.51 10.33c1.94 0 3.5 1.56 3.5 3.5 0 .12-.023.236-.035.354a7.45 7.45 0 0 0-6.93 0c-.012-.118-.035-.233-.035-.354 0-1.94 1.56-3.5 3.5-3.5zm0 4c1.177 0 2.277.315 3.228.86a3.493 3.493 0 0 1-3.228 2.14c-1.457 0-2.7-.88-3.23-2.14a6.476 6.476 0 0 1 3.23-.86zm-4.053 1.42c.724 1.52 2.262 2.58 4.053 2.58 1.79 0 3.33-1.06 4.053-2.58a6.48 6.48 0 0 1 2.447 5.08c0 3.596-2.904 6.5-6.5 6.5a6.492 6.492 0 0 1-6.5-6.5c0-2.06.956-3.89 2.447-5.08z"/></symbol><symbol viewBox="0 0 35.003976 19.117764" id="for-him"><path d="M32.576.003c-2.002.01-4.147-.02-6.115.013-2.5 0-4.747 1.7-6.05 4.346a1.488 1.488 0 0 0-.88-.295h-4.055c-.34 0-.65.12-.903.312-1.306-2.622-3.542-4.3-6.03-4.3C6.576.045 4.43.074 2.43.064h-.004C1.094.065 0 1.142 0 2.467v14.237c0 1.325 1.093 2.4 2.424 2.4 2.044 0 4.12-.025 6.11.014h.008c2.51-.003 4.764-1.715 6.064-4.38.247.176.543.288.868.288h4.054c.333 0 .638-.12.888-.305 1.304 2.64 3.547 4.332 6.043 4.335h.011c1.99-.04 4.066-.013 6.11-.013 1.33 0 2.424-1.076 2.424-2.4V2.404c0-1.325-1.093-2.402-2.424-2.402h-.004zm.004 1.005c.798 0 1.418.62 1.418 1.397V16.64c0 .78-.62 1.396-1.418 1.396-2.032 0-4.112-.026-6.12.013-2.23 0-4.334-1.666-5.446-4.448v-8.14c1.113-2.778 3.22-4.438 5.447-4.438H26.47c1.946-.033 4.092-.01 6.11-.016zM2.424 1.07c2.017.007 4.164-.016 6.11.017h.008c2.228 0 4.334 1.66 5.447 4.437v8.14c-1.112 2.782-3.217 4.448-5.447 4.448-2.007-.04-4.087-.014-6.12-.014-.797 0-1.417-.616-1.417-1.394V2.467c0-.778.62-1.396 1.418-1.396zm25.414 2.626l-4.34 2.48.496.868 4.34-2.48-.496-.868zm-20.672.062l-.496.868 4.34 2.48.496-.867-4.34-2.482zm8.31 1.264h4.053c.223 0 .395.13.478.315v8.417a.515.515 0 0 1-.48.315h-4.053a.513.513 0 0 1-.48-.316V5.337a.513.513 0 0 1 .48-.315zm8.518 4.008v1h5v-1h-5zM6.01 9.092v1h5v-1h-5zm17.988 2.94l-.496.87 4.34 2.48.496-.87-4.34-2.48zm-12.992.062l-4.34 2.48.496.87 4.34-2.48-.496-.87z"/></symbol><symbol viewBox="0 0 27.0023 32.019444" id="for-him-col"><path d="M19.795 0l-.86.512L23.94 8.93l-4.922 22.082h-2.004l-.994-17.045a2.51 2.51 0 0 0 1.984-2.446v-2c0-1.374-1.125-2.5-2.5-2.5h-.61l2.626-7h-1l-2.625 7h-.75l-2.625-7h-1l2.625 7h-.64a2.507 2.507 0 0 0-2.5 2.5v2a2.51 2.51 0 0 0 1.983 2.447l-.953 17.045H7.996L3.066 8.59 7.25.463l-.89-.46L2.01 8.452l4.96 22.562H1.007V.032H0V32.02h27.002V.033h-1.008v30.98H20.04L25 8.76 19.795 0zm-8.293 8.02h4c.835 0 1.5.666 1.5 1.5v2c0 .835-.665 1.5-1.5 1.5h-4c-.835 0-1.5-.665-1.5-1.5v-2c0-.834.665-1.5 1.5-1.5zm.453 6.03h3.094l.985 16.962h-5.027l.947-16.96z"/></symbol><symbol viewBox="0 0 26 26.005" id="fullscreen"><path d="M1 26.005H0v-8h1v8z" fill-rule="evenodd" clip-rule="evenodd"/><path d="M0 26.005v-1h8v1H0z" fill-rule="evenodd" clip-rule="evenodd"/><path d="M.427 26.005l-.42-.42L9.572 16l.42.42-9.566 9.585zM25 .005h1v8h-1v-8z" fill-rule="evenodd" clip-rule="evenodd"/><path d="M26 .005v1h-8v-1h8z" fill-rule="evenodd" clip-rule="evenodd"/><path d="M16.427 10.005l-.42-.42L25.572 0l.42.42-9.566 9.585z" fill-rule="evenodd" clip-rule="evenodd"/></symbol><symbol viewBox="0 0 28 31.999" id="garantee"><path fill-rule="evenodd" clip-rule="evenodd" d="M27 0v31H1V0H0v32h28V0"/><path d="M14 6a7 7 0 1 1 0 14 7 7 0 0 1 0-14zm0 1a6 6 0 1 1 0 12 6 6 0 0 1 0-12z" fill-rule="evenodd" clip-rule="evenodd"/><path d="M14 8a5 5 0 1 1 0 10 5 5 0 0 1 0-10zm0 .714a4.285 4.285 0 1 1 0 8.57 4.285 4.285 0 0 1 0-8.57zM9.472 17.997l-3.468 4.786 3.843-.48.588 2.695 2.56-5.067m-.42-.686l-1.88 3.69.13-1.64-3.06.49 2.624-3.772M18.528 17.997l3.468 4.786-3.843-.48-.588 2.695-2.56-5.067m2.606-1.917l2.624 3.773-3.06-.49.13 1.638-1.88-3.69" fill-rule="evenodd" clip-rule="evenodd"/></symbol><symbol preserveAspectRatio="xMidYMid" viewBox="0 0 20 19" id="heart"><path d="M10 18.5S.5 11.27.5 5.725C.5 1.385 3.577.513 5.25.5 8.407.473 10 2.82 10 2.82S12.002.5 14.75.5c2.916 0 4.72 1.818 4.75 5.225C19.544 10.875 10 18.5 10 18.5z"/></symbol><symbol viewBox="0 0 27.0023 32.019444" id="ind"><path d="M0 .033V32.02h27.002V.033h-1.008v30.98H1.008V.032H0zM7 9.01v1h16.01v-1H7zm-2.984.008v2h2v-2h-2zm-.014 3.99v2h2v-2h-2zM7 13.014v1h16.002v-1H7zm-.018 3.99v1h16.012v-1H6.982zm-2.984.008v2h2v-2h-2zm-.012 3.99v2h2v-2h-2zm2.996.004v1h16.002v-1H6.982z"/></symbol><symbol viewBox="0 -6.052 97.395 108.75" id="inst"><path d="M12.5 0h72.394c6.875 0 12.5 5.09 12.5 12.5v72.395c0 7.41-5.625 12.5-12.5 12.5H12.5c-6.876 0-12.5-5.09-12.5-12.5V12.5C0 5.09 5.624 0 12.5 0zM70.95 10.82a4.397 4.397 0 0 0-4.383 4.387v10.495a4.397 4.397 0 0 0 4.383 4.385h11.01a4.398 4.398 0 0 0 4.384-4.385V15.206a4.398 4.398 0 0 0-4.385-4.386h-11.01zm15.44 30.368h-8.573a28.453 28.453 0 0 1 1.25 8.355c0 16.2-13.556 29.332-30.274 29.332S18.52 65.743 18.52 49.543c0-2.904.438-5.708 1.25-8.355h-8.945V82.33a3.884 3.884 0 0 0 3.872 3.872h67.822a3.883 3.883 0 0 0 3.872-3.872V41.188h-.003zm-37.6-11.655c-10.802 0-19.56 8.484-19.56 18.952 0 10.47 8.758 18.953 19.56 18.953s19.563-8.484 19.563-18.953c0-10.467-8.757-18.952-19.56-18.952z"/></symbol><symbol viewBox="0 0 28 32" id="kcard"><path d="M0 0v32h28V0m-1 0v31H1V0" fill-rule="evenodd" clip-rule="evenodd"/><path d="M6 8h16a2 2 0 0 1 2 2v10a2 2 0 0 1-2 2H6a2 2 0 0 1-2-2V10a2 2 0 0 1 2-2zm.8 1h14.4c.994 0 1.8.768 1.8 1.714v8.57c0 .948-.806 1.716-1.8 1.716H6.8c-.994 0-1.8-.768-1.8-1.714v-8.57C5 9.767 5.806 9 6.8 9z" fill-rule="evenodd" clip-rule="evenodd"/><path d="M6 18h6v2H6v-2zM4.5 10h19a.5.5 0 0 1 .5.5v2a.5.5 0 0 1-.5.5h-19a.5.5 0 0 1-.5-.5v-2a.5.5 0 0 1 .5-.5z" fill-rule="evenodd" clip-rule="evenodd"/></symbol><symbol viewBox="0 0 2634 1139" id="logo"><path d="M1207 389c5 0 10 1 15 2s16 3 16-6c0-3-5-8-2-11 2-1 6-1 12 0 4 0 7 0 9-1 3-1 5-4 7-9 4-7 5-13 5-13s5-1 20 3c3 8 1 17-4 23-1-1-4-2-6-1-5 3-4 10-1 12s12 6 13 20c-10 5-13 5-21 16s-6 40-4 44c-8 20-33 30-59 31-26-1-52-11-59-31 1-4 4-33-5-44-8-11-11-11-21-16 1-14 11-18 13-20 3-2 5-9 0-12-3-1-5 0-7 1-5-6-6-15-3-23 14-4 19-3 19-3s2 6 5 13c3 5 4 8 8 9 2 1 5 1 8 1 7-1 11-1 12 0 3 3-2 8-2 11 0 9 11 7 16 6s11-2 16-2zM88 620c0-11 6-22 16-22h32c11 0 17 12 19 22l7 105c1 8 0 15-4 15s-6-5-7-9l-3-34h-7l2 86c10 0 26 7 29 18 9-7 27-11 40-11 7 0 15 1 23 2 7 3 15 5 19 9 2-11 13-19 21-19l-9-87h-8v33c0 5-3 12-7 12-5 0-8-5-8-13l-16-226c-3-46 4-73 11-82-8-5-13-15-13-22s4-16 13-21c-12-10-21-13-27-94L191 18c-7-2-13-8-16-18-6 6-24 10-38 10-6 0-15-1-23-3-7-2-14-4-17-7-2 9-8 16-17 18L59 282c-5 68-15 81-26 94 6 6 10 14 10 22s-6 16-11 21c7 11 15 28 11 81L28 728c0 4-1 11-7 11s-8-4-8-11v-33H6l-6 87c7 0 20 8 23 19 8-7 18-11 28-11 5 0 11 1 17 2 5 3 10 5 14 9 3-11 14-17 23-17v-91h-7l-2 37c-1 5-4 11-8 11s-7-5-7-13l7-108zm29-399c0-10 1-14 4-14s5 4 5 14l4 102c0 12-1 47-6 53 6 6 9 13 9 22 1 8-2 14-8 21 6 10 16 37 18 67 2 29-4 36-22 36-16 0-22-8-21-36 2-27 12-59 20-67-6-5-8-12-8-21 0-11 4-17 9-22-5-6-9-33-9-53l5-102zm194 499c0 17-2 22-7 22-4 0-8-2-8-10v-38h-7l-9 88c11 0 25 8 30 19 5-7 15-11 25-11 5 0 11 1 15 4 5 1 9 4 11 7 6-11 23-18 36-18l-8-89h-7v33c0 12-4 15-7 15-4 0-8-2-8-15V507c0-50 4-74 11-84-7-5-11-15-11-22 0-9 4-17 11-23-6-6-11-27-11-56v-98h5l13 98c3 18 4 44-1 55 10 9 11 15 11 24 1 7-2 17-7 22 9 8 19 31 26 74l44 288c12 0 27 4 35 16 7-12 26-18 37-18l3-251c1-58 11-102 20-109-9-5-14-15-14-22s1-15 12-23c-7-7-18-29-18-83V84c0-17 2-20 7-20s8 3 8 13v28h7l8-89c-11 0-24-9-26-16-6 4-18 10-30 10-5 0-11-2-16-4s-8-5-11-6c-4 6-20 16-33 16l9 92h8V80c0-13 5-17 8-17 4 0 8 1 8 12v303h-5L408 16c-12 2-28-8-33-16-8 4-18 10-30 10-6 0-12-2-17-4s-9-4-14-6c-7 8-21 15-35 15l10 91h7V75c0-10 3-14 8-14 6 0 7 2 7 17v216c0 61-6 73-17 84 7 7 11 17 11 24s-4 16-11 21c9 9 17 26 17 80v217zm426-223c0-47 6-68 15-74-7-3-11-12-11-20 0-7 5-17 11-20-6-6-15-27-15-74V77c0-19 5-24 14-24 10 0 15 5 15 24v96c0 40-3 46-8 57 27 11 34 25 34 87h7c0-55 6-75 34-87-5-6-12-21-12-57V19c-10 0-24-10-29-19-5 6-17 10-27 10-4 0-9-1-14-3-4-2-8-5-11-7-7 6-24 10-47 10-9 0-18-1-25-3s-13-4-17-7c-5 5-16 10-26 10-4 0-9-1-14-3s-9-4-12-7c-5 9-19 19-29 19v154c0 36-7 51-12 57 28 12 34 32 34 87h7c0-62 7-76 34-87-6-11-9-17-9-57V77c0-19 6-24 16-24 9 0 14 5 14 24v232c0 47-8 66-17 75 7 5 11 14 11 21s-4 16-10 20c9 8 16 32 16 72v230c0 5 0 11-4 11s-7-3-7-11v-28h-8l-11 83c9 0 29 9 33 19 8-7 26-11 39-11 7 0 16 1 23 2 8 3 16 5 20 9 5-10 19-20 28-20l-6-84h-9v28c0 7-1 12-6 12s-9-3-9-13V497zm209 6c0-58 0-72 16-72 6 0 14 6 14 16 0 8-1 13-4 20s-6 16-6 27c0 19 13 29 25 27-4-5-6-12-6-18 0-7 6-13 19-26 7-8 12-17 12-29 0-15-7-25-17-34l23-17-22-20c11-7 16-18 16-29s-7-23-12-29c-10-10-14-16-14-23 0-6 1-11 4-16-9-1-26 11-26 28 0 8 2 17 4 23 2 5 4 8 4 17 0 6-5 15-12 15-11 0-18-4-18-50V105c0-41 10-53 27-53 19 0 27 16 27 52v64c0 35-3 48-10 57 28 13 35 29 35 86h8c0-59 5-73 32-86-6-11-7-29-7-56V69c0-30 3-45 9-50-10-1-23-11-26-19-6 5-16 10-23 10-12 0-20-4-28-6s-16-4-28-4c-7 0-14 1-23 4s-20 6-36 6c-7 0-16-1-23-3s-12-4-16-7c-7 10-18 18-31 19l9 90h8V74c1-8 3-11 8-11 4 0 5 3 5 11v216c0 48-9 74-18 84 7 6 12 14 12 21s-5 16-12 20c7 11 18 36 18 104v200c0 12-2 16-7 16s-6-4-6-17v-33h-9l-9 94c10 2 26 12 30 22 7-7 16-11 25-11 12 0 23 2 33 5 10 2 20 6 32 6 15 0 23-3 31-5 7-2 15-6 28-6 6 0 11 1 16 2 5 2 9 4 13 6 3-7 19-16 27-18-7-9-9-15-9-66v-93c0-26 4-46 11-55-28-14-34-19-34-88h-7c0 65-8 74-35 86 6 12 7 33 7 57v75c0 46-6 53-25 53-21 0-29-7-29-32V503zm397-400h8V73c0-15 3-18 8-18s5 2 5 16v220c0 47-7 69-18 77 8 8 13 15 13 23 0 10-6 19-13 23 10 11 18 29 18 93v211c0 11-1 18-6 18-4 0-7-4-7-13v-36h-6l-10 93c9 0 26 11 30 21 8-6 24-11 39-11 7 0 16 1 23 4 8 1 16 4 20 7 4-9 17-19 29-19l-9-88h-7v33c0 10-3 12-6 12-5 0-6-3-6-14V513l22-79h2l42 287c2 13 2 16-2 18-5 2-9 0-12-10l-8-34h-6l7 88c13-1 29 8 35 18 8-7 28-11 41-11 7 0 15 1 23 4 7 2 14 4 17 7 4-7 15-19 23-19l-16-84h-6v35c0 7-1 10-4 10-4 0-7-3-8-12l-35-246c-6-37 0-55 8-64-8-5-14-9-17-20-2-7 2-20 11-25-21-28-29-61-32-94l61-203c3-13 7-15 11-14s5 5 3 11l-8 32h8l30-93c-11 0-25-9-30-15-5 4-16 10-25 10-4 0-9-2-14-4-4-2-8-4-11-6-4 7-20 15-34 15l-20 91 7 2 11-38c3-9 7-10 11-8s4 7 2 15l-84 278h-3V85c0-14 3-21 8-21 4 0 7 4 7 11l2 31h6l10-91c-10 1-24-7-27-15-9 6-31 10-44 10-7 0-15-1-23-3-7-2-13-4-17-7-5 7-23 15-34 15l7 88zm319 197c0 57-8 68-18 79 8 4 13 12 13 20 0 7-5 14-13 20 8 10 18 27 18 70v220c0 61 58 93 83 92 5-10 16-11 30-11 7 0 13 0 19 2 5 2 9 5 12 9 26 1 82-34 82-130V506c0-59 8-82 18-92-10-6-13-13-13-20 0-8 5-18 13-23-11-12-18-19-18-89V92c0-74-56-92-79-92-4 6-17 10-32 10-7 0-15-1-21-3-5-2-10-4-12-7-42 0-82 47-82 104v196zm85-213c0-26 8-37 29-37s27 12 27 36v206c0 40-3 70-17 83 8 5 13 14 13 22 0 7-6 15-13 21 9 9 17 24 17 92v199c0 31-10 39-28 39-19 0-28-10-28-39V516c0-51 4-84 16-95-9-8-13-16-13-24 0-9 4-18 13-23-8-9-16-22-16-83V87zm232 693c7 0 19 11 22 21 6-7 14-11 29-11 8 0 15 1 20 2 6 3 10 5 13 9 3-11 15-22 23-22l27-290c4-45 14-61 23-67-9-6-15-15-15-23 0-9 6-16 13-21-7-8-10-28-6-74l18-227c1-7 2-10 4-10 3 0 5 3 5 10v33h9l11-91c-8 0-23-8-27-19-6 7-19 10-31 10-6 0-12-1-18-3s-11-4-14-7c-4 10-18 18-27 18v94h10l4-34c1-9 4-12 7-12 6 0 6 6 5 19l-18 231c-2 24-7 47-15 60 5 7 9 15 9 24 0 8-3 14-10 22 3 5 6 14 5 39l-4 105h-7l-4-103c-1-20 2-35 7-41-6-6-11-15-11-22 0-8 5-18 12-24-10-11-19-33-21-85l-10-210c0-9 1-13 3-13 3 0 5 3 6 13l3 31h8V18c-15 0-25-8-28-18-6 7-25 10-42 10-9 0-17-1-25-3-7-2-12-4-16-7-3 9-16 21-29 21l15 92h8V74c0-5 3-8 6-8 4 0 7 2 8 18l14 249c2 30-5 42-13 51 8 5 12 11 12 18s-4 16-10 20c10 10 21 22 27 116l15 242zm253-160c0-11 6-22 16-22h32c10 0 16 12 18 22l7 105c1 8 0 15-4 15s-6-5-7-9l-3-34h-6l2 86c9 0 25 7 28 18 9-7 27-11 41-11 7 0 15 1 23 2 7 3 15 5 19 9 2-11 13-19 21-19l-9-87h-8v33c0 5-3 12-7 12-5 0-8-5-8-13l-16-226c-3-46 4-73 11-82-8-5-13-15-13-22s4-16 13-21c-12-10-21-13-27-94l-21-264c-7-2-13-8-16-18-6 6-24 10-37 10-6 0-15-1-23-3-7-2-14-4-17-7-2 9-8 16-17 18l-22 264c-5 68-15 81-26 94 6 6 10 14 10 22s-6 16-11 21c7 11 15 28 11 81l-15 228c0 4-1 11-7 11s-8-4-8-11v-33h-7l-5 87c6 0 19 8 22 19 8-7 18-11 28-11 5 0 11 1 17 2 6 3 11 5 15 9 3-11 14-17 23-17v-91h-7l-2 37c-1 5-4 11-8 11s-7-5-7-13l7-108zm29-399c0-10 1-14 4-14s5 4 5 14l4 102c0 12-1 47-6 53 6 6 9 13 9 22 1 8-2 14-8 21 6 10 16 37 18 67 1 29-4 36-22 36-16 0-22-8-21-36 2-27 12-59 20-67-6-5-8-12-8-21 0-11 4-17 9-22-5-6-9-33-9-53l5-102zm258-125c0-26 6-42 24-42 21 0 25 18 25 42v75c0 20-3 44-8 58 20 9 33 19 33 79h8c0-54 7-70 33-78-6-7-11-24-11-59V88c0-30 4-56 9-64-11 0-22-6-25-18-5 5-9 8-19 8-9 0-19-4-27-8-9-4-20-6-31-6-49 0-92 24-92 143v149c0 45-5 73-15 83 8 6 12 16 12 23s-3 16-12 24c11 13 15 47 15 95v159c0 95 36 125 97 125 69 0 92-43 92-114v-76c0-29 2-39 7-46-25-13-34-23-34-86h-7c0 69-8 74-32 86 4 6 7 20 7 46v99c0 27-8 39-24 39s-26-12-26-39V517c0-51 4-84 16-95-9-8-13-16-13-24 0-9 4-18 13-23-8-9-16-22-16-83l1-196zM1230 320c5 5 8 12 11 23 0 4 1 7 1 11 20-8 24-4 24-6 0-42-30-66-59-66-30 0-59 24-59 66 0 2 3-2 23 6 1-4 1-7 2-11 2-11 6-18 11-23 6-7 14-11 23-11 8 0 16 4 23 11zm-23 183c26 0 53-11 62-34-3-14-2-25 0-34 2-12 13-20 21-23-5 9-23 37-1 65-18 36-50 52-82 53-33-1-65-17-82-53 22-28 4-56-1-65 8 3 18 11 21 23 2 9 2 20 0 34 9 23 35 34 62 34zm17-115c8 1 10 0 11-1 1-2-2-6-2-10-1-8 7-6 14-5 3 0 6 0 9-1 2-1 5-4 6-8 3-5 4-12 4-12-7-1-14 3-24 6-6 2-12 3-18 4h-34c-6-1-13-2-19-4-9-3-17-7-24-6 0 0 2 7 4 12 2 4 4 7 7 8 2 1 5 1 8 1 8-1 15-3 15 5-1 4-3 8-2 10 0 1 3 2 10 1 6-1 12-1 18-1 5 0 11 0 17 1zm-17 69v-1c3 0 3-1 4-2 0-2-1-4-1-7s1-4 2-5c2-2 0-3 0-4-2-1-2-2-1-4 2-1 4-3 4-7 0-5-4-8-8-9-5 1-8 4-8 9 0 4 2 6 3 7 2 2 1 3 0 4s-2 2-1 4c1 1 2 2 2 5 1 3-1 5 0 7 0 1 1 2 3 2l1 1zm0 42M957 1138v-113h22l27 80c3 7 4 13 6 16 1-4 3-10 6-18l27-78h20v113h-15v-95l-33 95h-13l-33-97v97h-14zm127-56c0-18 5-33 15-44 10-10 23-15 39-15 11 0 20 2 29 7 8 5 14 12 19 21 4 9 6 19 6 30 0 12-2 22-7 31-4 9-11 16-19 20-9 5-18 7-28 7s-20-2-28-7c-9-5-15-12-19-21-5-9-7-19-7-29zm16 1c0 13 3 24 11 32 7 8 16 12 27 12 12 0 21-4 28-12s11-19 11-34c0-9-2-17-5-24s-7-12-13-16-13-6-20-6c-11 0-20 4-28 11-7 8-11 20-11 37zm107 18l14-1c0 6 2 10 4 14 3 4 7 6 12 9 5 2 11 3 17 3s11-1 15-3c5-1 8-4 10-6 2-3 3-7 3-10 0-4-1-7-3-9-2-3-5-5-10-7-3-1-10-3-20-6-11-2-18-4-22-7-5-3-10-6-12-10-3-4-4-9-4-14 0-6 1-11 5-16 3-5 8-9 14-12 6-2 13-3 21-3s15 1 22 4c6 2 11 6 15 12 3 5 5 11 5 17l-14 1c-1-7-4-12-8-16-4-3-11-5-20-5s-15 1-20 5c-4 3-6 7-6 12 0 4 2 7 5 10 3 2 10 5 22 8s21 5 25 7c7 3 12 7 15 12 3 4 5 10 5 16s-2 11-6 17c-3 5-8 9-14 12-7 3-14 4-22 4-10 0-19-1-26-4s-12-7-16-13-6-13-6-21zm191-3l15 4c-4 12-9 21-17 28-9 6-18 9-30 9s-22-2-30-7-13-12-17-22c-4-9-6-19-6-30 0-12 2-22 6-31 5-8 11-15 20-20 8-4 17-6 27-6 11 0 21 2 29 8 7 6 13 14 16 25l-15 3c-3-8-7-14-12-18-4-4-11-6-18-6-9 0-16 2-22 7-6 4-10 9-12 16-3 7-4 15-4 22 0 10 1 18 4 25s7 13 13 16c6 4 13 6 20 6 8 0 15-3 21-8 6-4 10-12 12-21zm28-16c0-18 5-33 16-44 10-10 23-15 39-15 10 0 19 2 28 7 8 5 15 12 19 21s6 19 6 30c0 12-2 22-6 31-5 9-12 16-20 20-9 5-18 7-28 7s-20-2-28-7-15-12-19-21-7-19-7-29zm16 1c0 13 3 24 11 32 7 8 16 12 27 12 12 0 21-4 28-12s11-19 11-34c0-9-1-17-5-24-3-7-7-12-13-16s-13-6-20-6c-11 0-20 4-28 11-7 8-11 20-11 37zm132 55l-30-113h15l17 74c2 7 3 15 5 23 3-12 4-19 5-21l21-76h18l17 57c4 14 7 27 8 40 2-7 4-16 6-25l18-72h15l-31 113h-15l-23-87c-2-7-4-11-4-13-1 5-2 10-3 13l-24 87h-15z"/></symbol><symbol viewBox="-7.543 -1 40.876 28.914" id="mail"><path d="M-7.543-1v28.914h40.876V-1H-7.543zM31.607.934v4.9l-18.712 6.79-18.712-6.79v-4.9h37.423zM-5.818 25.98V8.207l18.213 6.366c.15.117.324.176.5.176.173 0 .343-.06.494-.176l18.213-6.366v17.77h-37.42z"/></symbol><symbol viewBox="0 0 90 90" id="phone"><path d="M83.3 62.8c-5.2-4.2-9.2-6.1-12.7-6.1-4.2 0-7 2.8-9.9 5.8l-1 1c-.4.4-.9.6-1.5.6-2.4 0-7.7-2.3-18.8-13.5C24 35.2 25.6 31.1 26.5 30.2l.9-.9c5.4-5.3 10-9.8-.3-22.6C23.6 2.2 20 0 16.4 0c-4.9 0-8.7 3.9-12 7.4-.5.6-1.1 1.2-1.6 1.7-3.7 3.7-3.7 11.9 0 21.8C6.9 41.8 15 53.7 25.7 64.3c19 19 37 25.7 46.6 25.7 3.8 0 6.7-1 8.5-2.8.5-.5 1.1-1.1 1.7-1.6 3.6-3.4 7.6-7.3 7.4-12.3-.1-3.6-2.2-7-6.6-10.5zm-2.8 20.6c-.6.6-1.2 1.1-1.8 1.7-1.2 1.3-3.5 1.9-6.4 1.9-9.1 0-26.2-6.5-44.5-24.8C17.5 51.8 9.6 40.3 5.6 29.8 2.4 21.3 2.2 14 4.9 11.3c.6-.6 1.1-1.1 1.7-1.8 2.9-3 6.2-6.5 9.8-6.5 2.6 0 5.5 1.9 8.4 5.5 8.6 10.7 5.5 13.6.5 18.6l-1 1c-4 4 .1 11.8 12.9 24.7 9.7 9.7 16.5 14.4 21 14.4 1.5 0 2.7-.5 3.7-1.5l1-1c2.7-2.7 4.8-4.9 7.8-4.9 2.7 0 6.2 1.8 10.8 5.4 3.6 2.9 5.4 5.6 5.5 8.2.1 3.7-3.4 7-6.5 10z"/></symbol><symbol preserveAspectRatio="xMidYMid" viewBox="0 0 122 122" id="play"><circle cx="61" cy="61" r="60"/><path d="M92.002 60.5l-52 29.5V31L92 60.5z" fill-rule="evenodd"/></symbol><symbol viewBox="0 0 31 21" id="print"><path d="M0 0h31v13H0V0zm1 1h29v11H1V1zM6 13h20v8H6v-8zm1 0h18v7H7v-7z" fill-rule="evenodd" clip-rule="evenodd"/><path d="M4 1h24v3H4V1zm1 0h22v2H5V1zM9 14h14v1H9v-1zM9 16h14v1H9v-1zM23 18h1v1h-1v-1zM1 3h1v1H1V3zM1 5h1v1H1V5z" fill-rule="evenodd" clip-rule="evenodd"/></symbol><symbol preserveAspectRatio="xMidYMid" viewBox="0 0 21.992 23.684" id="profile"><circle cx="10.996" cy="5.842" r="5.428" stroke-miterlimit="10"/><path d="M21.51 23.217H.49S0 11.364 10.996 11.364c11.292 0 10.515 11.853 10.515 11.853z" stroke-miterlimit="10"/></symbol><symbol viewBox="0 0 9.373 23.269" id="question"><path d="M4.687 0C1.122 0 0 2.905 0 6.007v1.09h.33v-1.09c0-2.904.99-5.71 4.356-5.71 3.433 0 4.356 2.674 4.356 5.645 0 4.522-5.083 5.94-5.116 10.958 0 .396.066.792.165 1.188h.33a4.908 4.908 0 0 1-.164-1.188c0-4.852 5.116-6.27 5.116-10.958C9.372 2.772 8.317 0 4.687 0zM4.06 20.727v2.542h.33v-2.543h-.33z"/></symbol><symbol viewBox="0 0 22.012 20" id="reset"><defs><path id="bka" d="M22.012 20h-10V0h10v20zm-20-20h10v10h-10V0z"/></defs><clipPath id="bkb"><use xlink:href="#bka" overflow="visible"/></clipPath><path d="M12.512 0c5.247 0 9.5 4.253 9.5 9.5s-4.253 9.5-9.5 9.5-9.5-4.253-9.5-9.5S7.265 0 12.512 0zm0 1a8.5 8.5 0 1 1 0 17 8.5 8.5 0 0 1 0-17z" clip-path="url(#bkb)" fill-rule="evenodd" clip-rule="evenodd"/><path clip-path="url(#bkb)" fill-rule="evenodd" clip-rule="evenodd" fill="none" d="M2.012 0h20v20h-20z"/><path d="M0 6.712l.775-.388 2.578 5.12-.075 1.712L0 6.712zm7.635.317l-.8-.49-3.482 4.903-.075 1.713L7.635 7.03z" fill-rule="evenodd" clip-rule="evenodd"/></symbol><symbol viewBox="0 0 21.77926 25.664025" id="search"><path d="M9.594 0C4.3 0 0 4.303 0 9.596s4.3 9.593 9.594 9.593c1.8 0 3.478-.506 4.918-1.37l.748.944a1.504 1.504 0 0 0 .15 1.593l3.69 4.733a1.508 1.508 0 0 0 2.105.26 1.508 1.508 0 0 0 .26-2.106l-3.69-4.73a1.503 1.503 0 0 0-1.46-.545l-.715-.904a9.573 9.573 0 0 0 3.588-7.47c0-5.293-4.3-9.596-9.594-9.596zm0 1a8.587 8.587 0 0 1 8.594 8.596 8.586 8.586 0 0 1-8.594 8.593A8.586 8.586 0 0 1 1 9.595 8.587 8.587 0 0 1 9.594 1zm5.672 16.502l.466.59-.21.144-.47-.59.214-.144zm1.388 1.432a.5.5 0 0 1 .332.195l3.69 4.73a.488.488 0 0 1-.086.7.49.49 0 0 1-.703-.085l-3.69-4.733a.488.488 0 0 1 .088-.7.498.498 0 0 1 .37-.108z" fill="#a7865d"/></symbol><symbol viewBox="0 0 28 32" id="share"><path fill-rule="evenodd" clip-rule="evenodd" d="M27 0v31H1V0H0v32h28V0"/><path d="M8 19a3 3 0 1 1 0 6 3 3 0 0 1 0-6zm0 1a2 2 0 1 1 0 4 2 2 0 0 1 0-4zM20.792 13a3 3 0 1 1 0 6 3 3 0 0 1 0-6zm0 1a2 2 0 1 1 0 4 2 2 0 0 1 0-4zM10 7a3 3 0 1 1 0 6 3 3 0 0 1 0-6zm0 1a2 2 0 1 1 0 4 2 2 0 0 1 0-4z" fill-rule="evenodd" clip-rule="evenodd"/><path d="M10.148 20.75l8.324-3.424.38.925-8.324 3.424-.38-.925zM12.644 10.416l6.182 3.284-.47.883-6.18-3.284.468-.884z" fill-rule="evenodd" clip-rule="evenodd"/></symbol><symbol viewBox="0 0 23.464843 33.779298" id="shop"><path d="M11.857 0c-1.737 0-3.295.93-4.39 2.38-1.096 1.45-1.754 3.424-1.754 5.6v4.07c-.58-.573-1.026-1.218-1.258-1.92l-.19-.58-.544.28a9.524 9.524 0 0 0-3.466 3.043l-.254.37.324.306c1.718 1.618 2.874 4.818 2.875 8.304-.004 3.126-.93 6.05-2.393 7.785l-.286.335.287.336c1.8 2.118 4.59 3.47 7.726 3.47h6.246c3.346 0 6.3-1.534 8.075-3.903l.237-.314-.238-.315c-1.346-1.763-2.178-4.555-2.18-7.52 0-3.23.99-6.237 2.527-7.947l.265-.292-.21-.332c-.81-1.275-1.947-2.333-3.29-3.107l-.53-.306-.216.57c-.248.647-.676 1.24-1.22 1.77V7.98c0-2.176-.658-4.15-1.754-5.6C15.15.93 13.596 0 11.856 0zm0 .916c1.413 0 2.7.748 3.66 2.018.958 1.27 1.567 3.056 1.567 5.046v4.844c-1.37.932-3.204 1.522-5.215 1.524-2.03-.002-3.87-.602-5.24-1.545V7.98c0-1.99.61-3.777 1.57-5.046.96-1.27 2.245-2.018 3.657-2.018zM3.8 11.03c1.232 2.625 4.415 4.355 8.067 4.36h.002c3.52-.004 6.61-1.614 7.94-4.097.937.613 1.764 1.35 2.372 2.24-1.593 2.004-2.548 4.962-2.55 8.196.003 2.958.812 5.7 2.175 7.7-1.59 1.974-4.106 3.308-7.028 3.308H8.532a9.024 9.024 0 0 1-6.68-2.91c1.49-2.005 2.384-4.86 2.387-7.974 0-3.493-1.063-6.696-2.883-8.665A8.432 8.432 0 0 1 3.8 11.03zm7.24 10.753v2h2v-2h-2z"/></symbol><symbol preserveAspectRatio="xMidYMid" viewBox="0 0 23.986 23.007" id="star"><path d="M11.993 0l2.818 8.806 9.176-.018-7.433 5.425 2.852 8.794-7.412-5.453-7.412 5.453 2.853-8.794L0 8.788l9.175.018L11.993 0z"/></symbol><symbol preserveAspectRatio="xMidYMid" viewBox="0 0 9.694 11.673" id="tick"><path d="M2.642 4.335c.785 1.485 1.002 2.235 1.16 3.04L5.476 4.8 9.694 0C1.082 17.57 3.934 11.637.192 5.76a1.417 1.417 0 0 1 2.45-1.425z"/></symbol><symbol preserveAspectRatio="xMidYMid" viewBox="0 0 6 5" id="triangle"><path d="M3 5L0 0h6z"/></symbol><symbol viewBox="0 34.679 548.357 487" id="vk"><path d="M545.45 400.298c-.664-1.432-1.282-2.618-1.857-3.57-9.515-17.135-27.695-38.166-54.532-63.102l-.566-.57-.283-.28-.286-.286h-.288c-12.18-11.61-19.894-19.42-23.123-23.416-5.91-7.613-7.234-15.32-4.004-23.13 2.28-5.9 10.853-18.36 25.694-37.397 7.808-10.09 13.99-18.175 18.557-24.267 32.932-43.78 47.21-71.756 42.83-83.94l-1.702-2.846c-1.144-1.714-4.093-3.282-8.846-4.712-4.765-1.427-10.854-1.663-18.278-.712l-82.225.568c-1.333-.472-3.234-.428-5.713.144-2.475.572-3.713.86-3.713.86l-1.43.714-1.137.86c-.952.567-2 1.566-3.143 2.994-1.137 1.423-2.088 3.093-2.848 4.996-8.952 23.03-19.13 44.444-30.553 64.238-7.043 11.803-13.512 22.032-19.418 30.693-5.9 8.658-10.85 15.037-14.843 19.126-4 4.093-7.61 7.372-10.852 9.85-3.237 2.477-5.708 3.524-7.42 3.14a209.21 209.21 0 0 1-4.858-1.142c-2.663-1.713-4.805-4.044-6.42-6.994-1.622-2.95-2.714-6.663-3.285-11.136-.567-4.476-.903-8.326-1-11.563-.09-3.233-.048-7.806.146-13.706.198-5.902.287-9.896.287-11.99 0-7.234.14-15.085.424-23.555.288-8.47.52-15.18.716-20.125.194-4.95.284-10.185.284-15.705s-.336-9.85-1-12.99a44.442 44.442 0 0 0-2.99-9.138c-1.335-2.95-3.29-5.232-5.853-6.852-2.568-1.618-5.763-2.902-9.563-3.856-10.09-2.284-22.936-3.52-38.547-3.71-35.4-.38-58.147 1.905-68.235 6.854-3.997 2.09-7.614 4.948-10.85 8.562-3.426 4.19-3.904 6.475-1.43 6.85 11.422 1.712 19.508 5.805 24.267 12.276l1.715 3.43c1.334 2.473 2.666 6.853 4 13.133 1.33 6.28 2.19 13.227 2.567 20.837.95 13.897.95 25.793 0 35.69-.953 9.9-1.853 17.606-2.712 23.126s-2.144 9.993-3.855 13.418c-1.715 3.426-2.855 5.52-3.428 6.28-.572.76-1.048 1.24-1.426 1.427a21.387 21.387 0 0 1-7.71 1.43c-2.667 0-5.9-1.333-9.707-4-3.805-2.665-7.754-6.327-11.847-10.99-4.094-4.666-8.71-11.185-13.85-19.56-5.138-8.373-10.468-18.27-15.988-29.69l-4.566-8.282c-2.855-5.327-6.755-13.085-11.704-23.266-4.952-10.185-9.33-20.037-13.134-29.554-1.52-3.997-3.807-7.04-6.852-9.134l-1.43-.86c-.95-.76-2.474-1.566-4.566-2.426a30.293 30.293 0 0 0-6.566-1.854l-78.23.568c-7.993 0-13.417 1.81-16.272 5.428l-1.144 1.71c-.57.954-.858 2.476-.858 4.57 0 2.095.57 4.665 1.714 7.708 11.42 26.84 23.84 52.725 37.257 77.66s25.08 45.018 34.974 60.237c9.897 15.23 19.985 29.602 30.265 43.11 10.277 13.517 17.082 22.177 20.41 25.98 3.334 3.814 5.95 6.663 7.855 8.566l7.14 6.85c4.567 4.57 11.275 10.042 20.127 16.417 8.853 6.38 18.653 12.66 29.407 18.85 10.755 6.182 23.27 11.227 37.545 15.127 14.275 3.904 28.17 5.473 41.685 4.717h32.834c6.658-.576 11.704-2.67 15.133-6.283l1.136-1.43c.764-1.138 1.48-2.9 2.14-5.276.667-2.38 1-5 1-7.852-.195-8.184.428-15.56 1.852-22.124 1.423-6.563 3.045-11.513 4.858-14.847 1.813-3.33 3.86-6.138 6.137-8.417 2.28-2.282 3.908-3.666 4.86-4.142.95-.478 1.706-.803 2.277-.998 4.568-1.52 9.944-.048 16.136 4.43 6.188 4.473 11.99 9.996 17.418 16.56 5.427 6.57 11.944 13.94 19.557 22.124 7.616 8.186 14.276 14.27 19.984 18.273l5.71 3.425c3.812 2.287 8.76 4.38 14.853 6.283 6.08 1.902 11.41 2.38 15.983 1.428l73.087-1.14c7.23 0 12.854-1.198 16.845-3.573 3.998-2.38 6.373-5 7.14-7.85.763-2.855.804-6.093.145-9.713-.682-3.61-1.348-6.135-2.013-7.562z"/></symbol><symbol viewBox="0 2.917 28 26.083" id="yt"><path d="M27.76 10.713c-.154-1.864-1.266-4.214-3.55-4.298-6.378-.43-13.933-.546-20.425 0C1.77 6.64.39 9.095.24 10.958c-.32 3.915-.32 6.143 0 10.057.15 1.864 1.497 4.332 3.548 4.592 6.57.428 14.09.49 20.425 0 1.988-.346 3.397-2.728 3.55-4.592.317-3.915.317-6.387-.002-10.302zM10.5 20.953V10.917l8.75 5.02-8.75 5.016z"/></symbol><symbol preserveAspectRatio="xMidYMid" viewBox="0 0 16 19" id="zoom"><path d="M15.278 18.25c-.332.404-.956.302-1.392-.228l-2.635-3.2c-.435-.53-.52-1.288-.187-1.692.333-.404.956-.302 1.393.23l2.634 3.2c.437.53.52 1.286.188 1.69zM7.406 14C3.592 14 .5 10.978.5 7.25S3.592.5 7.406.5c3.815 0 6.907 3.022 6.907 6.75S11.22 14 7.406 14z"/></symbol></svg>